{
.appVersion = "3525";
.formatVersion = 3;
customParameters = (
{
name = vendorID;
value = PfEd;
},
{
name = panose;
value = (
2,
11,
7,
9,
3,
6,
4,
2,
2,
4
);
},
{
name = unicodeRanges;
value = (
0,
1,
2,
3,
4,
5,
6,
7,
9,
10,
13,
24,
25,
26,
29,
30,
31,
32,
33,
35,
36,
37,
38,
39,
40,
43,
44,
45,
46,
47,
57,
60,
62,
63,
67,
69,
89
);
},
{
name = fsType;
value = (
);
},
{
name = glyphOrder;
value = (
.notdef,
.null,
CR,
space,
exclam,
quotedbl,
numbersign,
dollar,
percent,
ampersand,
quotesingle,
parenleft,
parenright,
asterisk,
plus,
comma,
hyphen,
period,
slash,
zero,
one,
two,
three,
four,
five,
six,
seven,
eight,
nine,
colon,
semicolon,
less,
equal,
greater,
question,
at,
A,
B,
C,
D,
E,
F,
G,
H,
I,
J,
K,
L,
M,
N,
O,
P,
Q,
R,
S,
T,
U,
V,
W,
X,
Y,
Z,
bracketleft,
backslash,
bracketright,
asciicircum,
underscore,
grave,
a,
b,
c,
d,
e,
f,
g,
h,
i,
j,
k,
l,
m,
n,
o,
p,
q,
r,
s,
t,
u,
v,
w,
x,
y,
z,
braceleft,
bar,
braceright,
asciitilde,
nonbreakingspace,
exclamdown,
cent,
sterling,
currency,
yen,
brokenbar,
section,
dieresis,
copyright,
ordfeminine,
guillemotleft,
logicalnot,
sfthyphen,
registered,
macron,
degree,
plusminus,
twosuperior,
threesuperior,
acute,
mu,
paragraph,
periodcentered,
cedilla,
onesuperior,
ordmasculine,
guillemotright,
onequarter,
onehalf,
threequarters,
questiondown,
Agrave,
Aacute,
Acircumflex,
Atilde,
Adieresis,
Aring,
AE,
Ccedilla,
Egrave,
Eacute,
Ecircumflex,
Edieresis,
Igrave,
Iacute,
Icircumflex,
Idieresis,
Eth,
Ntilde,
Ograve,
Oacute,
Ocircumflex,
Otilde,
Odieresis,
multiply,
Oslash,
Ugrave,
Uacute,
Ucircumflex,
Udieresis,
Yacute,
Thorn,
germandbls,
agrave,
aacute,
acircumflex,
atilde,
adieresis,
aring,
ae,
ccedilla,
egrave,
eacute,
ecircumflex,
edieresis,
igrave,
iacute,
icircumflex,
idieresis,
eth,
ntilde,
ograve,
oacute,
ocircumflex,
otilde,
odieresis,
divide,
oslash,
ugrave,
uacute,
ucircumflex,
udieresis,
yacute,
thorn,
ydieresis,
Amacron,
amacron,
Abreve,
abreve,
Aogonek,
aogonek,
Cacute,
cacute,
Ccircumflex,
ccircumflex,

glyphs = (
{
glyphname = .notdef;
layers = (
{
layerId = m01;
shapes = (
{
closed = 1;
nodes = (
(1128,1444,l),
(104,1444,l),
(104,-362,l),
(1128,-362,l)
);
},
{
closed = 1;
nodes = (
(1014,1329,l),
(1014,-248,l),
(219,-248,l),
(219,1329,l)
);
}
);
userData = {
assembly = "NPUSHB[ ]	/* 12 values pushed */
4 190 0 6 190 1 8 5 98 2 4 0
MDAP[1]	/* MoveDirectAbsPt */
MDRP[00100]	/* MoveDirectRelPt */
MDRP[10100]	/* MoveDirectRelPt */
MIRP[01100]	/* MoveIndirectRelPt */
IUP[1]	/* InterpolateUntPts */
SVTCA[0]	/* SetFreedomAndProjectionVectorToAxis */
SRP0[ ]	/* SetRefPoint0 */
MDRP[10100]	/* MoveDirectRelPt */
MIRP[01100]	/* MoveIndirectRelPt */
MDRP[10100]	/* MoveDirectRelPt */
MIRP[01100]	/* MoveIndirectRelPt */
IUP[0]	/* InterpolateUntPts */";
};
width = 1233;
}
);
note = .notdef;
},
{
glyphname = exclam;
layers = (
{
layerId = m01;
shapes = (
{
closed = 1;
nodes = (
(750,0,l),
(750,283,l),
(483,283,l),
(483,0,l)
);
},
{
closed = 1;
nodes = (
(518,481,l),
(717,481,l),
(750,838,l),
(750,1493,l),
(483,1493,l),
(483,838,l)
);
}
);
userData = {
assembly = "NPUSHB[ ]	/* 13 values pushed */
7 0 4 100 2 8 7 5 1 1 4 0 10
SRP0[ ]	/* SetRefPoint0 */
MDRP[10100]	/* MoveDirectRelPt */
ALIGNRP[ ]	/* AlignRelativePt */
MIRP[01100]	/* MoveIndirectRelPt */
SHP[0]	/* ShiftPointByLastPoint */
IP[ ]	/* InterpolatePts */
IP[ ]	/* InterpolatePts */
IUP[1]	/* InterpolateUntPts */
SVTCA[0]	/* SetFreedomAndProjectionVectorToAxis */
MDAP[1]	/* MoveDirectAbsPt */
MIRP[00100]	/* MoveIndirectRelPt */
MDRP[11100]	/* MoveDirectRelPt */
MDRP[01100]	/* MoveDirectRelPt */
IUP[0]	/* InterpolateUntPts */";
};
width = 1233;
}
);
note = exclam;
unicode = 33;
},
{
glyphname = quotedbl;
layers = (
{
layerId = m01;
shapes = (
{
closed = 1;
nodes = (
(743,938,l),
(999,938,l),
(999,1493,l),
(743,1493,l)
);
},
{
closed = 1;
nodes = (
(231,938,l),
(487,938,l),
(487,1493,l),
(231,1493,l)
);
}
);
userData = {
assembly = "NPUSHB[ ]	/* 11 values pushed */
5 1 4 0 100 8 0 2 6 4 8
SRP0[ ]	/* SetRefPoint0 */
MDRP[10100]	/* MoveDirectRelPt */
MDRP[01100]	/* MoveDirectRelPt */
MDRP[10100]	/* MoveDirectRelPt */
MDRP[01100]	/* MoveDirectRelPt */
IUP[1]	/* InterpolateUntPts */
SVTCA[0]	/* SetFreedomAndProjectionVectorToAxis */
SRP0[ ]	/* SetRefPoint0 */
MIRP[10100]	/* MoveIndirectRelPt */
ALIGNRP[ ]	/* AlignRelativePt */
MDRP[01100]	/* MoveDirectRelPt */
SHP[0]	/* ShiftPointByLastPoint */
IUP[0]	/* InterpolateUntPts */";
};
width = 1233;
}
);
note = quotedbl;
unicode = 34;
},
{
glyphname = numbersign;
layers = (
{
layerId = m01;
shapes = (
{
closed = 1;
nodes = (
(391,1096,l),
(117,1096,l),
(117,881,l),
(336,881,l),
(262,588,l),
(2,588,l),
(2,373,l),
(209,373,l),
(115,0,l),
(336,0,l),
(430,373,l),
(635,373,l),
(541,0,l),
(762,0,l),
(856,373,l),
(1114,373,l),
(1114,588,l),
(909,588,l),
(983,881,l),
(1229,881,l),
(1229,1096,l),
(1036,1096,l),
(1133,1470,l),
(909,1470,l),
(815,1096,l),
(612,1096,l),
(707,1470,l),
(485,1470,l)
);
},
{
closed = 1;
nodes = (
(483,588,l),
(557,881,l),
(762,881,l),
(688,588,l)
);
}
);
userData = {
assembly = "NPUSHB[ ]	/* 48 values pushed */
28 23 7 103 3 0 25 5 1 30 21 9 103 19 15 11 17 13 31 30 29 28 27 26 24 23 22 19 18 17 16 15 14 13 12 10 9 8 5 4 3 2 1 0 26 6 20 32
SRP0[ ]	/* SetRefPoint0 */
MDRP[10100]	/* MoveDirectRelPt */
MDRP[01100]	/* MoveDirectRelPt */
SLOOP[ ]	/* SetLoopVariable */
IP[ ]	/* InterpolatePts */
IUP[1]	/* InterpolateUntPts */
SVTCA[0]	/* SetFreedomAndProjectionVectorToAxis */
MDAP[1]	/* MoveDirectAbsPt */
ALIGNRP[ ]	/* AlignRelativePt */
MDRP[10100]	/* MoveDirectRelPt */
ALIGNRP[ ]	/* AlignRelativePt */
ALIGNRP[ ]	/* AlignRelativePt */
MIRP[11100]	/* MoveIndirectRelPt */
ALIGNRP[ ]	/* AlignRelativePt */
ALIGNRP[ ]	/* AlignRelativePt */
MDRP[10100]	/* MoveDirectRelPt */
ALIGNRP[ ]	/* AlignRelativePt */
ALIGNRP[ ]	/* AlignRelativePt */
MDRP[00100]	/* MoveDirectRelPt */
SHP[0]	/* ShiftPointByLastPoint */
MIRP[01100]	/* MoveIndirectRelPt */
SHP[0]	/* ShiftPointByLastPoint */
SHP[0]	/* ShiftPointByLastPoint */
IUP[0]	/* InterpolateUntPts */";
};
width = 1233;
}
);
note = numbersign;
unicode = 35;
},
{
glyphname = dollar;
layers = (
{
layerId = m01;
shapes = (
{
closed = 1;
nodes = (
(827,437,o),
(827,375,qs),
(827,314,o),
(757,235,o),
(694,226,q),
(694,528,l),
(758,516,o)
);
},
{
closed = 1;
nodes = (
(428,910,o),
(428,967,qs),
(428,1025,o),
(491,1092,o),
(553,1100,q),
(553,817,l),
(491,834,o)
);
},
{
closed = 1;
nodes = (
(875,9,o),
(1092,219,o),
(1092,383,qs),
(1092,555,o),
(891,762,o),
(694,793,q),
(694,1100,l),
(785,1094,o),
(937,1046,o),
(999,1006,q),
(999,1262,l),
(919,1287,o),
(766,1315,o),
(695,1319,q),
(694,1556,l),
(553,1556,l),
(553,1319,l),
(368,1307,o),
(164,1109,o),
(164,942,qs),
(164,785,o),
(356,594,o),
(553,555,q),
(553,226,l),
(468,227,o),
(275,293,o),
(172,354,q),
(172,92,l),
(275,49,o),
(465,3,o),
(552,0,q),
(553,-301,l),
(694,-301,l),
(695,0,l)
);
}
);
userData = {
assembly = "NPUSHB[ ]	/* 43 values pushed */
0 7 24 41 4 20 37 36 40 8 104 31 30 20 19 23 1 104 33 30 14 47 16 36 4 44 3 0 11 19 27 3 40 32 14 3 0 30 23 15 3 7 48
SRP0[ ]	/* SetRefPoint0 */
MDRP[10100]	/* MoveDirectRelPt */
SLOOP[ ]	/* SetLoopVariable */
ALIGNRP[ ]	/* AlignRelativePt */
MDRP[01100]	/* MoveDirectRelPt */
SLOOP[ ]	/* SetLoopVariable */
SHP[0]	/* ShiftPointByLastPoint */
MIRP[11100]	/* MoveIndirectRelPt */
MDRP[00100]	/* MoveDirectRelPt */
MDRP[01100]	/* MoveDirectRelPt */
SRP0[ ]	/* SetRefPoint0 */
MIRP[11100]	/* MoveIndirectRelPt */
MDRP[01110]	/* MoveDirectRelPt */
MDRP[00100]	/* MoveDirectRelPt */
IUP[1]	/* InterpolateUntPts */
SVTCA[0]	/* SetFreedomAndProjectionVectorToAxis */
MDAP[1]	/* MoveDirectAbsPt */
ALIGNRP[ ]	/* AlignRelativePt */
MDRP[00100]	/* MoveDirectRelPt */
MDRP[00110]	/* MoveDirectRelPt */
SHP[0]	/* ShiftPointByLastPoint */
MIRP[01110]	/* MoveIndirectRelPt */
SHP[0]	/* ShiftPointByLastPoint */
MDRP[10110]	/* MoveDirectRelPt */
MDRP[00110]	/* MoveDirectRelPt */
SRP0[ ]	/* SetRefPoint0 */
MDRP[00110]	/* MoveDirectRelPt */
MIRP[01110]	/* MoveIndirectRelPt */
SHP[0]	/* ShiftPointByLastPoint */
MDRP[10110]	/* MoveDirectRelPt */
MDRP[00110]	/* MoveDirectRelPt */
SRP1[ ]	/* SetRefPoint1 */
SLOOP[ ]	/* SetLoopVariable */
IP[ ]	/* InterpolatePts */
IUP[0]	/* InterpolateUntPts */";
};
width = 1233;
}
);
note = dollar;
unicode = 36;
},
{
glyphname = percent;
layers = (
{
layerId = m01;
shapes = (
{
closed = 1;
nodes = (
(219,793,o),
(352,793,qs),
(485,793,o),
(672,979,o),
(672,1112,qs),
(672,1245,o),
(485,1432,o),
(352,1432,qs),
(219,1432,o),
(33,1246,o),
(33,1112,qs),
(33,978,o)
);
},
{
closed = 1;
nodes = (
(489,1169,o),
(489,1112,qs),
(489,1054,o),
(410,975,o),
(352,975,qs),
(295,975,o),
(215,1054,o),
(215,1112,qs),
(215,1170,o),
(295,1249,o),
(352,1249,qs),
(409,1249,o)
);
},
{
closed = 1;
nodes = (
(1169,883,l),
(1128,979,l),
(86,561,l),
(121,465,l)
);
},
{
closed = 1;
nodes = (
(765,0,o),
(899,0,qs),
(1031,0,o),
(1219,187,o),
(1219,319,qs),
(1219,452,o),
(1031,639,o),
(899,639,qs),
(765,639,o),
(580,453,o),
(580,319,qs),
(580,185,o)
);
},
{
closed = 1;
nodes = (
(1036,376,o),
(1036,319,qs),
(1036,262,o),
(955,182,o),
(897,182,qs),
(840,182,o),
(762,261,o),
(762,319,qs),
(762,377,o),
(841,457,o),
(897,457,qs),
(954,457,o)
);
}
);
userData = {
assembly = "NPUSHB[ ]	/* 45 values pushed */
27 24 40 31 25 12 26 18 9 40 107 31 18 107 9 12 107 3 106 31 46 107 37 25 26 49 34 27 24 15 0 43 4 28 49 4 34 21 4 6 15 4 34 0 52
SRP0[ ]	/* SetRefPoint0 */
MDRP[10100]	/* MoveDirectRelPt */
MDRP[00100]	/* MoveDirectRelPt */
MIRP[01100]	/* MoveIndirectRelPt */
MDRP[11100]	/* MoveDirectRelPt */
MIRP[01100]	/* MoveIndirectRelPt */
SRP0[ ]	/* SetRefPoint0 */
MIRP[01110]	/* MoveIndirectRelPt */
MDRP[11110]	/* MoveDirectRelPt */
MIRP[01110]	/* MoveIndirectRelPt */
SRP1[ ]	/* SetRefPoint1 */
SRP2[ ]	/* SetRefPoint2 */
IP[ ]	/* InterpolatePts */
IP[ ]	/* InterpolatePts */
SRP1[ ]	/* SetRefPoint1 */
SRP2[ ]	/* SetRefPoint2 */
IP[ ]	/* InterpolatePts */
IP[ ]	/* InterpolatePts */
IUP[1]	/* InterpolateUntPts */
SVTCA[0]	/* SetFreedomAndProjectionVectorToAxis */
MDAP[1]	/* MoveDirectAbsPt */
MIRP[01110]	/* MoveIndirectRelPt */
MDRP[01110]	/* MoveDirectRelPt */
MIRP[10110]	/* MoveIndirectRelPt */
MIRP[01110]	/* MoveIndirectRelPt */
MDRP[11110]	/* MoveDirectRelPt */
MIRP[01110]	/* MoveIndirectRelPt */
SRP0[ ]	/* SetRefPoint0 */
MIRP[01110]	/* MoveIndirectRelPt */
SRP1[ ]	/* SetRefPoint1 */
SRP2[ ]	/* SetRefPoint2 */
IP[ ]	/* InterpolatePts */
SRP1[ ]	/* SetRefPoint1 */
IP[ ]	/* InterpolatePts */
SRP1[ ]	/* SetRefPoint1 */
SRP2[ ]	/* SetRefPoint2 */
IP[ ]	/* InterpolatePts */
IP[ ]	/* InterpolatePts */
IUP[0]	/* InterpolateUntPts */";
};
width = 1233;
}
);
note = percent;
unicode = 37;
},
{
glyphname = ampersand;
layers = (
{
layerId = m01;
shapes = (
{
closed = 1;
nodes = (
(1235,0,l),
(1073,246,l),
(1146,332,o),
(1214,549,o),
(1214,694,qs),
(1214,745,l),
(979,745,l),
(983,720,o),
(987,663,o),
(987,633,qs),
(987,576,o),
(965,478,o),
(944,440,q),
(631,920,ls),
(563,1022,o),
(502,1148,o),
(502,1184,qs),
(502,1238,o),
(584,1294,o),
(664,1294,qs),
(729,1294,o),
(860,1257,o),
(924,1221,q),
(924,1477,l),
(856,1498,o),
(716,1520,o),
(643,1520,qs),
(437,1520,o),
(219,1346,o),
(219,1184,qs),
(219,1124,o),
(267,991,o),
(317,913,q),
(178,825,o),
(37,587,o),
(37,442,qs),
(37,233,o),
(315,-29,o),
(539,-29,qs),
(626,-29,o),
(795,22,o),
(870,72,q),
(918,0,l)
);
},
{
closed = 1;
nodes = (
(730,250,o),
(701,236,qs),
(695,233,o),
(693,232,qs),
(665,220,o),
(606,207,o),
(578,207,qs),
(464,207,o),
(307,374,o),
(307,496,qs),
(307,569,o),
(374,688,o),
(440,731,q),
(748,262,l)
);
}
);
userData = {
assembly = "NPUSHB[ ]	/* 90 values pushed */
2 1 2 3 0 41 40 42 40 41 40 45 44 2 46 43 28 29 28 50 51 52 53 54 55 6 49 56 29 29 28 37 56 43 40 37 29 5 35 0 49 41 9 28 35 19 49 112 35 3 19 112 18 111 22 112 15 110 3 114 41 40 36 32 43 46 25 35 29 32 28 18 9 46 0 56 18 25 1 12 32 41 18 36 8 46 1 12 6 57
SRP0[ ]	/* SetRefPoint0 */
MDRP[11100]	/* MoveDirectRelPt */
MDRP[00100]	/* MoveDirectRelPt */
MIRP[01100]	/* MoveIndirectRelPt */
MIRP[11100]	/* MoveIndirectRelPt */
MDRP[00100]	/* MoveDirectRelPt */
MDRP[00100]	/* MoveDirectRelPt */
MDRP[01100]	/* MoveDirectRelPt */
SRP0[ ]	/* SetRefPoint0 */
MIRP[01110]	/* MoveIndirectRelPt */
SRP1[ ]	/* SetRefPoint1 */
IP[ ]	/* InterpolatePts */
IP[ ]	/* InterpolatePts */
SRP1[ ]	/* SetRefPoint1 */
IP[ ]	/* InterpolatePts */
SRP1[ ]	/* SetRefPoint1 */
IP[ ]	/* InterpolatePts */
SRP2[ ]	/* SetRefPoint2 */
IP[ ]	/* InterpolatePts */
IP[ ]	/* InterpolatePts */
SRP1[ ]	/* SetRefPoint1 */
SRP2[ ]	/* SetRefPoint2 */
IP[ ]	/* InterpolatePts */
SRP1[ ]	/* SetRefPoint1 */
SRP2[ ]	/* SetRefPoint2 */
IP[ ]	/* InterpolatePts */
IUP[1]	/* InterpolateUntPts */
SVTCA[0]	/* SetFreedomAndProjectionVectorToAxis */
MDAP[1]	/* MoveDirectAbsPt */
MIRP[00100]	/* MoveIndirectRelPt */
MIRP[10110]	/* MoveIndirectRelPt */
MIRP[01110]	/* MoveIndirectRelPt */
MIRP[10110]	/* MoveIndirectRelPt */
MIRP[01110]	/* MoveIndirectRelPt */
SRP0[ ]	/* SetRefPoint0 */
MDRP[00110]	/* MoveDirectRelPt */
MIRP[01110]	/* MoveIndirectRelPt */
SRP1[ ]	/* SetRefPoint1 */
SRP2[ ]	/* SetRefPoint2 */
IP[ ]	/* InterpolatePts */
IP[ ]	/* InterpolatePts */
SRP1[ ]	/* SetRefPoint1 */
SRP2[ ]	/* SetRefPoint2 */
IP[ ]	/* InterpolatePts */
SRP1[ ]	/* SetRefPoint1 */
SLOOP[ ]	/* SetLoopVariable */
IP[ ]	/* InterpolatePts */
IUP[0]	/* InterpolateUntPts */
MPPEM[ ]	/* MeasurePixelPerEm */
GTEQ[ ]	/* GreaterThanOrEqual */
IF[ ]	/* If */
SPVTL[1]	/* SetPVectorToLine */
SRP0[ ]	/* SetRefPoint0 */
SFVTPV[ ]	/* SetFVectorToPVector */
MDRP[01001]	/* MoveDirectRelPt */
SRP1[ ]	/* SetRefPoint1 */
SLOOP[ ]	/* SetLoopVariable */
IP[ ]	/* InterpolatePts */
SPVTL[1]	/* SetPVectorToLine */
SRP0[ ]	/* SetRefPoint0 */
SFVTPV[ ]	/* SetFVectorToPVector */
MDRP[01001]	/* MoveDirectRelPt */
SRP1[ ]	/* SetRefPoint1 */
SLOOP[ ]	/* SetLoopVariable */
IP[ ]	/* InterpolatePts */
SPVTL[1]	/* SetPVectorToLine */
SRP0[ ]	/* SetRefPoint0 */
SFVTCA[1]	/* SetFVectorToAxis */
MDRP[01001]	/* MoveDirectRelPt */
SPVTL[1]	/* SetPVectorToLine */
SFVTPV[ ]	/* SetFVectorToPVector */
MDRP[01001]	/* MoveDirectRelPt */
SRP1[ ]	/* SetRefPoint1 */
SLOOP[ ]	/* SetLoopVariable */
IP[ ]	/* InterpolatePts */
EIF[ ]	/* EndIf */
CLEAR[ ]	/* ClearStack */";
};
width = 1233;
}
);
note = ampersand;
unicode = 38;
},
{
glyphname = quotesingle;
layers = (
{
layerId = m01;
shapes = (
{
closed = 1;
nodes = (
(487,938,l),
(743,938,l),
(743,1493,l),
(487,1493,l)
);
}
);
userData = {
assembly = "PUSHB[ ]	/* 7 values pushed */
1 0 100 4 0 2 4
SRP0[ ]	/* SetRefPoint0 */
MDRP[10100]	/* MoveDirectRelPt */
MDRP[01100]	/* MoveDirectRelPt */
IUP[1]	/* InterpolateUntPts */
SVTCA[0]	/* SetFreedomAndProjectionVectorToAxis */
SRP0[ ]	/* SetRefPoint0 */
MIRP[10100]	/* MoveIndirectRelPt */
MDRP[01100]	/* MoveDirectRelPt */
IUP[0]	/* InterpolateUntPts */";
};
width = 1233;
}
);
note = quotesingle;
unicode = 39;
},
{
glyphname = parenleft;
layers = (
{
layerId = m01;
shapes = (
{
closed = 1;
nodes = (
(538,1326,o),
(383,875,o),
(383,643,qs),
(383,410,o),
(537,-39,o),
(696,-270,q),
(924,-270,l),
(792,-30,o),
(664,421,o),
(664,643,qs),
(664,867,o),
(792,1315,o),
(924,1554,q),
(696,1554,l)
);
}
);
userData = {
assembly = "NPUSHB[ ]	/* 14 values pushed */
6 117 0 116 14 13 7 0 3 1 6 0 10 14
SRP0[ ]	/* SetRefPoint0 */
MDRP[10100]	/* MoveDirectRelPt */
MDRP[00100]	/* MoveDirectRelPt */
SHP[0]	/* ShiftPointByLastPoint */
MIRP[01100]	/* MoveIndirectRelPt */
SRP1[ ]	/* SetRefPoint1 */
IP[ ]	/* InterpolatePts */
IP[ ]	/* InterpolatePts */
IUP[1]	/* InterpolateUntPts */
SVTCA[0]	/* SetFreedomAndProjectionVectorToAxis */
SRP0[ ]	/* SetRefPoint0 */
MIRP[11100]	/* MoveIndirectRelPt */
MIRP[01100]	/* MoveIndirectRelPt */
IUP[0]	/* InterpolateUntPts */";
};
width = 1233;
}
);
note = parenleft;
unicode = 40;
},
{
glyphname = parenright;
layers = (
{
layerId = m01;
shapes = (
{
closed = 1;
nodes = (
(569,867,o),
(569,643,qs),
(569,421,o),
(441,-30,o),
(309,-270,q),
(537,-270,l),
(696,-39,o),
(850,410,o),
(850,643,qs),
(850,875,o),
(695,1326,o),
(537,1554,q),
(309,1554,l),
(441,1315,o)
);
}
);
userData = {
assembly = "NPUSHB[ ]	/* 14 values pushed */
7 117 0 116 14 7 1 11 8 0 4 1 11 14
SRP0[ ]	/* SetRefPoint0 */
MDRP[10100]	/* MoveDirectRelPt */
MIRP[11100]	/* MoveIndirectRelPt */
MDRP[00100]	/* MoveDirectRelPt */
SHP[0]	/* ShiftPointByLastPoint */
SRP1[ ]	/* SetRefPoint1 */
IP[ ]	/* InterpolatePts */
IP[ ]	/* InterpolatePts */
IUP[1]	/* InterpolateUntPts */
SVTCA[0]	/* SetFreedomAndProjectionVectorToAxis */
SRP0[ ]	/* SetRefPoint0 */
MIRP[11100]	/* MoveIndirectRelPt */
MIRP[01100]	/* MoveIndirectRelPt */
IUP[0]	/* InterpolateUntPts */";
};
width = 1233;
}
);
note = parenright;
unicode = 41;
},
{
glyphname = asterisk;
lastChange = "2026-05-11 07:30:42 +0000";
layers = (
{
layerId = m01;
shapes = (
{
closed = 1;
nodes = (
(712,788,l),
(712,1173,l),
(520,1173,l),
(520,788,l),
(151,992,l),
(66,834,l),
(436,641,l),
(66,446,l),
(151,289,l),
(520,495,l),
(520,111,l),
(712,111,l),
(712,495,l),
(1082,289,l),
(1167,446,l),
(799,641,l),
(1167,834,l),
(1082,992,l)
);
}
);
userData = {
assembly = "NPUSHB[ ]	/* 40 values pushed */
16 13 11 0 4 12 9 7 4 2 4 8 3 5 17 12 10 1 14 110 18 8 12 10 3 9 6 17 3 1 3 2 0 15 4 11 9 13 6 18
SRP0[ ]	/* SetRefPoint0 */
MDRP[10100]	/* MoveDirectRelPt */
ALIGNRP[ ]	/* AlignRelativePt */
MDRP[00100]	/* MoveDirectRelPt */
SHP[0]	/* ShiftPointByLastPoint */
MDRP[11100]	/* MoveDirectRelPt */
ALIGNRP[ ]	/* AlignRelativePt */
MDRP[00100]	/* MoveDirectRelPt */
SHP[0]	/* ShiftPointByLastPoint */
SLOOP[ ]	/* SetLoopVariable */
IP[ ]	/* InterpolatePts */
SRP1[ ]	/* SetRefPoint1 */
SRP2[ ]	/* SetRefPoint2 */
SLOOP[ ]	/* SetLoopVariable */
IP[ ]	/* InterpolatePts */
IUP[1]	/* InterpolateUntPts */
SVTCA[0]	/* SetFreedomAndProjectionVectorToAxis */
SRP0[ ]	/* SetRefPoint0 */
MIRP[10100]	/* MoveIndirectRelPt */
MDRP[10100]	/* MoveDirectRelPt */
ALIGNRP[ ]	/* AlignRelativePt */
MDRP[00100]	/* MoveDirectRelPt */
SHP[0]	/* ShiftPointByLastPoint */
MDRP[00100]	/* MoveDirectRelPt */
MDRP[00100]	/* MoveDirectRelPt */
SHP[0]	/* ShiftPointByLastPoint */
SLOOP[ ]	/* SetLoopVariable */
IP[ ]	/* InterpolatePts */
SRP2[ ]	/* SetRefPoint2 */
SLOOP[ ]	/* SetLoopVariable */
IP[ ]	/* InterpolatePts */
IUP[0]	/* InterpolateUntPts */";
};
width = 1233;
}
);
note = asterisk;
unicode = 42;
},
{
glyphname = plus;
lastChange = "2026-05-10 20:04:48 +0000";
layers = (
{
layerId = m01;
shapes = (
{
closed = 1;
nodes = (
(498,761,l),
(66,761,l),
(66,523,l),
(498,523,l),
(498,91,l),
(735,91,l),
(735,523,l),
(1167,523,l),
(1167,761,l),
(735,761,l),
(735,1193,l),
(498,1193,l)
);
}
);
userData = {
assembly = "NPUSHB[ ]	/* 16 values pushed */
0 9 1 118 5 7 3 12 2 4 0 9 8 10 6 12
SRP0[ ]	/* SetRefPoint0 */
MDRP[10100]	/* MoveDirectRelPt */
ALIGNRP[ ]	/* AlignRelativePt */
MDRP[00100]	/* MoveDirectRelPt */
MIRP[11100]	/* MoveIndirectRelPt */
ALIGNRP[ ]	/* AlignRelativePt */
MDRP[00100]	/* MoveDirectRelPt */
IUP[1]	/* InterpolateUntPts */
SVTCA[0]	/* SetFreedomAndProjectionVectorToAxis */
SRP0[ ]	/* SetRefPoint0 */
MDRP[10100]	/* MoveDirectRelPt */
ALIGNRP[ ]	/* AlignRelativePt */
MDRP[00100]	/* MoveDirectRelPt */
MIRP[11100]	/* MoveIndirectRelPt */
ALIGNRP[ ]	/* AlignRelativePt */
MDRP[00100]	/* MoveDirectRelPt */
IUP[0]	/* InterpolateUntPts */";
};
width = 1233;
}
);
note = plus;
unicode = 43;
},
{
glyphname = comma;
lastChange = "2026-05-11 08:12:57 +0000";
layers = (
{
layerId = m01;
shapes = (
{
closed = 1;
nodes = (
(371,-287,l),
(587,-287,l),
(783,96,l),
(783,367,l),
(470,367,l),
(470,96,l)
);
}
);
userData = {
assembly = "NPUSHB[ ]	/* 10 values pushed */
3 0 119 6 3 4 1 10 0 6
SRP0[ ]	/* SetRefPoint0 */
MDRP[10100]	/* MoveDirectRelPt */
MIRP[01100]	/* MoveIndirectRelPt */
MDRP[11100]	/* MoveDirectRelPt */
MDRP[00100]	/* MoveDirectRelPt */
IUP[1]	/* InterpolateUntPts */
SVTCA[0]	/* SetFreedomAndProjectionVectorToAxis */
SRP0[ ]	/* SetRefPoint0 */
MIRP[11100]	/* MoveIndirectRelPt */
MDRP[01100]	/* MoveDirectRelPt */
IUP[0]	/* InterpolateUntPts */";
};
width = 1233;
}
);
note = comma;
unicode = 44;
},
{
glyphname = hyphen;
lastChange = "2026-05-10 20:08:17 +0000";
layers = (
{
layerId = m01;
shapes = (
{
closed = 1;
nodes = (
(1167,523,l),
(1167,761,l),
(66,761,l),
(66,523,l)
);
}
);
userData = {
assembly = "PUSHB[ ]	/* 6 values pushed */
0 2 4 1 0 4
SRP0[ ]	/* SetRefPoint0 */
MDRP[10100]	/* MoveDirectRelPt */
MDRP[01100]	/* MoveDirectRelPt */
IUP[1]	/* InterpolateUntPts */
SVTCA[0]	/* SetFreedomAndProjectionVectorToAxis */
SRP0[ ]	/* SetRefPoint0 */
MDRP[10100]	/* MoveDirectRelPt */
MDRP[01100]	/* MoveDirectRelPt */
IUP[0]	/* InterpolateUntPts */";
};
width = 1233;
}
);
note = hyphen;
unicode = 45;
},
{
glyphname = period;
lastChange = "2026-05-11 08:06:45 +0000";
layers = (
{
layerId = m01;
shapes = (
{
closed = 1;
nodes = (
(783,0,l),
(783,365,l),
(450,365,l),
(450,0,l)
);
}
);
userData = {
assembly = "PUSHB[ ]	/* 7 values pushed */
0 119 2 1 10 0 4
SRP0[ ]	/* SetRefPoint0 */
MDRP[10100]	/* MoveDirectRelPt */
MIRP[01100]	/* MoveIndirectRelPt */
IUP[1]	/* InterpolateUntPts */
SVTCA[0]	/* SetFreedomAndProjectionVectorToAxis */
MDAP[1]	/* MoveDirectAbsPt */
MIRP[01100]	/* MoveIndirectRelPt */
IUP[0]	/* InterpolateUntPts */";
};
width = 1233;
}
);
note = period;
unicode = 46;
},
{
glyphname = slash;
layers = (
{
layerId = m01;
shapes = (
{
closed = 1;
nodes = (
(334,-190,l),
(1120,1493,l),
(899,1493,l),
(113,-190,l)
);
}
);
userData = {
assembly = "NPUSHB[ ]	/* 9 values pushed */
2 0 100 4 1 0 2 3 4
SRP0[ ]	/* SetRefPoint0 */
MDRP[10100]	/* MoveDirectRelPt */
MDRP[00100]	/* MoveDirectRelPt */
MDRP[10100]	/* MoveDirectRelPt */
MDRP[00100]	/* MoveDirectRelPt */
IUP[1]	/* InterpolateUntPts */
SVTCA[0]	/* SetFreedomAndProjectionVectorToAxis */
SRP0[ ]	/* SetRefPoint0 */
MIRP[10100]	/* MoveIndirectRelPt */
MDRP[01100]	/* MoveDirectRelPt */
IUP[0]	/* InterpolateUntPts */";
};
width = 1233;
}
);
note = slash;
unicode = 47;
},
{
glyphname = zero;
lastChange = "2026-05-13 07:45:00 +0000";
layers = (
{
guides = (
{
angle = 234.5555;
pos = (1586,891);
},
{
angle = 54.7067;
pos = (1640,621);
}
);
layerId = m01;
shapes = (
{
closed = 1;
nodes = (
(947,-29,o),
(1110,228,o),
(1110,745,cs),
(1110,1264,o),
(947,1520,o),
(616,1520,cs),
(287,1520,o),
(123,1262,o),
(123,745,cs),
(123,229,o),
(287,-29,o),
(616,-29,cs)
);
},
{
closed = 1;
nodes = (
(548,221,o),
(498,263,o),
(467,346,cs),
(466,349,o),
(464,354,o),
(463,357,c),
(811,848,l),
(812,817,o),
(813,781,o),
(813,745,cs),
(813,562,o),
(797,429,o),
(766,346,cs),
(735,263,o),
(685,221,o),
(616,221,cs)
);
},
{
closed = 1;
nodes = (
(421,674,o),
(420,709,o),
(420,745,cs),
(420,928,o),
(436,1062,o),
(467,1145,cs),
(498,1228,o),
(548,1270,o),
(616,1270,cs),
(685,1270,o),
(735,1228,o),
(766,1145,cs),
(767,1142,o),
(769,1137,o),
(770,1134,c),
(422,643,l)
);
}
);
width = 1233;
}
);
note = zero;
unicode = 48;
},
{
glyphname = one;
layers = (
{
layerId = m01;
shapes = (
{
closed = 1;
nodes = (
(1135,0,l),
(1135,260,l),
(805,260,l),
(805,1493,l),
(520,1493,l),
(211,1419,l),
(211,1153,l),
(518,1229,l),
(518,260,l),
(188,260,l),
(188,0,l)
);
}
);
userData = {
assembly = "NPUSHB[ ]	/* 18 values pushed */
3 120 4 2 120 5 100 7 0 120 9 8 6 14 3 0 1 11
SRP0[ ]	/* SetRefPoint0 */
MDRP[10100]	/* MoveDirectRelPt */
MDRP[00100]	/* MoveDirectRelPt */
MDRP[00100]	/* MoveDirectRelPt */
MIRP[11100]	/* MoveIndirectRelPt */
MDRP[00100]	/* MoveDirectRelPt */
IUP[1]	/* InterpolateUntPts */
SVTCA[0]	/* SetFreedomAndProjectionVectorToAxis */
MDAP[1]	/* MoveDirectAbsPt */
MIRP[01100]	/* MoveIndirectRelPt */
SHP[0]	/* ShiftPointByLastPoint */
MIRP[10100]	/* MoveIndirectRelPt */
MIRP[01100]	/* MoveIndirectRelPt */
MDRP[10100]	/* MoveDirectRelPt */
MIRP[01100]	/* MoveIndirectRelPt */
IUP[0]	/* InterpolateUntPts */";
};
width = 1233;
}
);
note = one;
unicode = 49;
},
{
glyphname = two;
layers = (
{
layerId = m01;
shapes = (
{
closed = 1;
nodes = (
(639,466,qs),
(877,704,o),
(930,772,qs),
(1002,866,o),
(1061,1020,o),
(1061,1108,qs),
(1061,1299,o),
(790,1520,o),
(553,1520,qs),
(459,1520,o),
(254,1479,o),
(147,1440,q),
(147,1165,l),
(254,1225,o),
(451,1288,o),
(530,1288,qs),
(641,1288,o),
(762,1179,o),
(762,1079,qs),
(762,1014,o),
(696,881,o),
(621,795,qs),
(560,725,o),
(275,422,qs),
(115,252,l),
(115,0,l),
(1063,0,l),
(1063,260,l),
(434,260,l),
(510,337,o)
);
}
);
userData = {
assembly = "NPUSHB[ ]	/* 47 values pushed */
0 5 4 24 25 26 27 28 5 23 29 5 5 4 37 5 13 4 4 2 0 16 122 17 121 13 120 20 110 0 120 2 5 3 0 16 10 2 1 10 15 23 13 16 3 12 30
SRP0[ ]	/* SetRefPoint0 */
MIRP[11100]	/* MoveIndirectRelPt */
MDRP[00100]	/* MoveDirectRelPt */
MIRP[11100]	/* MoveIndirectRelPt */
MIRP[01100]	/* MoveIndirectRelPt */
MDRP[00000]	/* MoveDirectRelPt */
MDRP[00000]	/* MoveDirectRelPt */
SRP1[ ]	/* SetRefPoint1 */
SRP2[ ]	/* SetRefPoint2 */
IP[ ]	/* InterpolatePts */
SRP2[ ]	/* SetRefPoint2 */
IP[ ]	/* InterpolatePts */
IUP[1]	/* InterpolateUntPts */
SVTCA[0]	/* SetFreedomAndProjectionVectorToAxis */
MDAP[1]	/* MoveDirectAbsPt */
MIRP[01100]	/* MoveIndirectRelPt */
MIRP[10100]	/* MoveIndirectRelPt */
MIRP[01100]	/* MoveIndirectRelPt */
MIRP[10100]	/* MoveIndirectRelPt */
MIRP[01100]	/* MoveIndirectRelPt */
SRP1[ ]	/* SetRefPoint1 */
SRP2[ ]	/* SetRefPoint2 */
IP[ ]	/* InterpolatePts */
SRP1[ ]	/* SetRefPoint1 */
SRP2[ ]	/* SetRefPoint2 */
IP[ ]	/* InterpolatePts */
IUP[0]	/* InterpolateUntPts */
MPPEM[ ]	/* MeasurePixelPerEm */
GTEQ[ ]	/* GreaterThanOrEqual */
IF[ ]	/* If */
SPVTL[1]	/* SetPVectorToLine */
SRP0[ ]	/* SetRefPoint0 */
SFVTCA[1]	/* SetFVectorToAxis */
MDRP[01001]	/* MoveDirectRelPt */
SRP1[ ]	/* SetRefPoint1 */
SLOOP[ ]	/* SetLoopVariable */
IP[ ]	/* InterpolatePts */
SPVTL[1]	/* SetPVectorToLine */
SFVTCA[1]	/* SetFVectorToAxis */
MDRP[01001]	/* MoveDirectRelPt */
EIF[ ]	/* EndIf */
CLEAR[ ]	/* ClearStack */";
};
width = 1233;
}
);
note = two;
unicode = 50;
},
{
glyphname = three;
layers = (
{
layerId = m01;
shapes = (
{
closed = 1;
nodes = (
(817,543,o),
(817,428,qs),
(817,334,o),
(677,223,o),
(557,223,qs),
(437,223,o),
(219,272,o),
(125,319,q),
(125,45,l),
(225,9,o),
(444,-29,o),
(557,-29,qs),
(822,-29,o),
(1100,199,o),
(1100,416,qs),
(1100,578,o),
(932,777,o),
(772,805,q),
(913,831,o),
(1065,1000,o),
(1065,1133,qs),
(1065,1314,o),
(801,1520,o),
(565,1520,qs),
(473,1520,o),
(273,1487,o),
(170,1456,q),
(170,1188,l),
(273,1228,o),
(465,1270,o),
(549,1270,qs),
(659,1270,o),
(780,1177,o),
(780,1094,qs),
(780,1015,o),
(659,928,o),
(549,928,qs),
(391,928,l),
(391,668,l),
(549,668,ls),
(677,668,o)
);
}
);
userData = {
assembly = "NPUSHB[ ]	/* 41 values pushed */
22 0 112 2 32 122 31 121 35 112 28 12 122 13 121 9 112 16 110 28 114 2 41 22 9 3 0 4 1 6 17 19 38 17 25 13 12 1 31 12 41
SRP0[ ]	/* SetRefPoint0 */
MIRP[11100]	/* MoveIndirectRelPt */
MDRP[00100]	/* MoveDirectRelPt */
MDRP[00100]	/* MoveDirectRelPt */
MIRP[11100]	/* MoveIndirectRelPt */
MIRP[01100]	/* MoveIndirectRelPt */
MDRP[10100]	/* MoveDirectRelPt */
MIRP[01100]	/* MoveIndirectRelPt */
SRP1[ ]	/* SetRefPoint1 */
SLOOP[ ]	/* SetLoopVariable */
IP[ ]	/* InterpolatePts */
IUP[1]	/* InterpolateUntPts */
SVTCA[0]	/* SetFreedomAndProjectionVectorToAxis */
SRP0[ ]	/* SetRefPoint0 */
MDRP[00100]	/* MoveDirectRelPt */
MIRP[00100]	/* MoveIndirectRelPt */
MIRP[10100]	/* MoveIndirectRelPt */
MIRP[01100]	/* MoveIndirectRelPt */
MIRP[10100]	/* MoveIndirectRelPt */
MIRP[01100]	/* MoveIndirectRelPt */
SRP0[ ]	/* SetRefPoint0 */
MIRP[01110]	/* MoveIndirectRelPt */
MIRP[10110]	/* MoveIndirectRelPt */
MIRP[01110]	/* MoveIndirectRelPt */
SRP0[ ]	/* SetRefPoint0 */
MIRP[01110]	/* MoveIndirectRelPt */
IP[ ]	/* InterpolatePts */
IUP[0]	/* InterpolateUntPts */";
};
width = 1233;
}
);
note = three;
unicode = 51;
},
{
glyphname = four;
layers = (
{
layerId = m01;
shapes = (
{
closed = 1;
nodes = (
(317,575,l),
(694,1165,l),
(694,575,l)
);
},
{
closed = 1;
nodes = (
(102,322,l),
(694,322,l),
(694,0,l),
(977,0,l),
(977,322,l),
(1141,322,l),
(1141,575,l),
(977,575,l),
(977,1493,l),
(668,1493,l),
(102,608,l)
);
}
);
userData = {
assembly = "NPUSHB[ ]	/* 31 values pushed */
1 13 3 13 0 3 3 13 37 0 3 11 7 120 5 1 3 100 9 1 12 10 0 14 8 4 6 13 12 12 14
SRP0[ ]	/* SetRefPoint0 */
MIRP[11100]	/* MoveIndirectRelPt */
MIRP[11100]	/* MoveIndirectRelPt */
MDRP[10100]	/* MoveDirectRelPt */
ALIGNRP[ ]	/* AlignRelativePt */
MIRP[01100]	/* MoveIndirectRelPt */
SHP[0]	/* ShiftPointByLastPoint */
SRP1[ ]	/* SetRefPoint1 */
IP[ ]	/* InterpolatePts */
IUP[1]	/* InterpolateUntPts */
SVTCA[0]	/* SetFreedomAndProjectionVectorToAxis */
MDAP[1]	/* MoveDirectAbsPt */
MIRP[00100]	/* MoveIndirectRelPt */
MDRP[10100]	/* MoveDirectRelPt */
ALIGNRP[ ]	/* AlignRelativePt */
MIRP[01100]	/* MoveIndirectRelPt */
SHP[0]	/* ShiftPointByLastPoint */
SRP2[ ]	/* SetRefPoint2 */
IP[ ]	/* InterpolatePts */
IUP[0]	/* InterpolateUntPts */
MPPEM[ ]	/* MeasurePixelPerEm */
GTEQ[ ]	/* GreaterThanOrEqual */
IF[ ]	/* If */
SPVTL[1]	/* SetPVectorToLine */
SRP0[ ]	/* SetRefPoint0 */
SFVTCA[0]	/* SetFVectorToAxis */
MDRP[01001]	/* MoveDirectRelPt */
SPVTL[1]	/* SetPVectorToLine */
SRP0[ ]	/* SetRefPoint0 */
SFVTCA[1]	/* SetFVectorToAxis */
MDRP[01001]	/* MoveDirectRelPt */
EIF[ ]	/* EndIf */
CLEAR[ ]	/* ClearStack */";
};
width = 1233;
}
);
note = four;
unicode = 52;
},
{
glyphname = five;
layers = (
{
layerId = m01;
shapes = (
{
closed = 1;
nodes = (
(274,698,o),
(433,737,o),
(512,737,qs),
(646,737,o),
(807,596,o),
(807,479,qs),
(807,352,o),
(645,219,o),
(489,219,qs),
(401,219,o),
(226,260,o),
(143,301,q),
(143,35,l),
(245,3,o),
(441,-29,o),
(537,-29,qs),
(795,-29,o),
(1094,244,o),
(1094,479,qs),
(1094,703,o),
(818,983,o),
(596,983,qs),
(550,983,o),
(468,970,o),
(432,956,q),
(432,1233,l),
(1004,1233,l),
(1004,1493,l),
(193,1493,l),
(193,659,l)
);
}
);
userData = {
assembly = "NPUSHB[ ]	/* 33 values pushed */
4 7 29 26 120 7 17 122 16 121 20 120 13 2 120 0 100 13 114 7 30 3 1 0 1 23 17 10 13 0 16 12 30
SRP0[ ]	/* SetRefPoint0 */
MIRP[11100]	/* MoveIndirectRelPt */
MDRP[00100]	/* MoveDirectRelPt */
MIRP[11100]	/* MoveIndirectRelPt */
MIRP[01100]	/* MoveIndirectRelPt */
MDRP[00100]	/* MoveDirectRelPt */
SRP0[ ]	/* SetRefPoint0 */
MIRP[01110]	/* MoveIndirectRelPt */
IUP[1]	/* InterpolateUntPts */
SVTCA[0]	/* SetFreedomAndProjectionVectorToAxis */
SRP0[ ]	/* SetRefPoint0 */
MDRP[00100]	/* MoveDirectRelPt */
MIRP[00100]	/* MoveIndirectRelPt */
MIRP[10100]	/* MoveIndirectRelPt */
MIRP[01100]	/* MoveIndirectRelPt */
SRP0[ ]	/* SetRefPoint0 */
MIRP[01110]	/* MoveIndirectRelPt */
MIRP[10110]	/* MoveIndirectRelPt */
MIRP[01110]	/* MoveIndirectRelPt */
SRP0[ ]	/* SetRefPoint0 */
MIRP[11110]	/* MoveIndirectRelPt */
MDRP[00100]	/* MoveDirectRelPt */
SRP2[ ]	/* SetRefPoint2 */
IP[ ]	/* InterpolatePts */
IUP[0]	/* InterpolateUntPts */";
};
width = 1233;
}
);
note = five;
unicode = 53;
},
{
glyphname = six;
layers = (
{
layerId = m01;
shapes = (
{
closed = 1;
nodes = (
(842,608,o),
(842,477,qs),
(842,346,o),
(739,207,o),
(643,207,qs),
(547,207,o),
(446,346,o),
(446,477,qs),
(446,609,o),
(547,748,o),
(643,748,qs),
(739,748,o)
);
},
{
closed = 1;
nodes = (
(805,1518,o),
(735,1518,qs),
(433,1518,o),
(131,1131,o),
(131,743,qs),
(131,335,o),
(378,-31,o),
(651,-31,qs),
(875,-31,o),
(1122,245,o),
(1122,496,qs),
(1122,730,o),
(902,985,o),
(700,985,qs),
(601,985,o),
(455,920,o),
(408,855,q),
(412,1065,o),
(579,1280,o),
(739,1280,qs),
(806,1280,o),
(951,1235,o),
(1030,1190,q),
(1030,1458,l),
(954,1488,o)
);
}
);
userData = {
assembly = "NPUSHB[ ]	/* 30 values pushed */
19 0 123 22 6 123 28 13 122 12 121 16 123 34 110 28 114 37 12 9 17 25 13 19 17 3 16 31 12 37
SRP0[ ]	/* SetRefPoint0 */
MIRP[11100]	/* MoveIndirectRelPt */
MIRP[01100]	/* MoveIndirectRelPt */
MIRP[01100]	/* MoveIndirectRelPt */
MIRP[11100]	/* MoveIndirectRelPt */
MIRP[01100]	/* MoveIndirectRelPt */
MDRP[00100]	/* MoveDirectRelPt */
IUP[1]	/* InterpolateUntPts */
SVTCA[0]	/* SetFreedomAndProjectionVectorToAxis */
SRP0[ ]	/* SetRefPoint0 */
MIRP[00100]	/* MoveIndirectRelPt */
MIRP[10100]	/* MoveIndirectRelPt */
MIRP[01100]	/* MoveIndirectRelPt */
MIRP[10100]	/* MoveIndirectRelPt */
MIRP[01100]	/* MoveIndirectRelPt */
SRP0[ ]	/* SetRefPoint0 */
MIRP[01110]	/* MoveIndirectRelPt */
MDRP[10110]	/* MoveDirectRelPt */
MIRP[01110]	/* MoveIndirectRelPt */
IP[ ]	/* InterpolatePts */
IUP[0]	/* InterpolateUntPts */";
};
width = 1233;
}
);
note = six;
unicode = 54;
},
{
glyphname = seven;
layers = (
{
layerId = m01;
shapes = (
{
closed = 1;
nodes = (
(758,1233,l),
(272,0,l),
(573,0,l),
(1079,1284,l),
(1079,1493,l),
(135,1493,l),
(135,1233,l)
);
}
);
userData = {
assembly = "NPUSHB[ ]	/* 25 values pushed */
5 18 2 3 2 3 18 4 5 4 37 5 120 0 100 3 5 3 1 4 1 13 0 12 7
SRP0[ ]	/* SetRefPoint0 */
MIRP[11100]	/* MoveIndirectRelPt */
MIRP[01100]	/* MoveIndirectRelPt */
MDRP[00100]	/* MoveDirectRelPt */
SRP1[ ]	/* SetRefPoint1 */
IP[ ]	/* InterpolatePts */
IP[ ]	/* InterpolatePts */
IUP[1]	/* InterpolateUntPts */
SVTCA[0]	/* SetFreedomAndProjectionVectorToAxis */
MDAP[1]	/* MoveDirectAbsPt */
MIRP[10100]	/* MoveIndirectRelPt */
MIRP[01100]	/* MoveIndirectRelPt */
IUP[0]	/* InterpolateUntPts */
MPPEM[ ]	/* MeasurePixelPerEm */
GTEQ[ ]	/* GreaterThanOrEqual */
IF[ ]	/* If */
SPVTL[1]	/* SetPVectorToLine */
SRP0[ ]	/* SetRefPoint0 */
SFVTCA[1]	/* SetFVectorToAxis */
MIRP[01101]	/* MoveIndirectRelPt */
SPVTL[1]	/* SetPVectorToLine */
SRP0[ ]	/* SetRefPoint0 */
SFVTCA[1]	/* SetFVectorToAxis */
MIRP[01101]	/* MoveIndirectRelPt */
EIF[ ]	/* EndIf */
CLEAR[ ]	/* ClearStack */";
};
width = 1233;
}
);
note = seven;
unicode = 55;
},
{
glyphname = eight;
layers = (
{
layerId = m01;
shapes = (
{
closed = 1;
nodes = (
(838,541,o),
(838,438,qs),
(838,337,o),
(715,209,o),
(616,209,qs),
(517,209,o),
(395,335,o),
(395,438,qs),
(395,541,o),
(517,666,o),
(616,666,qs),
(716,666,o)
);
},
{
closed = 1;
nodes = (
(129,558,o),
(129,420,qs),
(129,205,o),
(383,-29,o),
(616,-29,qs),
(850,-29,o),
(1104,205,o),
(1104,420,qs),
(1104,557,o),
(964,753,o),
(840,791,q),
(951,831,o),
(1067,998,o),
(1067,1118,qs),
(1067,1304,o),
(825,1520,o),
(616,1520,qs),
(408,1520,o),
(166,1304,o),
(166,1118,qs),
(166,997,o),
(284,830,o),
(397,791,q),
(271,754,o)
);
},
{
closed = 1;
nodes = (
(530,1282,o),
(616,1282,qs),
(704,1282,o),
(805,1181,o),
(805,1094,qs),
(805,1006,o),
(704,903,o),
(616,903,qs),
(529,903,o),
(428,1006,o),
(428,1094,qs),
(428,1180,o)
);
}
);
userData = {
assembly = "NPUSHB[ ]	/* 37 values pushed */
24 12 0 123 39 6 123 30 45 123 18 110 30 114 39 48 24 21 9 12 3 36 19 15 42 19 21 9 19 27 13 3 19 15 33 12 48
SRP0[ ]	/* SetRefPoint0 */
MIRP[11100]	/* MoveIndirectRelPt */
MDRP[00100]	/* MoveDirectRelPt */
MIRP[01100]	/* MoveIndirectRelPt */
MIRP[11100]	/* MoveIndirectRelPt */
MIRP[01100]	/* MoveIndirectRelPt */
MDRP[10100]	/* MoveDirectRelPt */
MIRP[01100]	/* MoveIndirectRelPt */
SRP0[ ]	/* SetRefPoint0 */
MIRP[01110]	/* MoveIndirectRelPt */
SRP1[ ]	/* SetRefPoint1 */
IP[ ]	/* InterpolatePts */
SRP1[ ]	/* SetRefPoint1 */
SRP2[ ]	/* SetRefPoint2 */
IP[ ]	/* InterpolatePts */
IUP[1]	/* InterpolateUntPts */
SVTCA[0]	/* SetFreedomAndProjectionVectorToAxis */
SRP0[ ]	/* SetRefPoint0 */
MDRP[00100]	/* MoveDirectRelPt */
MIRP[00100]	/* MoveIndirectRelPt */
MIRP[10100]	/* MoveIndirectRelPt */
MIRP[01100]	/* MoveIndirectRelPt */
SRP0[ ]	/* SetRefPoint0 */
MIRP[01110]	/* MoveIndirectRelPt */
SRP0[ ]	/* SetRefPoint0 */
MIRP[01110]	/* MoveIndirectRelPt */
IP[ ]	/* InterpolatePts */
IP[ ]	/* InterpolatePts */
IUP[0]	/* InterpolateUntPts */";
};
width = 1233;
}
);
note = eight;
unicode = 56;
},
{
glyphname = nine;
layers = (
{
layerId = m01;
shapes = (
{
closed = 1;
nodes = (
(428,-39,o),
(498,-39,qs),
(800,-39,o),
(1102,348,o),
(1102,735,qs),
(1102,1142,o),
(855,1507,o),
(582,1507,qs),
(357,1507,o),
(111,1233,o),
(111,983,qs),
(111,749,o),
(331,494,o),
(532,494,qs),
(632,494,o),
(778,559,o),
(825,624,q),
(820,412,o),
(653,199,o),
(494,199,qs),
(427,199,o),
(282,243,o),
(203,289,q),
(203,20,l),
(279,-9,o)
);
},
{
closed = 1;
nodes = (
(391,881,o),
(391,1012,qs),
(391,1143,o),
(494,1282,o),
(590,1282,qs),
(685,1282,o),
(786,1143,o),
(786,1012,qs),
(786,880,o),
(685,741,o),
(590,741,qs),
(494,741,o)
);
}
);
userData = {
assembly = "NPUSHB[ ]	/* 31 values pushed */
7 25 123 10 1 122 0 121 4 123 22 10 31 123 16 110 22 114 37 7 17 28 16 19 13 0 34 17 13 12 37
SRP0[ ]	/* SetRefPoint0 */
MIRP[11100]	/* MoveIndirectRelPt */
MIRP[01100]	/* MoveIndirectRelPt */
MDRP[00100]	/* MoveDirectRelPt */
MIRP[11100]	/* MoveIndirectRelPt */
MIRP[01100]	/* MoveIndirectRelPt */
MIRP[01100]	/* MoveIndirectRelPt */
IUP[1]	/* InterpolateUntPts */
SVTCA[0]	/* SetFreedomAndProjectionVectorToAxis */
SRP0[ ]	/* SetRefPoint0 */
MIRP[00100]	/* MoveIndirectRelPt */
MIRP[10100]	/* MoveIndirectRelPt */
MIRP[01100]	/* MoveIndirectRelPt */
MDRP[00100]	/* MoveDirectRelPt */
SRP0[ ]	/* SetRefPoint0 */
MIRP[01110]	/* MoveIndirectRelPt */
MIRP[10110]	/* MoveIndirectRelPt */
MIRP[01110]	/* MoveIndirectRelPt */
SRP0[ ]	/* SetRefPoint0 */
MIRP[01110]	/* MoveIndirectRelPt */
IP[ ]	/* InterpolatePts */
IUP[0]	/* InterpolateUntPts */";
};
width = 1233;
}
);
note = nine;
unicode = 57;
},
{
glyphname = colon;
lastChange = "2026-05-11 08:03:33 +0000";
layers = (
{
layerId = m01;
shapes = (
{
closed = 1;
nodes = (
(783,698,l),
(783,1063,l),
(450,1063,l),
(450,698,l)
);
},
{
closed = 1;
nodes = (
(783,0,l),
(783,365,l),
(450,365,l),
(450,0,l)
);
}
);
userData = {
assembly = "NPUSHB[ ]	/* 12 values pushed */
2 119 0 4 119 6 5 1 10 4 0 8
SRP0[ ]	/* SetRefPoint0 */
MDRP[10100]	/* MoveDirectRelPt */
ALIGNRP[ ]	/* AlignRelativePt */
MIRP[01100]	/* MoveIndirectRelPt */
SHP[0]	/* ShiftPointByLastPoint */
IUP[1]	/* InterpolateUntPts */
SVTCA[0]	/* SetFreedomAndProjectionVectorToAxis */
MDAP[1]	/* MoveDirectAbsPt */
MIRP[01100]	/* MoveIndirectRelPt */
MDRP[10100]	/* MoveDirectRelPt */
MIRP[01100]	/* MoveIndirectRelPt */
IUP[0]	/* InterpolateUntPts */";
};
width = 1233;
}
);
note = colon;
unicode = 58;
},
{
glyphname = semicolon;
lastChange = "2026-05-11 08:04:07 +0000";
layers = (
{
layerId = m01;
shapes = (
{
closed = 1;
nodes = (
(372,-287,l),
(587,-287,l),
(783,96,l),
(783,367,l),
(450,367,l),
(450,96,l)
);
},
{
closed = 1;
nodes = (
(783,698,l),
(783,1063,l),
(450,1063,l),
(450,698,l)
);
}
);
userData = {
assembly = "NPUSHB[ ]	/* 16 values pushed */
8 119 6 3 0 119 6 10 3 4 7 1 10 6 0 10
SRP0[ ]	/* SetRefPoint0 */
MDRP[10100]	/* MoveDirectRelPt */
ALIGNRP[ ]	/* AlignRelativePt */
MIRP[01100]	/* MoveIndirectRelPt */
SHP[0]	/* ShiftPointByLastPoint */
MDRP[11100]	/* MoveDirectRelPt */
MDRP[00100]	/* MoveDirectRelPt */
IUP[1]	/* InterpolateUntPts */
SVTCA[0]	/* SetFreedomAndProjectionVectorToAxis */
SRP0[ ]	/* SetRefPoint0 */
MDRP[00100]	/* MoveDirectRelPt */
MIRP[11100]	/* MoveIndirectRelPt */
MDRP[01100]	/* MoveDirectRelPt */
SRP0[ ]	/* SetRefPoint0 */
MIRP[01110]	/* MoveIndirectRelPt */
IUP[0]	/* InterpolateUntPts */";
};
width = 1233;
}
);
note = semicolon;
unicode = 59;
},
{
glyphname = less;
layers = (
{
layerId = m01;
shapes = (
{
closed = 1;
nodes = (
(88,760,l),
(88,524,l),
(1145,109,l),
(1145,358,l),
(350,641,l),
(1145,926,l),
(1145,1176,l)
);
}
);
userData = {
assembly = "NPUSHB[ ]	/* 16 values pushed */
5 4 2 1 0 5 3 6 7 1 2 0 21 4 20 7
SRP0[ ]	/* SetRefPoint0 */
MIRP[11100]	/* MoveIndirectRelPt */
MIRP[01100]	/* MoveIndirectRelPt */
SHP[0]	/* ShiftPointByLastPoint */
IP[ ]	/* InterpolatePts */
IUP[1]	/* InterpolateUntPts */
SVTCA[0]	/* SetFreedomAndProjectionVectorToAxis */
SRP0[ ]	/* SetRefPoint0 */
MDRP[10100]	/* MoveDirectRelPt */
MDRP[01100]	/* MoveDirectRelPt */
SLOOP[ ]	/* SetLoopVariable */
IP[ ]	/* InterpolatePts */
IUP[0]	/* InterpolateUntPts */";
};
width = 1233;
}
);
note = less;
unicode = 60;
},
{
glyphname = equal;
lastChange = "2026-05-10 20:13:08 +0000";
layers = (
{
layerId = m01;
shapes = (
{
closed = 1;
nodes = (
(1167,296,l),
(1167,533,l),
(66,533,l),
(66,296,l)
);
},
{
closed = 1;
nodes = (
(1167,754,l),
(1167,989,l),
(66,989,l),
(66,754,l)
);
}
);
userData = {
assembly = "NPUSHB[ ]	/* 14 values pushed */
4 118 6 2 118 0 8 5 1 21 4 0 20 8
SRP0[ ]	/* SetRefPoint0 */
MIRP[11100]	/* MoveIndirectRelPt */
ALIGNRP[ ]	/* AlignRelativePt */
MIRP[01100]	/* MoveIndirectRelPt */
SHP[0]	/* ShiftPointByLastPoint */
IUP[1]	/* InterpolateUntPts */
SVTCA[0]	/* SetFreedomAndProjectionVectorToAxis */
SRP0[ ]	/* SetRefPoint0 */
MDRP[10100]	/* MoveDirectRelPt */
MIRP[01100]	/* MoveIndirectRelPt */
MDRP[10100]	/* MoveDirectRelPt */
MIRP[01100]	/* MoveIndirectRelPt */
IUP[0]	/* InterpolateUntPts */";
};
width = 1233;
}
);
note = equal;
unicode = 61;
},
{
glyphname = greater;
layers = (
{
layerId = m01;
shapes = (
{
closed = 1;
nodes = (
(88,358,l),
(88,109,l),
(1145,524,l),
(1145,760,l),
(88,1176,l),
(88,926,l),
(883,641,l)
);
}
);
userData = {
assembly = "NPUSHB[ ]	/* 16 values pushed */
6 5 3 2 0 5 4 1 7 6 2 21 4 0 20 7
SRP0[ ]	/* SetRefPoint0 */
MIRP[11100]	/* MoveIndirectRelPt */
ALIGNRP[ ]	/* AlignRelativePt */
MIRP[01100]	/* MoveIndirectRelPt */
IP[ ]	/* InterpolatePts */
IUP[1]	/* InterpolateUntPts */
SVTCA[0]	/* SetFreedomAndProjectionVectorToAxis */
SRP0[ ]	/* SetRefPoint0 */
MDRP[10100]	/* MoveDirectRelPt */
MDRP[01100]	/* MoveDirectRelPt */
SLOOP[ ]	/* SetLoopVariable */
IP[ ]	/* InterpolatePts */
IUP[0]	/* InterpolateUntPts */";
};
width = 1233;
}
);
note = greater;
unicode = 62;
},
{
glyphname = question;
layers = (
{
layerId = m01;
shapes = (
{
closed = 1;
nodes = (
(707,0,l),
(707,283,l),
(440,283,l),
(440,0,l)
);
},
{
closed = 1;
nodes = (
(708,538,o),
(709,562,o),
(709,571,qs),
(709,632,o),
(747,716,o),
(815,782,qs),
(903,868,ls),
(997,960,o),
(1065,1091,o),
(1065,1167,qs),
(1065,1332,o),
(835,1520,o),
(633,1520,qs),
(532,1520,o),
(331,1463,o),
(233,1407,q),
(233,1139,l),
(329,1209,o),
(512,1280,o),
(596,1280,qs),
(688,1280,o),
(780,1212,o),
(780,1145,qs),
(780,1102,o),
(735,1022,o),
(672,961,qs),
(582,872,ls),
(502,794,o),
(440,654,o),
(440,555,qs),
(440,401,l),
(707,401,l),
(707,524,ls)
);
}
);
userData = {
assembly = "NPUSHB[ ]	/* 56 values pushed */
11 1 12 10 30 29 8 1 7 9 30 30 29 37 36 30 9 6 4 10 29 19 4 0 19 102 20 16 104 23 110 0 2 29 26 13 9 1 0 30 26 33 13 10 1 0 13 22 26 19 4 1 1 5 0 37
SRP0[ ]	/* SetRefPoint0 */
MDRP[10100]	/* MoveDirectRelPt */
ALIGNRP[ ]	/* AlignRelativePt */
MIRP[01100]	/* MoveIndirectRelPt */
SHP[0]	/* ShiftPointByLastPoint */
MDRP[10100]	/* MoveDirectRelPt */
MDRP[10100]	/* MoveDirectRelPt */
MIRP[01100]	/* MoveIndirectRelPt */
SRP1[ ]	/* SetRefPoint1 */
SRP2[ ]	/* SetRefPoint2 */
IP[ ]	/* InterpolatePts */
SRP1[ ]	/* SetRefPoint1 */
IP[ ]	/* InterpolatePts */
SRP2[ ]	/* SetRefPoint2 */
IP[ ]	/* InterpolatePts */
SRP1[ ]	/* SetRefPoint1 */
SRP2[ ]	/* SetRefPoint2 */
IP[ ]	/* InterpolatePts */
SRP1[ ]	/* SetRefPoint1 */
SRP2[ ]	/* SetRefPoint2 */
IP[ ]	/* InterpolatePts */
IUP[1]	/* InterpolateUntPts */
SVTCA[0]	/* SetFreedomAndProjectionVectorToAxis */
MDAP[1]	/* MoveDirectAbsPt */
MDRP[01100]	/* MoveDirectRelPt */
MIRP[10100]	/* MoveIndirectRelPt */
MIRP[01100]	/* MoveIndirectRelPt */
MDRP[10100]	/* MoveDirectRelPt */
MIRP[01100]	/* MoveIndirectRelPt */
SRP0[ ]	/* SetRefPoint0 */
MDRP[00101]	/* MoveDirectRelPt */
SRP1[ ]	/* SetRefPoint1 */
IP[ ]	/* InterpolatePts */
IP[ ]	/* InterpolatePts */
SLOOP[ ]	/* SetLoopVariable */
IP[ ]	/* InterpolatePts */
IUP[0]	/* InterpolateUntPts */
MPPEM[ ]	/* MeasurePixelPerEm */
GTEQ[ ]	/* GreaterThanOrEqual */
IF[ ]	/* If */
SPVTL[1]	/* SetPVectorToLine */
SRP0[ ]	/* SetRefPoint0 */
SFVTPV[ ]	/* SetFVectorToPVector */
MDRP[01001]	/* MoveDirectRelPt */
SRP1[ ]	/* SetRefPoint1 */
SLOOP[ ]	/* SetLoopVariable */
IP[ ]	/* InterpolatePts */
SPVTL[1]	/* SetPVectorToLine */
SFVTPV[ ]	/* SetFVectorToPVector */
MDRP[01001]	/* MoveDirectRelPt */
SRP1[ ]	/* SetRefPoint1 */
SLOOP[ ]	/* SetLoopVariable */
IP[ ]	/* InterpolatePts */
EIF[ ]	/* EndIf */
CLEAR[ ]	/* ClearStack */";
};
width = 1233;
}
);
note = question;
unicode = 63;
},
{
glyphname = at;
layers = (
{
layerId = m01;
shapes = (
{
closed = 1;
nodes = (
(871,303,o),
(782,303,qs),
(693,303,o),
(592,431,o),
(592,545,qs),
(592,658,o),
(693,786,o),
(782,786,qs),
(871,786,o),
(973,658,o),
(973,545,qs),
(973,431,o)
);
},
{
closed = 1;
nodes = (
(1159,1132,o),
(906,1395,o),
(688,1395,qs),
(380,1395,o),
(6,930,o),
(6,543,qs),
(6,147,o),
(422,-319,o),
(772,-319,qs),
(881,-319,o),
(1072,-264,o),
(1153,-209,q),
(1061,-33,l),
(992,-80,o),
(842,-127,o),
(762,-127,qs),
(509,-127,o),
(205,236,o),
(205,543,qs),
(205,836,o),
(468,1202,o),
(676,1202,qs),
(814,1202,o),
(963,1054,o),
(963,918,qs),
(963,877,l),
(929,924,o),
(821,973,o),
(750,973,qs),
(585,973,o),
(385,738,o),
(385,545,qs),
(385,351,o),
(586,115,o),
(750,115,qs),
(822,115,o),
(925,164,o),
(963,217,q),
(963,135,l),
(1159,135,l),
(1159,905,ls)
);
}
);
userData = {
assembly = "NPUSHB[ ]	/* 49 values pushed */
40 43 36 26 23 3 14 12 9 27 52 3 124 23 9 124 12 17 125 39 36 124 43 23 125 30 124 43 49 53 39 40 12 0 6 23 20 0 23 26 13 23 12 20 33 23 12 46 53
SRP0[ ]	/* SetRefPoint0 */
MDRP[10100]	/* MoveDirectRelPt */
MDRP[00100]	/* MoveDirectRelPt */
MIRP[11100]	/* MoveIndirectRelPt */
MDRP[00100]	/* MoveDirectRelPt */
SRP0[ ]	/* SetRefPoint0 */
MIRP[01110]	/* MoveIndirectRelPt */
SHP[0]	/* ShiftPointByLastPoint */
MIRP[01110]	/* MoveIndirectRelPt */
SRP0[ ]	/* SetRefPoint0 */
MIRP[01110]	/* MoveIndirectRelPt */
SRP1[ ]	/* SetRefPoint1 */
SRP2[ ]	/* SetRefPoint2 */
IP[ ]	/* InterpolatePts */
IP[ ]	/* InterpolatePts */
IUP[1]	/* InterpolateUntPts */
SVTCA[0]	/* SetFreedomAndProjectionVectorToAxis */
SRP0[ ]	/* SetRefPoint0 */
MDRP[10100]	/* MoveDirectRelPt */
MDRP[00100]	/* MoveDirectRelPt */
MIRP[11100]	/* MoveIndirectRelPt */
MIRP[01100]	/* MoveIndirectRelPt */
SRP0[ ]	/* SetRefPoint0 */
MIRP[11110]	/* MoveIndirectRelPt */
MDRP[00100]	/* MoveDirectRelPt */
MIRP[11101]	/* MoveIndirectRelPt */
MDRP[00100]	/* MoveDirectRelPt */
MIRP[01110]	/* MoveIndirectRelPt */
SRP0[ ]	/* SetRefPoint0 */
MIRP[01110]	/* MoveIndirectRelPt */
IP[ ]	/* InterpolatePts */
IP[ ]	/* InterpolatePts */
SRP1[ ]	/* SetRefPoint1 */
SRP2[ ]	/* SetRefPoint2 */
IP[ ]	/* InterpolatePts */
SRP1[ ]	/* SetRefPoint1 */
SRP2[ ]	/* SetRefPoint2 */
IP[ ]	/* InterpolatePts */
SRP1[ ]	/* SetRefPoint1 */
SRP2[ ]	/* SetRefPoint2 */
IP[ ]	/* InterpolatePts */
IUP[0]	/* InterpolateUntPts */";
};
width = 1233;
}
);
note = at;
unicode = 64;
},
{
glyphname = A;
layers = (
{
anchors = (
{
name = topright;
pos = (616,1493);
}
);
layerId = m01;
shapes = (
{
closed = 1;
nodes = (
(477,612,l),
(616,1223,l),
(756,612,l)
);
},
{
closed = 1;
nodes = (
(328,0,l),
(418,369,l),
(813,369,l),
(905,0,l),
(1200,0,l),
(797,1493,l),
(436,1493,l),
(33,0,l)
);
}
);
userData = {
assembly = "NPUSHB[ ]	/* 59 values pushed */
0 1 0 4 5 4 2 5 4 7 5 4 6 5 5 4 1 10 3 10 0 2 0 3 3 10 9 3 10 8 10 3 10 37 0 3 7 104 1 126 3 100 9 5 9 8 7 6 4 3 2 1 0 9 5 27 10 24 11
SRP0[ ]	/* SetRefPoint0 */
MIRP[10100]	/* MoveIndirectRelPt */
MPPEM[ ]	/* MeasurePixelPerEm */
PUSHB[ ]	/* 1 value pushed */
8
GTEQ[ ]	/* GreaterThanOrEqual */
MPPEM[ ]	/* MeasurePixelPerEm */
PUSHB[ ]	/* 1 value pushed */
10
LTEQ[ ]	/* LessThenOrEqual */
AND[ ]	/* LogicalAnd */
IF[ ]	/* If */
PUSHW[ ]	/* 2 values pushed */
10 64
SHPIX[ ]	/* ShiftZoneByPixel */
EIF[ ]	/* EndIf */
MIRP[01100]	/* MoveIndirectRelPt */
SLOOP[ ]	/* SetLoopVariable */
IP[ ]	/* InterpolatePts */
IUP[1]	/* InterpolateUntPts */
SVTCA[0]	/* SetFreedomAndProjectionVectorToAxis */
MDAP[1]	/* MoveDirectAbsPt */
ALIGNRP[ ]	/* AlignRelativePt */
MIRP[00100]	/* MoveIndirectRelPt */
MIRP[11100]	/* MoveIndirectRelPt */
MIRP[01100]	/* MoveIndirectRelPt */
SRP2[ ]	/* SetRefPoint2 */
IP[ ]	/* InterpolatePts */
IUP[0]	/* InterpolateUntPts */
MPPEM[ ]	/* MeasurePixelPerEm */
GTEQ[ ]	/* GreaterThanOrEqual */
IF[ ]	/* If */
SPVTL[1]	/* SetPVectorToLine */
SRP0[ ]	/* SetRefPoint0 */
SFVTCA[1]	/* SetFVectorToAxis */
MDRP[01001]	/* MoveDirectRelPt */
SPVTL[1]	/* SetPVectorToLine */
SFVTCA[1]	/* SetFVectorToAxis */
MDRP[01001]	/* MoveDirectRelPt */
SPVTL[1]	/* SetPVectorToLine */
SRP0[ ]	/* SetRefPoint0 */
SFVTL[0]	/* SetFVectorToLine */
MDRP[01001]	/* MoveDirectRelPt */
SPVTL[1]	/* SetPVectorToLine */
SRP0[ ]	/* SetRefPoint0 */
SFVTCA[1]	/* SetFVectorToAxis */
MDRP[01001]	/* MoveDirectRelPt */
SPVTL[1]	/* SetPVectorToLine */
SRP0[ ]	/* SetRefPoint0 */
SFVTCA[1]	/* SetFVectorToAxis */
MDRP[01001]	/* MoveDirectRelPt */
SPVTL[1]	/* SetPVectorToLine */
SFVTCA[1]	/* SetFVectorToAxis */
MDRP[01001]	/* MoveDirectRelPt */
SPVTL[1]	/* SetPVectorToLine */
SFVTCA[1]	/* SetFVectorToAxis */
MDRP[01001]	/* MoveDirectRelPt */
SPVTL[1]	/* SetPVectorToLine */
SRP0[ ]	/* SetRefPoint0 */
SFVTL[0]	/* SetFVectorToLine */
MDRP[01001]	/* MoveDirectRelPt */
EIF[ ]	/* EndIf */
CLEAR[ ]	/* ClearStack */
SVTCA[1]	/* SetFreedomAndProjectionVectorToAxis */
NPUSHB[ ]	/* 44 values pushed */
15 0 0 1 0 2 48 1 48 2 48 7 48 8 7 0 1 15 2 4 3 10 4 53 1 58 2 58 7 53 8 115 1 124 2 128 1 143 2 180 1 187 2 14
DELTAP1[ ]	/* DeltaExceptionP1 */
SVTCA[0]	/* SetFreedomAndProjectionVectorToAxis */
DELTAP1[ ]	/* DeltaExceptionP1 */";
};
width = 1233;
}
);
note = A;
unicode = 65;
},
{
glyphname = B;
layers = (
{
anchors = (
{
name = topright;
pos = (616,1493);
}
);
layerId = m01;
shapes = (
{
closed = 1;
nodes = (
(742,678,o),
(860,572,o),
(860,451,qs),
(860,332,o),
(747,236,o),
(606,236,qs),
(410,236,l),
(410,678,l),
(606,678,ls)
);
},
{
closed = 1;
nodes = (
(716,1260,o),
(813,1177,o),
(813,1085,qs),
(813,993,o),
(718,913,o),
(606,913,qs),
(410,913,l),
(410,1260,l),
(606,1260,ls)
);
},
{
closed = 1;
nodes = (
(606,0,ls),
(899,0,o),
(1159,194,o),
(1159,410,qs),
(1159,586,o),
(986,782,o),
(815,799,q),
(958,812,o),
(1106,974,o),
(1106,1118,qs),
(1106,1306,o),
(855,1495,o),
(606,1495,qs),
(125,1495,l),
(125,0,l)
);
}
);
userData = {
assembly = "NPUSHB[ ]	/* 36 values pushed */
25 0 104 10 9 104 18 100 1 104 10 128 31 25 5 31 19 17 11 8 2 6 0 14 15 22 5 15 28 30 9 0 15 18 29 33
SRP0[ ]	/* SetRefPoint0 */
MIRP[11100]	/* MoveIndirectRelPt */
MIRP[01100]	/* MoveIndirectRelPt */
SHP[0]	/* ShiftPointByLastPoint */
MIRP[11100]	/* MoveIndirectRelPt */
MIRP[01100]	/* MoveIndirectRelPt */
MDRP[10100]	/* MoveDirectRelPt */
MIRP[01100]	/* MoveIndirectRelPt */
SRP1[ ]	/* SetRefPoint1 */
SLOOP[ ]	/* SetLoopVariable */
IP[ ]	/* InterpolatePts */
SRP1[ ]	/* SetRefPoint1 */
IP[ ]	/* InterpolatePts */
IUP[1]	/* InterpolateUntPts */
SVTCA[0]	/* SetFreedomAndProjectionVectorToAxis */
MDAP[1]	/* MoveDirectAbsPt */
MIRP[00100]	/* MoveIndirectRelPt */
MIRP[01100]	/* MoveIndirectRelPt */
MIRP[10100]	/* MoveIndirectRelPt */
MIRP[01100]	/* MoveIndirectRelPt */
SRP0[ ]	/* SetRefPoint0 */
MIRP[01110]	/* MoveIndirectRelPt */
IP[ ]	/* InterpolatePts */
IUP[0]	/* InterpolateUntPts */";
};
width = 1233;
}
);
note = B;
unicode = 66;
},
{
glyphname = C;
layers = (
{
anchors = (
{
name = topright;
pos = (691,1493);
}
);
layerId = m01;
shapes = (
{
closed = 1;
nodes = (
(1005,301,o),
(862,236,o),
(786,236,qs),
(624,236,o),
(459,493,o),
(459,745,qs),
(459,998,o),
(624,1255,o),
(786,1255,qs),
(862,1255,o),
(1005,1190,o),
(1081,1120,q),
(1081,1448,l),
(1013,1484,o),
(857,1520,o),
(772,1520,qs),
(470,1520,o),
(152,1122,o),
(152,745,qs),
(152,369,o),
(470,-29,o),
(772,-29,qs),
(857,-29,o),
(1011,7,o),
(1081,43,q),
(1081,371,l)
);
}
);
userData = {
assembly = "NPUSHB[ ]	/* 26 values pushed */
25 129 0 111 22 112 3 13 129 12 111 16 112 9 110 3 114 26 19 33 12 0 31 6 28 26
SRP0[ ]	/* SetRefPoint0 */
MIRP[11100]	/* MoveIndirectRelPt */
MIRP[01100]	/* MoveIndirectRelPt */
SHP[0]	/* ShiftPointByLastPoint */
MIRP[01100]	/* MoveIndirectRelPt */
IUP[1]	/* InterpolateUntPts */
SVTCA[0]	/* SetFreedomAndProjectionVectorToAxis */
SRP0[ ]	/* SetRefPoint0 */
MIRP[00100]	/* MoveIndirectRelPt */
MIRP[10100]	/* MoveIndirectRelPt */
MIRP[01100]	/* MoveIndirectRelPt */
MIRP[10100]	/* MoveIndirectRelPt */
MIRP[01100]	/* MoveIndirectRelPt */
SRP0[ ]	/* SetRefPoint0 */
MIRP[01110]	/* MoveIndirectRelPt */
MIRP[10110]	/* MoveIndirectRelPt */
MIRP[01110]	/* MoveIndirectRelPt */
IUP[0]	/* InterpolateUntPts */";
};
width = 1233;
}
);
note = C;
unicode = 67;
},
{
glyphname = D;
layers = (
{
anchors = (
{
name = topright;
pos = (566,1493);
}
);
layerId = m01;
shapes = (
{
closed = 1;
nodes = (
(686,1227,o),
(834,1009,o),
(834,748,qs),
(834,485,o),
(686,266,o),
(512,266,qs),
(432,266,l),
(432,1227,l),
(512,1227,ls)
);
},
{
closed = 1;
nodes = (
(453,0,ls),
(819,0,o),
(1141,351,o),
(1141,748,qs),
(1141,1144,o),
(819,1493,o),
(453,1493,qs),
(137,1493,l),
(137,0,l)
);
}
);
userData = {
assembly = "NPUSHB[ ]	/* 21 values pushed */
0 112 9 100 1 112 16 8 2 16 10 0 5 33 13 30 0 15 9 34 18
SRP0[ ]	/* SetRefPoint0 */
MIRP[11100]	/* MoveIndirectRelPt */
MIRP[01100]	/* MoveIndirectRelPt */
MIRP[11100]	/* MoveIndirectRelPt */
MIRP[01100]	/* MoveIndirectRelPt */
SRP1[ ]	/* SetRefPoint1 */
IP[ ]	/* InterpolatePts */
IP[ ]	/* InterpolatePts */
IP[ ]	/* InterpolatePts */
IP[ ]	/* InterpolatePts */
IUP[1]	/* InterpolateUntPts */
SVTCA[0]	/* SetFreedomAndProjectionVectorToAxis */
MDAP[1]	/* MoveDirectAbsPt */
MIRP[01100]	/* MoveIndirectRelPt */
MIRP[10100]	/* MoveIndirectRelPt */
MIRP[01100]	/* MoveIndirectRelPt */
IUP[0]	/* InterpolateUntPts */";
};
width = 1233;
}
);
note = D;
unicode = 68;
},
{
glyphname = E;
layers = (
{
anchors = (
{
name = topright;
pos = (634,1493);
}
);
layerId = m01;
shapes = (
{
closed = 1;
nodes = (
(463,260,l),
(463,651,l),
(1038,651,l),
(1038,911,l),
(463,911,l),
(463,1233,l),
(1098,1233,l),
(1098,1493,l),
(168,1493,l),
(168,0,l),
(1098,0,l),
(1098,260,l)
);
}
);
userData = {
assembly = "NPUSHB[ ]	/* 23 values pushed */
8 112 6 4 112 2 100 10 112 6 128 0 7 35 3 0 31 9 5 15 1 28 12
SRP0[ ]	/* SetRefPoint0 */
MIRP[11100]	/* MoveIndirectRelPt */
MIRP[01100]	/* MoveIndirectRelPt */
SHP[0]	/* ShiftPointByLastPoint */
MIRP[11100]	/* MoveIndirectRelPt */
ALIGNRP[ ]	/* AlignRelativePt */
MIRP[00100]	/* MoveIndirectRelPt */
IUP[1]	/* InterpolateUntPts */
SVTCA[0]	/* SetFreedomAndProjectionVectorToAxis */
MDAP[1]	/* MoveDirectAbsPt */
MIRP[00100]	/* MoveIndirectRelPt */
MIRP[01100]	/* MoveIndirectRelPt */
MIRP[10100]	/* MoveIndirectRelPt */
MIRP[01100]	/* MoveIndirectRelPt */
SRP0[ ]	/* SetRefPoint0 */
MIRP[01110]	/* MoveIndirectRelPt */
IUP[0]	/* InterpolateUntPts */";
};
width = 1233;
}
);
note = E;
unicode = 69;
},
{
glyphname = F;
layers = (
{
anchors = (
{
name = topright;
pos = (670,1493);
}
);
layerId = m01;
shapes = (
{
closed = 1;
nodes = (
(182,1493,l),
(182,0,l),
(477,0,l),
(477,651,l),
(1055,651,l),
(1055,911,l),
(477,911,l),
(477,1233,l),
(1112,1233,l),
(1112,1493,l)
);
}
);
userData = {
assembly = "NPUSHB[ ]	/* 20 values pushed */
4 112 2 0 112 8 100 2 128 6 3 35 0 31 5 1 15 7 28 10
SRP0[ ]	/* SetRefPoint0 */
MIRP[11100]	/* MoveIndirectRelPt */
MIRP[01100]	/* MoveIndirectRelPt */
SHP[0]	/* ShiftPointByLastPoint */
MIRP[11100]	/* MoveIndirectRelPt */
MIRP[00100]	/* MoveIndirectRelPt */
IUP[1]	/* InterpolateUntPts */
SVTCA[0]	/* SetFreedomAndProjectionVectorToAxis */
MDAP[1]	/* MoveDirectAbsPt */
MIRP[00100]	/* MoveIndirectRelPt */
MIRP[10100]	/* MoveIndirectRelPt */
MIRP[01100]	/* MoveIndirectRelPt */
SRP0[ ]	/* SetRefPoint0 */
MIRP[01110]	/* MoveIndirectRelPt */
IUP[0]	/* InterpolateUntPts */";
};
width = 1233;
}
);
note = F;
unicode = 70;
},
{
glyphname = G;
layers = (
{
anchors = (
{
name = topright;
pos = (666,1493);
}
);
layerId = m01;
shapes = (
{
closed = 1;
nodes = (
(783,236,o),
(737,236,qs),
(584,236,o),
(424,496,o),
(424,745,qs),
(424,1002,o),
(590,1255,o),
(758,1255,qs),
(854,1255,o),
(1015,1174,o),
(1077,1094,q),
(1077,1421,l),
(1001,1469,o),
(827,1520,o),
(737,1520,qs),
(436,1520,o),
(117,1122,o),
(117,745,qs),
(117,374,o),
(433,-29,o),
(723,-29,qs),
(840,-29,o),
(1045,46,o),
(1130,119,q),
(1130,803,l),
(670,803,l),
(670,555,l),
(872,555,l),
(872,270,l),
(851,253,o)
);
}
);
userData = {
assembly = "NPUSHB[ ]	/* 33 values pushed */
0 1 5 27 8 1 112 3 27 112 8 18 129 17 111 21 112 14 110 8 114 30 2 0 37 17 4 30 24 33 11 29 30
SRP0[ ]	/* SetRefPoint0 */
MIRP[11100]	/* MoveIndirectRelPt */
MIRP[01100]	/* MoveIndirectRelPt */
MIRP[11100]	/* MoveIndirectRelPt */
MDRP[00100]	/* MoveDirectRelPt */
MIRP[11100]	/* MoveIndirectRelPt */
MDRP[00100]	/* MoveDirectRelPt */
IUP[1]	/* InterpolateUntPts */
SVTCA[0]	/* SetFreedomAndProjectionVectorToAxis */
SRP0[ ]	/* SetRefPoint0 */
MIRP[00100]	/* MoveIndirectRelPt */
MIRP[10100]	/* MoveIndirectRelPt */
MIRP[01100]	/* MoveIndirectRelPt */
MIRP[10100]	/* MoveIndirectRelPt */
MIRP[01100]	/* MoveIndirectRelPt */
SRP0[ ]	/* SetRefPoint0 */
MIRP[11110]	/* MoveIndirectRelPt */
MDRP[10100]	/* MoveDirectRelPt */
MIRP[01110]	/* MoveIndirectRelPt */
SRP1[ ]	/* SetRefPoint1 */
SRP2[ ]	/* SetRefPoint2 */
IP[ ]	/* InterpolatePts */
SRP1[ ]	/* SetRefPoint1 */
IP[ ]	/* InterpolatePts */
IUP[0]	/* InterpolateUntPts */
NPUSHB[ ]	/* 18 values pushed */
31 2 31 3 143 2 143 3 4 15 1 15 2 15 3 15 4 4
DELTAP1[ ]	/* DeltaExceptionP1 */
SVTCA[1]	/* SetFreedomAndProjectionVectorToAxis */
DELTAP1[ ]	/* DeltaExceptionP1 */";
};
width = 1233;
}
);
note = G;
unicode = 71;
},
{
glyphname = H;
layers = (
{
anchors = (
{
name = topright;
pos = (616,1493);
}
);
layerId = m01;
shapes = (
{
closed = 1;
nodes = (
(432,0,l),
(432,664,l),
(801,664,l),
(801,0,l),
(1096,0,l),
(1096,1493,l),
(801,1493,l),
(801,924,l),
(432,924,l),
(432,1493,l),
(137,1493,l),
(137,0,l)
);
}
);
userData = {
assembly = "NPUSHB[ ]	/* 20 values pushed */
8 112 2 128 4 0 100 10 6 7 3 15 5 31 9 1 15 0 34 12
SRP0[ ]	/* SetRefPoint0 */
MIRP[11100]	/* MoveIndirectRelPt */
MIRP[01100]	/* MoveIndirectRelPt */
SHP[0]	/* ShiftPointByLastPoint */
MIRP[11100]	/* MoveIndirectRelPt */
MIRP[01100]	/* MoveIndirectRelPt */
SHP[0]	/* ShiftPointByLastPoint */
IUP[1]	/* InterpolateUntPts */
SVTCA[0]	/* SetFreedomAndProjectionVectorToAxis */
MDAP[1]	/* MoveDirectAbsPt */
ALIGNRP[ ]	/* AlignRelativePt */
MIRP[00100]	/* MoveIndirectRelPt */
SHP[0]	/* ShiftPointByLastPoint */
MIRP[10100]	/* MoveIndirectRelPt */
MIRP[01100]	/* MoveIndirectRelPt */
IUP[0]	/* InterpolateUntPts */";
};
width = 1233;
}
);
note = H;
unicode = 72;
},
{
glyphname = I;
layers = (
{
anchors = (
{
name = topright;
pos = (616,1493);
}
);
layerId = m01;
shapes = (
{
closed = 1;
nodes = (
(469,260,l),
(172,260,l),
(172,0,l),
(1061,0,l),
(1061,260,l),
(764,260,l),
(764,1233,l),
(1061,1233,l),
(1061,1493,l),
(172,1493,l),
(172,1233,l),
(469,1233,l)
);
}
);
userData = {
assembly = "NPUSHB[ ]	/* 17 values pushed */
3 0 112 1 100 9 5 112 7 6 2 4 15 8 0 10 12
SRP0[ ]	/* SetRefPoint0 */
MDRP[10100]	/* MoveDirectRelPt */
MDRP[00100]	/* MoveDirectRelPt */
SHP[0]	/* ShiftPointByLastPoint */
MIRP[11100]	/* MoveIndirectRelPt */
MDRP[00100]	/* MoveDirectRelPt */
SHP[0]	/* ShiftPointByLastPoint */
IUP[1]	/* InterpolateUntPts */
SVTCA[0]	/* SetFreedomAndProjectionVectorToAxis */
MDAP[1]	/* MoveDirectAbsPt */
MIRP[01100]	/* MoveIndirectRelPt */
SHP[0]	/* ShiftPointByLastPoint */
MIRP[10100]	/* MoveIndirectRelPt */
MIRP[01100]	/* MoveIndirectRelPt */
SHP[0]	/* ShiftPointByLastPoint */
IUP[0]	/* InterpolateUntPts */";
};
width = 1233;
}
);
note = I;
unicode = 73;
},
{
glyphname = J;
layers = (
{
anchors = (
{
name = topright;
pos = (666,1493);
}
);
layerId = m01;
shapes = (
{
closed = 1;
nodes = (
(421,-29,o),
(516,-29,qs),
(779,-29,o),
(1008,206,o),
(1008,479,qs),
(1008,1493,l),
(352,1493,l),
(352,1233,l),
(713,1233,l),
(713,479,ls),
(713,352,o),
(605,236,o),
(489,236,qs),
(390,236,o),
(195,328,o),
(109,416,q),
(109,74,l),
(214,23,o)
);
}
);
userData = {
assembly = "NPUSHB[ ]	/* 25 values pushed */
12 7 8 1 129 0 111 4 112 15 8 112 10 100 15 114 18 9 7 15 11 31 0 28 18
SRP0[ ]	/* SetRefPoint0 */
MIRP[11100]	/* MoveIndirectRelPt */
MIRP[11100]	/* MoveIndirectRelPt */
MIRP[11100]	/* MoveIndirectRelPt */
MDRP[00100]	/* MoveDirectRelPt */
IUP[1]	/* InterpolateUntPts */
SVTCA[0]	/* SetFreedomAndProjectionVectorToAxis */
SRP0[ ]	/* SetRefPoint0 */
MIRP[00100]	/* MoveIndirectRelPt */
MIRP[10100]	/* MoveIndirectRelPt */
MIRP[01100]	/* MoveIndirectRelPt */
SRP0[ ]	/* SetRefPoint0 */
MIRP[01110]	/* MoveIndirectRelPt */
MIRP[10110]	/* MoveIndirectRelPt */
MIRP[01110]	/* MoveIndirectRelPt */
SRP1[ ]	/* SetRefPoint1 */
IP[ ]	/* InterpolatePts */
IP[ ]	/* InterpolatePts */
IUP[0]	/* InterpolateUntPts */";
};
width = 1233;
}
);
note = J;
unicode = 74;
},
{
glyphname = K;
layers = (
{
anchors = (
{
name = topright;
pos = (616,1493);
}
);
layerId = m01;
shapes = (
{
closed = 1;
nodes = (
(412,0,l),
(412,506,l),
(543,672,l),
(897,0,l),
(1225,0,l),
(737,905,l),
(1208,1493,l),
(874,1493,l),
(412,903,l),
(412,1493,l),
(117,1493,l),
(117,0,l)
);
}
);
userData = {
assembly = "NPUSHB[ ]	/* 51 values pushed */
8 9 8 5 6 5 7 6 6 5 9 3 2 8 7 8 3 2 5 6 5 2 3 2 4 3 3 2 37 8 5 2 3 3 0 100 10 6 8 7 5 4 4 6 1 9 1 15 0 29 12
SRP0[ ]	/* SetRefPoint0 */
MIRP[11100]	/* MoveIndirectRelPt */
MIRP[01100]	/* MoveIndirectRelPt */
SHP[0]	/* ShiftPointByLastPoint */
SRP0[ ]	/* SetRefPoint0 */
MDRP[00000]	/* MoveDirectRelPt */
SLOOP[ ]	/* SetLoopVariable */
IP[ ]	/* InterpolatePts */
IUP[1]	/* InterpolateUntPts */
SVTCA[0]	/* SetFreedomAndProjectionVectorToAxis */
MDAP[1]	/* MoveDirectAbsPt */
ALIGNRP[ ]	/* AlignRelativePt */
MIRP[00100]	/* MoveIndirectRelPt */
SHP[0]	/* ShiftPointByLastPoint */
SLOOP[ ]	/* SetLoopVariable */
IP[ ]	/* InterpolatePts */
IUP[0]	/* InterpolateUntPts */
MPPEM[ ]	/* MeasurePixelPerEm */
GTEQ[ ]	/* GreaterThanOrEqual */
IF[ ]	/* If */
SPVTL[1]	/* SetPVectorToLine */
SRP0[ ]	/* SetRefPoint0 */
SFVTCA[1]	/* SetFVectorToAxis */
MDRP[01001]	/* MoveDirectRelPt */
SPVTL[1]	/* SetPVectorToLine */
SRP0[ ]	/* SetRefPoint0 */
SFVTL[0]	/* SetFVectorToLine */
MDRP[01001]	/* MoveDirectRelPt */
SPVTL[1]	/* SetPVectorToLine */
SFVTL[0]	/* SetFVectorToLine */
MDRP[01001]	/* MoveDirectRelPt */
SPVTL[1]	/* SetPVectorToLine */
SFVTCA[0]	/* SetFVectorToAxis */
MDRP[01001]	/* MoveDirectRelPt */
SPVTL[1]	/* SetPVectorToLine */
SRP0[ ]	/* SetRefPoint0 */
SFVTCA[1]	/* SetFVectorToAxis */
MDRP[01001]	/* MoveDirectRelPt */
SPVTL[1]	/* SetPVectorToLine */
SRP0[ ]	/* SetRefPoint0 */
SFVTL[0]	/* SetFVectorToLine */
MDRP[01001]	/* MoveDirectRelPt */
EIF[ ]	/* EndIf */
CLEAR[ ]	/* ClearStack */";
};
width = 1233;
}
);
note = K;
unicode = 75;
},
{
glyphname = L;
layers = (
{
anchors = (
{
name = topright;
pos = (666,1493);
}
);
layerId = m01;
shapes = (
{
closed = 1;
nodes = (
(1151,260,l),
(520,260,l),
(520,1493,l),
(225,1493,l),
(225,0,l),
(1151,0,l)
);
}
);
userData = {
assembly = "NPUSHB[ ]	/* 12 values pushed */
3 112 1 100 0 2 15 4 27 0 28 6
SRP0[ ]	/* SetRefPoint0 */
MIRP[11100]	/* MoveIndirectRelPt */
MIRP[01100]	/* MoveIndirectRelPt */
MIRP[01100]	/* MoveIndirectRelPt */
IUP[1]	/* InterpolateUntPts */
SVTCA[0]	/* SetFreedomAndProjectionVectorToAxis */
MDAP[1]	/* MoveDirectAbsPt */
MIRP[00100]	/* MoveIndirectRelPt */
MIRP[01100]	/* MoveIndirectRelPt */
IUP[0]	/* InterpolateUntPts */";
};
width = 1233;
}
);
note = L;
unicode = 76;
},
{
glyphname = M;
layers = (
{
anchors = (
{
name = topright;
pos = (616,1493);
}
);
layerId = m01;
shapes = (
{
closed = 1;
nodes = (
(340,0,l),
(340,1196,l),
(500,543,l),
(735,543,l),
(893,1196,l),
(893,0,l),
(1147,0,l),
(1147,1493,l),
(793,1493,l),
(616,838,l),
(438,1493,l),
(86,1493,l),
(86,0,l)
);
}
);
userData = {
assembly = "NPUSHB[ ]	/* 16 values pushed */
9 8 3 2 1 5 10 6 37 4 30 10 37 0 28 13
SRP0[ ]	/* SetRefPoint0 */
MIRP[11100]	/* MoveIndirectRelPt */
MIRP[01100]	/* MoveIndirectRelPt */
MIRP[11100]	/* MoveIndirectRelPt */
MIRP[01100]	/* MoveIndirectRelPt */
SRP1[ ]	/* SetRefPoint1 */
SLOOP[ ]	/* SetLoopVariable */
IP[ ]	/* InterpolatePts */
IUP[1]	/* InterpolateUntPts */
SVTCA[0]	/* SetFreedomAndProjectionVectorToAxis */
NPUSHB[ ]	/* 11 values pushed */
10 7 2 3 0 8 3 0 100 11 5
MDAP[1]	/* MoveDirectAbsPt */
ALIGNRP[ ]	/* AlignRelativePt */
MIRP[00100]	/* MoveIndirectRelPt */
SHP[0]	/* ShiftPointByLastPoint */
MDRP[00100]	/* MoveDirectRelPt */
SRP1[ ]	/* SetRefPoint1 */
SLOOP[ ]	/* SetLoopVariable */
IP[ ]	/* InterpolatePts */
IUP[0]	/* InterpolateUntPts */
NPUSHB[ ]	/* 17 values pushed */
8 2 3 2 7 3 3 2 10 1 2 1 9 2 2 1 37
MPPEM[ ]	/* MeasurePixelPerEm */
GTEQ[ ]	/* GreaterThanOrEqual */
IF[ ]	/* If */
SPVTL[1]	/* SetPVectorToLine */
SRP0[ ]	/* SetRefPoint0 */
SFVTCA[1]	/* SetFVectorToAxis */
MDRP[01001]	/* MoveDirectRelPt */
SPVTL[1]	/* SetPVectorToLine */
SRP0[ ]	/* SetRefPoint0 */
SFVTCA[0]	/* SetFVectorToAxis */
MDRP[01001]	/* MoveDirectRelPt */
SPVTL[1]	/* SetPVectorToLine */
SRP0[ ]	/* SetRefPoint0 */
SFVTCA[0]	/* SetFVectorToAxis */
MDRP[01001]	/* MoveDirectRelPt */
SPVTL[1]	/* SetPVectorToLine */
SRP0[ ]	/* SetRefPoint0 */
SFVTCA[1]	/* SetFVectorToAxis */
MDRP[01001]	/* MoveDirectRelPt */
EIF[ ]	/* EndIf */
CLEAR[ ]	/* ClearStack */
PUSHB[ ]	/* 3 values pushed */
143 9 1
SVTCA[1]	/* SetFreedomAndProjectionVectorToAxis */
DELTAP1[ ]	/* DeltaExceptionP1 */
NPUSHB[ ]	/* 82 values pushed */
15 8 15 9 27 2 31 2 41 2 61 2 63 8 63 9 135 2 128 2 175 7 175 10 191 7 191 10 14 38 1 32 1 41 3 47 3 55 1 48 1 56 3 63 3 133 1 128 1 138 3 143 3 135 9 128 9 144 1 159 3 148 8 155 9 164 1 171 3 162 8 172 9 177 1 191 3 182 8 186 9 26
DELTAP1[ ]	/* DeltaExceptionP1 */
SVTCA[0]	/* SetFreedomAndProjectionVectorToAxis */
DELTAP1[ ]	/* DeltaExceptionP1 */
MPPEM[ ]	/* MeasurePixelPerEm */
PUSHB[ ]	/* 1 value pushed */
10
EQ[ ]	/* Equal */
IF[ ]	/* If */
PUSHW[ ]	/* 4 values pushed */
10 128 7 128
SHPIX[ ]	/* ShiftZoneByPixel */
SHPIX[ ]	/* ShiftZoneByPixel */
EIF[ ]	/* EndIf */";
};
width = 1233;
}
);
note = M;
unicode = 77;
},
{
glyphname = N;
layers = (
{
anchors = (
{
name = topright;
pos = (616,1493);
}
);
layerId = m01;
shapes = (
{
closed = 1;
nodes = (
(379,0,l),
(379,1085,l),
(797,0,l),
(1112,0,l),
(1112,1493,l),
(852,1493,l),
(852,408,l),
(436,1493,l),
(119,1493,l),
(119,0,l)
);
}
);
userData = {
assembly = "NPUSHB[ ]	/* 28 values pushed */
7 1 2 1 2 6 7 6 37 7 2 3 0 100 8 5 6 1 7 2 38 4 31 7 38 0 29 10
SRP0[ ]	/* SetRefPoint0 */
MIRP[11100]	/* MoveIndirectRelPt */
MIRP[01100]	/* MoveIndirectRelPt */
MIRP[11100]	/* MoveIndirectRelPt */
MIRP[01100]	/* MoveIndirectRelPt */
SRP1[ ]	/* SetRefPoint1 */
IP[ ]	/* InterpolatePts */
IP[ ]	/* InterpolatePts */
IUP[1]	/* InterpolateUntPts */
SVTCA[0]	/* SetFreedomAndProjectionVectorToAxis */
MDAP[1]	/* MoveDirectAbsPt */
ALIGNRP[ ]	/* AlignRelativePt */
MIRP[00100]	/* MoveIndirectRelPt */
SHP[0]	/* ShiftPointByLastPoint */
IP[ ]	/* InterpolatePts */
IP[ ]	/* InterpolatePts */
IUP[0]	/* InterpolateUntPts */
MPPEM[ ]	/* MeasurePixelPerEm */
GTEQ[ ]	/* GreaterThanOrEqual */
IF[ ]	/* If */
SPVTL[1]	/* SetPVectorToLine */
SRP0[ ]	/* SetRefPoint0 */
SFVTCA[0]	/* SetFVectorToAxis */
MDRP[01001]	/* MoveDirectRelPt */
SPVTL[1]	/* SetPVectorToLine */
SRP0[ ]	/* SetRefPoint0 */
SFVTCA[0]	/* SetFVectorToAxis */
MDRP[01001]	/* MoveDirectRelPt */
EIF[ ]	/* EndIf */
CLEAR[ ]	/* ClearStack */
PUSHB[ ]	/* 3 values pushed */
135 1 1
SVTCA[1]	/* SetFreedomAndProjectionVectorToAxis */
DELTAP1[ ]	/* DeltaExceptionP1 */
NPUSHB[ ]	/* 12 values pushed */
16 2 1 9 6 21 1 135 1 137 6 4
DELTAP1[ ]	/* DeltaExceptionP1 */
SVTCA[0]	/* SetFreedomAndProjectionVectorToAxis */
DELTAP1[ ]	/* DeltaExceptionP1 */";
};
width = 1233;
}
);
note = N;
unicode = 78;
},
{
glyphname = O;
layers = (
{
anchors = (
{
name = topright;
pos = (616,1493);
}
);
layerId = m01;
shapes = (
{
closed = 1;
nodes = (
(834,1014,o),
(834,745,qs),
(834,477,o),
(730,236,o),
(616,236,qs),
(503,236,o),
(399,477,o),
(399,745,qs),
(399,1014,o),
(503,1255,o),
(616,1255,qs),
(730,1255,o)
);
},
{
closed = 1;
nodes = (
(357,-29,o),
(616,-29,qs),
(876,-29,o),
(1141,363,o),
(1141,745,qs),
(1141,1128,o),
(876,1520,o),
(616,1520,qs),
(357,1520,o),
(92,1128,o),
(92,745,qs),
(92,363,o)
);
}
);
userData = {
assembly = "NPUSHB[ ]	/* 19 values pushed */
6 112 21 0 112 15 110 21 114 24 9 33 18 30 3 33 12 39 24
SRP0[ ]	/* SetRefPoint0 */
MIRP[11100]	/* MoveIndirectRelPt */
MIRP[01100]	/* MoveIndirectRelPt */
MIRP[11100]	/* MoveIndirectRelPt */
MIRP[01100]	/* MoveIndirectRelPt */
IUP[1]	/* InterpolateUntPts */
SVTCA[0]	/* SetFreedomAndProjectionVectorToAxis */
SRP0[ ]	/* SetRefPoint0 */
MIRP[00100]	/* MoveIndirectRelPt */
MIRP[10100]	/* MoveIndirectRelPt */
MIRP[01100]	/* MoveIndirectRelPt */
SRP0[ ]	/* SetRefPoint0 */
MIRP[01110]	/* MoveIndirectRelPt */
IUP[0]	/* InterpolateUntPts */";
};
width = 1233;
}
);
note = O;
unicode = 79;
},
{
glyphname = P;
layers = (
{
anchors = (
{
name = topright;
pos = (616,1493);
}
);
layerId = m01;
shapes = (
{
closed = 1;
nodes = (
(723,1245,o),
(840,1147,o),
(840,1026,qs),
(840,905,o),
(723,807,o),
(578,807,qs),
(457,807,l),
(457,1245,l),
(578,1245,ls)
);
},
{
closed = 1;
nodes = (
(457,0,l),
(457,559,l),
(567,559,ls),
(876,559,o),
(1147,779,o),
(1147,1026,qs),
(1147,1273,o),
(876,1493,o),
(567,1493,qs),
(162,1493,l),
(162,0,l)
);
}
);
userData = {
assembly = "NPUSHB[ ]	/* 23 values pushed */
1 112 16 0 112 9 100 18 8 2 16 10 0 5 33 13 31 17 0 15 9 28 20
SRP0[ ]	/* SetRefPoint0 */
MIRP[11100]	/* MoveIndirectRelPt */
MIRP[01100]	/* MoveIndirectRelPt */
SHP[0]	/* ShiftPointByLastPoint */
MIRP[11100]	/* MoveIndirectRelPt */
MIRP[01100]	/* MoveIndirectRelPt */
SRP1[ ]	/* SetRefPoint1 */
IP[ ]	/* InterpolatePts */
IP[ ]	/* InterpolatePts */
IP[ ]	/* InterpolatePts */
IP[ ]	/* InterpolatePts */
IUP[1]	/* InterpolateUntPts */
SVTCA[0]	/* SetFreedomAndProjectionVectorToAxis */
MDAP[1]	/* MoveDirectAbsPt */
MIRP[10100]	/* MoveIndirectRelPt */
MIRP[01100]	/* MoveIndirectRelPt */
MDRP[10100]	/* MoveDirectRelPt */
MIRP[01100]	/* MoveIndirectRelPt */
IUP[0]	/* InterpolateUntPts */";
};
width = 1233;
}
);
note = P;
unicode = 80;
},
{
glyphname = Q;
layers = (
{
anchors = (
{
name = topright;
pos = (616,1493);
}
);
layerId = m01;
shapes = (
{
closed = 1;
nodes = (
(1081,-131,l),
(895,51,l),
(1015,127,o),
(1141,482,o),
(1141,745,qs),
(1141,1128,o),
(876,1520,o),
(616,1520,qs),
(357,1520,o),
(92,1128,o),
(92,745,qs),
(92,363,o),
(357,-29,o),
(614,-29,qs),
(623,-29,o),
(642,-26,o),
(656,-23,q),
(879,-281,l)
);
},
{
closed = 1;
nodes = (
(834,1014,o),
(834,745,qs),
(834,477,o),
(730,236,o),
(616,236,qs),
(503,236,o),
(399,477,o),
(399,745,qs),
(399,1014,o),
(503,1255,o),
(616,1255,qs),
(730,1255,o)
);
}
);
userData = {
assembly = "NPUSHB[ ]	/* 32 values pushed */
0 30 16 17 15 24 17 24 112 3 18 112 9 110 3 30 17 16 15 3 12 0 21 27 33 12 30 21 33 6 39 30
SRP0[ ]	/* SetRefPoint0 */
MIRP[11100]	/* MoveIndirectRelPt */
MIRP[01100]	/* MoveIndirectRelPt */
MIRP[11100]	/* MoveIndirectRelPt */
MIRP[01100]	/* MoveIndirectRelPt */
SRP1[ ]	/* SetRefPoint1 */
IP[ ]	/* InterpolatePts */
SRP1[ ]	/* SetRefPoint1 */
SLOOP[ ]	/* SetLoopVariable */
IP[ ]	/* InterpolatePts */
IUP[1]	/* InterpolateUntPts */
SVTCA[0]	/* SetFreedomAndProjectionVectorToAxis */
SRP0[ ]	/* SetRefPoint0 */
MDRP[00100]	/* MoveDirectRelPt */
MIRP[10100]	/* MoveIndirectRelPt */
MIRP[01100]	/* MoveIndirectRelPt */
SRP0[ ]	/* SetRefPoint0 */
MIRP[01110]	/* MoveIndirectRelPt */
MDRP[00101]	/* MoveDirectRelPt */
SRP2[ ]	/* SetRefPoint2 */
IP[ ]	/* InterpolatePts */
SRP2[ ]	/* SetRefPoint2 */
IP[ ]	/* InterpolatePts */
SRP2[ ]	/* SetRefPoint2 */
IP[ ]	/* InterpolatePts */
IUP[0]	/* InterpolateUntPts */";
};
width = 1233;
}
);
note = Q;
unicode = 81;
},
{
glyphname = R;
layers = (
{
anchors = (
{
name = topright;
pos = (566,1493);
}
);
layerId = m01;
shapes = (
{
closed = 1;
nodes = (
(1098,905,o),
(1098,1059,qs),
(1098,1289,o),
(847,1493,o),
(559,1493,qs),
(133,1493,l),
(133,0,l),
(428,0,l),
(428,590,l),
(522,590,ls),
(629,590,o),
(708,421,qs),
(721,393,o),
(729,377,qs),
(909,0,l),
(1233,0,l),
(963,537,ls),
(916,631,o),
(851,696,o),
(807,705,q),
(948,723,o)
);
},
{
closed = 1;
nodes = (
(689,1245,o),
(793,1151,o),
(793,1042,qs),
(793,933,o),
(688,838,o),
(567,838,qs),
(428,838,l),
(428,1245,l),
(567,1245,ls)
);
}
);
userData = {
assembly = "NPUSHB[ ]	/* 54 values pushed */
10 9 8 7 4 11 6 3 4 3 5 4 4 3 37 6 4 0 22 3 4 22 112 10 21 112 14 100 12 4 0 5 3 3 18 29 23 10 6 4 15 26 11 4 26 33 18 31 21 11 15 13 34 30
SRP0[ ]	/* SetRefPoint0 */
MIRP[11100]	/* MoveIndirectRelPt */
MIRP[01100]	/* MoveIndirectRelPt */
SHP[0]	/* ShiftPointByLastPoint */
MIRP[11100]	/* MoveIndirectRelPt */
MIRP[01100]	/* MoveIndirectRelPt */
MDRP[00100]	/* MoveDirectRelPt */
SRP1[ ]	/* SetRefPoint1 */
SRP2[ ]	/* SetRefPoint2 */
IP[ ]	/* InterpolatePts */
SLOOP[ ]	/* SetLoopVariable */
IP[ ]	/* InterpolatePts */
SRP1[ ]	/* SetRefPoint1 */
SLOOP[ ]	/* SetLoopVariable */
IP[ ]	/* InterpolatePts */
IUP[1]	/* InterpolateUntPts */
SVTCA[0]	/* SetFreedomAndProjectionVectorToAxis */
MDAP[1]	/* MoveDirectAbsPt */
ALIGNRP[ ]	/* AlignRelativePt */
MIRP[10100]	/* MoveIndirectRelPt */
MIRP[01100]	/* MoveIndirectRelPt */
MDRP[10100]	/* MoveDirectRelPt */
MIRP[01100]	/* MoveIndirectRelPt */
SRP2[ ]	/* SetRefPoint2 */
IP[ ]	/* InterpolatePts */
SRP2[ ]	/* SetRefPoint2 */
IP[ ]	/* InterpolatePts */
SRP2[ ]	/* SetRefPoint2 */
IP[ ]	/* InterpolatePts */
IUP[0]	/* InterpolateUntPts */
MPPEM[ ]	/* MeasurePixelPerEm */
GTEQ[ ]	/* GreaterThanOrEqual */
IF[ ]	/* If */
SPVTL[1]	/* SetPVectorToLine */
SRP0[ ]	/* SetRefPoint0 */
SFVTCA[1]	/* SetFVectorToAxis */
MDRP[01001]	/* MoveDirectRelPt */
SPVTL[1]	/* SetPVectorToLine */
SRP0[ ]	/* SetRefPoint0 */
SFVTCA[1]	/* SetFVectorToAxis */
MDRP[01001]	/* MoveDirectRelPt */
SRP1[ ]	/* SetRefPoint1 */
SLOOP[ ]	/* SetLoopVariable */
IP[ ]	/* InterpolatePts */
EIF[ ]	/* EndIf */
CLEAR[ ]	/* ClearStack */";
};
width = 1233;
}
);
note = R;
unicode = 82;
},
{
glyphname = S;
layers = (
{
anchors = (
{
name = topright;
pos = (616,1493);
}
);
layerId = m01;
shapes = (
{
closed = 1;
nodes = (
(731,571,o),
(811,470,o),
(811,403,qs),
(811,314,o),
(691,215,o),
(582,215,qs),
(474,215,o),
(253,297,o),
(135,381,q),
(135,76,l),
(239,24,o),
(462,-29,o),
(573,-29,qs),
(843,-29,o),
(1110,194,o),
(1110,420,qs),
(1110,586,o),
(940,804,o),
(760,870,qs),
(633,918,ls),
(501,967,o),
(418,1048,o),
(418,1110,qs),
(418,1190,o),
(532,1276,o),
(639,1276,qs),
(735,1276,o),
(931,1206,o),
(1026,1139,q),
(1026,1427,l),
(925,1473,o),
(719,1520,o),
(616,1520,qs),
(389,1520,o),
(129,1288,o),
(129,1085,qs),
(129,927,o),
(287,740,o),
(510,655,qs),
(655,600,ls)
);
}
);
userData = {
assembly = "NPUSHB[ ]	/* 62 values pushed */
22 21 2 23 20 39 0 39 14 15 16 17 18 5 13 19 0 0 39 37 19 20 39 0 4 10 30 129 29 111 33 112 26 10 129 9 111 13 112 6 110 26 114 40 39 19 20 0 36 16 9 40 36 22 23 31 16 22 29 3 34 40
SRP0[ ]	/* SetRefPoint0 */
MIRP[11100]	/* MoveIndirectRelPt */
MDRP[00100]	/* MoveDirectRelPt */
MIRP[01100]	/* MoveIndirectRelPt */
MIRP[11100]	/* MoveIndirectRelPt */
MIRP[01100]	/* MoveIndirectRelPt */
MIRP[00100]	/* MoveIndirectRelPt */
SRP1[ ]	/* SetRefPoint1 */
SRP2[ ]	/* SetRefPoint2 */
IP[ ]	/* InterpolatePts */
IP[ ]	/* InterpolatePts */
IP[ ]	/* InterpolatePts */
IP[ ]	/* InterpolatePts */
IUP[1]	/* InterpolateUntPts */
SVTCA[0]	/* SetFreedomAndProjectionVectorToAxis */
SRP0[ ]	/* SetRefPoint0 */
MIRP[00100]	/* MoveIndirectRelPt */
MIRP[10100]	/* MoveIndirectRelPt */
MIRP[01100]	/* MoveIndirectRelPt */
MIRP[10100]	/* MoveIndirectRelPt */
MIRP[01100]	/* MoveIndirectRelPt */
SRP0[ ]	/* SetRefPoint0 */
MIRP[01110]	/* MoveIndirectRelPt */
MIRP[10110]	/* MoveIndirectRelPt */
MIRP[01110]	/* MoveIndirectRelPt */
SRP1[ ]	/* SetRefPoint1 */
SLOOP[ ]	/* SetLoopVariable */
IP[ ]	/* InterpolatePts */
IUP[0]	/* InterpolateUntPts */
MPPEM[ ]	/* MeasurePixelPerEm */
GTEQ[ ]	/* GreaterThanOrEqual */
IF[ ]	/* If */
SPVTL[1]	/* SetPVectorToLine */
SRP0[ ]	/* SetRefPoint0 */
SFVTPV[ ]	/* SetFVectorToPVector */
MDRP[01001]	/* MoveDirectRelPt */
SRP1[ ]	/* SetRefPoint1 */
SLOOP[ ]	/* SetLoopVariable */
IP[ ]	/* InterpolatePts */
SPVTL[1]	/* SetPVectorToLine */
SRP0[ ]	/* SetRefPoint0 */
SFVTPV[ ]	/* SetFVectorToPVector */
MDRP[01001]	/* MoveDirectRelPt */
SRP1[ ]	/* SetRefPoint1 */
SLOOP[ ]	/* SetLoopVariable */
IP[ ]	/* InterpolatePts */
EIF[ ]	/* EndIf */
CLEAR[ ]	/* ClearStack */";
};
width = 1233;
}
);
note = S;
unicode = 83;
},
{
glyphname = T;
layers = (
{
anchors = (
{
name = topright;
pos = (616,1493);
}
);
layerId = m01;
shapes = (
{
closed = 1;
nodes = (
(1143,1235,l),
(1143,1493,l),
(90,1493,l),
(90,1235,l),
(469,1235,l),
(469,0,l),
(764,0,l),
(764,1235,l)
);
}
);
userData = {
assembly = "NPUSHB[ ]	/* 12 values pushed */
6 2 112 4 100 0 5 0 15 3 1 8
SRP0[ ]	/* SetRefPoint0 */
MDRP[10100]	/* MoveDirectRelPt */
MDRP[00100]	/* MoveDirectRelPt */
MIRP[11100]	/* MoveIndirectRelPt */
MDRP[00100]	/* MoveDirectRelPt */
IUP[1]	/* InterpolateUntPts */
SVTCA[0]	/* SetFreedomAndProjectionVectorToAxis */
MDAP[1]	/* MoveDirectAbsPt */
MIRP[10100]	/* MoveIndirectRelPt */
MIRP[01100]	/* MoveIndirectRelPt */
SHP[0]	/* ShiftPointByLastPoint */
IUP[0]	/* InterpolateUntPts */";
};
width = 1233;
}
);
note = T;
unicode = 84;
},
{
glyphname = U;
layers = (
{
anchors = (
{
name = topright;
pos = (616,1493);
}
);
layerId = m01;
shapes = (
{
closed = 1;
nodes = (
(349,-29,o),
(616,-29,qs),
(884,-29,o),
(1126,247,o),
(1126,551,qs),
(1126,1493,l),
(831,1493,l),
(831,477,ls),
(831,365,o),
(717,238,o),
(616,238,qs),
(515,238,o),
(401,365,o),
(401,477,qs),
(401,1493,l),
(106,1493,l),
(106,551,ls),
(106,247,o)
);
}
);
userData = {
assembly = "NPUSHB[ ]	/* 22 values pushed */
9 3 12 0 1 6 112 15 114 10 1 100 18 9 15 11 31 2 15 0 29 18
SRP0[ ]	/* SetRefPoint0 */
MIRP[11100]	/* MoveIndirectRelPt */
MIRP[01100]	/* MoveIndirectRelPt */
MIRP[11100]	/* MoveIndirectRelPt */
MIRP[01100]	/* MoveIndirectRelPt */
IUP[1]	/* InterpolateUntPts */
SVTCA[0]	/* SetFreedomAndProjectionVectorToAxis */
SRP0[ ]	/* SetRefPoint0 */
MIRP[00100]	/* MoveIndirectRelPt */
SHP[0]	/* ShiftPointByLastPoint */
MIRP[10100]	/* MoveIndirectRelPt */
MIRP[01100]	/* MoveIndirectRelPt */
SRP1[ ]	/* SetRefPoint1 */
IP[ ]	/* InterpolatePts */
IP[ ]	/* InterpolatePts */
IP[ ]	/* InterpolatePts */
IP[ ]	/* InterpolatePts */
IUP[0]	/* InterpolateUntPts */";
};
width = 1233;
}
);
note = U;
unicode = 85;
},
{
glyphname = V;
layers = (
{
anchors = (
{
name = topright;
pos = (616,1493);
}
);
layerId = m01;
shapes = (
{
closed = 1;
nodes = (
(57,1493,l),
(412,0,l),
(821,0,l),
(1176,1493,l),
(879,1493,l),
(616,246,l),
(354,1493,l)
);
}
);
userData = {
assembly = "NPUSHB[ ]	/* 37 values pushed */
1 2 3 2 0 6 0 3 3 2 0 1 0 4 5 4 6 5 5 4 37 0 5 1 100 3 6 4 3 1 0 5 2 27 5 24 7
SRP0[ ]	/* SetRefPoint0 */
MIRP[10100]	/* MoveIndirectRelPt */
MPPEM[ ]	/* MeasurePixelPerEm */
PUSHB[ ]	/* 1 value pushed */
8
GTEQ[ ]	/* GreaterThanOrEqual */
MPPEM[ ]	/* MeasurePixelPerEm */
PUSHB[ ]	/* 1 value pushed */
10
LTEQ[ ]	/* LessThenOrEqual */
AND[ ]	/* LogicalAnd */
IF[ ]	/* If */
PUSHW[ ]	/* 2 values pushed */
5 64
SHPIX[ ]	/* ShiftZoneByPixel */
EIF[ ]	/* EndIf */
MIRP[01100]	/* MoveIndirectRelPt */
SLOOP[ ]	/* SetLoopVariable */
IP[ ]	/* InterpolatePts */
IUP[1]	/* InterpolateUntPts */
SVTCA[0]	/* SetFreedomAndProjectionVectorToAxis */
MDAP[1]	/* MoveDirectAbsPt */
MIRP[00100]	/* MoveIndirectRelPt */
SHP[0]	/* ShiftPointByLastPoint */
IP[ ]	/* InterpolatePts */
IUP[0]	/* InterpolateUntPts */
MPPEM[ ]	/* MeasurePixelPerEm */
GTEQ[ ]	/* GreaterThanOrEqual */
IF[ ]	/* If */
SPVTL[1]	/* SetPVectorToLine */
SRP0[ ]	/* SetRefPoint0 */
SFVTCA[1]	/* SetFVectorToAxis */
MDRP[01001]	/* MoveDirectRelPt */
SPVTL[1]	/* SetPVectorToLine */
SRP0[ ]	/* SetRefPoint0 */
SFVTL[0]	/* SetFVectorToLine */
MDRP[01001]	/* MoveDirectRelPt */
SPVTL[1]	/* SetPVectorToLine */
SRP0[ ]	/* SetRefPoint0 */
SFVTL[0]	/* SetFVectorToLine */
MDRP[01001]	/* MoveDirectRelPt */
SPVTL[1]	/* SetPVectorToLine */
SRP0[ ]	/* SetRefPoint0 */
SFVTCA[1]	/* SetFVectorToAxis */
MDRP[01001]	/* MoveDirectRelPt */
EIF[ ]	/* EndIf */
CLEAR[ ]	/* ClearStack */
SVTCA[1]	/* SetFreedomAndProjectionVectorToAxis */
NPUSHB[ ]	/* 14 values pushed */
0 0 0 0 2 10 1 10 3 5 4 4 6 4
DELTAP1[ ]	/* DeltaExceptionP1 */
SVTCA[0]	/* SetFreedomAndProjectionVectorToAxis */
DELTAP1[ ]	/* DeltaExceptionP1 */";
};
width = 1233;
}
);
note = V;
unicode = 86;
},
{
glyphname = W;
layers = (
{
anchors = (
{
name = topright;
pos = (616,1493);
}
);
layerId = m01;
shapes = (
{
closed = 1;
nodes = (
(457,0,l),
(616,784,l),
(786,0,l),
(1061,0,l),
(1233,1493,l),
(973,1493,l),
(889,397,l),
(739,1106,l),
(494,1106,l),
(365,397,l),
(258,1493,l),
(0,1493,l),
(184,0,l)
);
}
);
userData = {
assembly = "NPUSHB[ ]	/* 64 values pushed */
5 6 5 9 10 9 4 10 9 3 10 11 10 2 1 2 11 11 10 6 7 8 7 5 4 5 8 8 7 2 3 2 12 0 12 1 0 12 37 10 5 2 3 8 3 6 0 100 11 8 12 11 10 9 8 6 5 4 3 2 1 11 7 0
MDAP[1]	/* MoveDirectAbsPt */
MDRP[01100]	/* MoveDirectRelPt */
SLOOP[ ]	/* SetLoopVariable */
IP[ ]	/* InterpolatePts */
IUP[1]	/* InterpolateUntPts */
SVTCA[0]	/* SetFreedomAndProjectionVectorToAxis */
MDAP[1]	/* MoveDirectAbsPt */
ALIGNRP[ ]	/* AlignRelativePt */
MIRP[10100]	/* MoveIndirectRelPt */
ALIGNRP[ ]	/* AlignRelativePt */
MDRP[00100]	/* MoveDirectRelPt */
SRP1[ ]	/* SetRefPoint1 */
SLOOP[ ]	/* SetLoopVariable */
IP[ ]	/* InterpolatePts */
IUP[0]	/* InterpolateUntPts */
MPPEM[ ]	/* MeasurePixelPerEm */
GTEQ[ ]	/* GreaterThanOrEqual */
IF[ ]	/* If */
SPVTL[1]	/* SetPVectorToLine */
SFVTCA[1]	/* SetFVectorToAxis */
MDRP[01001]	/* MoveDirectRelPt */
SPVTL[1]	/* SetPVectorToLine */
SRP0[ ]	/* SetRefPoint0 */
SFVTL[0]	/* SetFVectorToLine */
MDRP[01001]	/* MoveDirectRelPt */
SPVTL[1]	/* SetPVectorToLine */
SRP0[ ]	/* SetRefPoint0 */
SFVTL[0]	/* SetFVectorToLine */
MDRP[01001]	/* MoveDirectRelPt */
SPVTL[1]	/* SetPVectorToLine */
SRP0[ ]	/* SetRefPoint0 */
SFVTCA[1]	/* SetFVectorToAxis */
MDRP[01001]	/* MoveDirectRelPt */
SPVTL[1]	/* SetPVectorToLine */
SRP0[ ]	/* SetRefPoint0 */
SFVTL[0]	/* SetFVectorToLine */
MDRP[01001]	/* MoveDirectRelPt */
SPVTL[1]	/* SetPVectorToLine */
SRP0[ ]	/* SetRefPoint0 */
SFVTCA[1]	/* SetFVectorToAxis */
MDRP[01001]	/* MoveDirectRelPt */
SPVTL[1]	/* SetPVectorToLine */
SFVTCA[1]	/* SetFVectorToAxis */
MDRP[01001]	/* MoveDirectRelPt */
SPVTL[1]	/* SetPVectorToLine */
SRP0[ ]	/* SetRefPoint0 */
SFVTL[0]	/* SetFVectorToLine */
MDRP[01001]	/* MoveDirectRelPt */
EIF[ ]	/* EndIf */
CLEAR[ ]	/* ClearStack */
PUSHB[ ]	/* 3 values pushed */
135 5 1
SVTCA[1]	/* SetFreedomAndProjectionVectorToAxis */
DELTAP1[ ]	/* DeltaExceptionP1 */
NPUSHB[ ]	/* 54 values pushed */
31 3 31 4 102 2 101 10 143 10 5 23 2 25 9 22 11 41 1 38 6 103 2 104 8 106 9 102 11 103 12 119 1 122 2 115 5 120 6 135 1 136 2 138 3 134 4 134 5 137 6 135 8 21
DELTAP1[ ]	/* DeltaExceptionP1 */
SVTCA[0]	/* SetFreedomAndProjectionVectorToAxis */
DELTAP1[ ]	/* DeltaExceptionP1 */";
};
width = 1233;
}
);
note = W;
unicode = 87;
},
{
glyphname = X;
layers = (
{
anchors = (
{
name = topright;
pos = (616,1493);
}
);
layerId = m01;
shapes = (
{
closed = 1;
nodes = (
(1194,1493,l),
(889,1493,l),
(616,1018,l),
(344,1493,l),
(39,1493,l),
(465,758,l),
(27,0,l),
(332,0,l),
(616,494,l),
(901,0,l),
(1206,0,l),
(770,758,l)
);
}
);
userData = {
assembly = "NPUSHB[ ]	/* 67 values pushed */
3 4 5 4 2 1 2 5 5 4 2 3 2 11 0 11 1 0 0 11 9 10 11 10 8 7 8 11 11 10 8 9 8 5 6 5 7 6 6 5 37 8 5 2 3 9 6 100 3 0 11 9 8 7 5 3 2 1 8 6 10 0 27 6 4 24 12
SRP0[ ]	/* SetRefPoint0 */
MIRP[10100]	/* MoveIndirectRelPt */
MPPEM[ ]	/* MeasurePixelPerEm */
PUSHB[ ]	/* 1 value pushed */
8
GTEQ[ ]	/* GreaterThanOrEqual */
MPPEM[ ]	/* MeasurePixelPerEm */
PUSHB[ ]	/* 1 value pushed */
10
LTEQ[ ]	/* LessThenOrEqual */
AND[ ]	/* LogicalAnd */
IF[ ]	/* If */
PUSHW[ ]	/* 2 values pushed */
4 64
SHPIX[ ]	/* ShiftZoneByPixel */
EIF[ ]	/* EndIf */
MDRP[00100]	/* MoveDirectRelPt */
MIRP[11100]	/* MoveIndirectRelPt */
MDRP[00100]	/* MoveDirectRelPt */
SRP1[ ]	/* SetRefPoint1 */
SLOOP[ ]	/* SetLoopVariable */
IP[ ]	/* InterpolatePts */
IUP[1]	/* InterpolateUntPts */
SVTCA[0]	/* SetFreedomAndProjectionVectorToAxis */
MDAP[1]	/* MoveDirectAbsPt */
ALIGNRP[ ]	/* AlignRelativePt */
MIRP[00100]	/* MoveIndirectRelPt */
SHP[0]	/* ShiftPointByLastPoint */
SLOOP[ ]	/* SetLoopVariable */
IP[ ]	/* InterpolatePts */
IUP[0]	/* InterpolateUntPts */
MPPEM[ ]	/* MeasurePixelPerEm */
GTEQ[ ]	/* GreaterThanOrEqual */
IF[ ]	/* If */
SPVTL[1]	/* SetPVectorToLine */
SRP0[ ]	/* SetRefPoint0 */
SFVTCA[1]	/* SetFVectorToAxis */
MDRP[01001]	/* MoveDirectRelPt */
SPVTL[1]	/* SetPVectorToLine */
SRP0[ ]	/* SetRefPoint0 */
SFVTL[0]	/* SetFVectorToLine */
MDRP[01001]	/* MoveDirectRelPt */
SPVTL[1]	/* SetPVectorToLine */
SRP0[ ]	/* SetRefPoint0 */
SFVTL[0]	/* SetFVectorToLine */
MDRP[01001]	/* MoveDirectRelPt */
SPVTL[1]	/* SetPVectorToLine */
SRP0[ ]	/* SetRefPoint0 */
SFVTCA[1]	/* SetFVectorToAxis */
MDRP[01001]	/* MoveDirectRelPt */
SPVTL[1]	/* SetPVectorToLine */
SRP0[ ]	/* SetRefPoint0 */
SFVTCA[1]	/* SetFVectorToAxis */
MDRP[01001]	/* MoveDirectRelPt */
SPVTL[1]	/* SetPVectorToLine */
SRP0[ ]	/* SetRefPoint0 */
SFVTL[0]	/* SetFVectorToLine */
MDRP[01001]	/* MoveDirectRelPt */
SPVTL[1]	/* SetPVectorToLine */
SRP0[ ]	/* SetRefPoint0 */
SFVTL[0]	/* SetFVectorToLine */
MDRP[01001]	/* MoveDirectRelPt */
SPVTL[1]	/* SetPVectorToLine */
SRP0[ ]	/* SetRefPoint0 */
SFVTCA[1]	/* SetFVectorToAxis */
MDRP[01001]	/* MoveDirectRelPt */
EIF[ ]	/* EndIf */
CLEAR[ ]	/* ClearStack */
SVTCA[1]	/* SetFreedomAndProjectionVectorToAxis */
NPUSHB[ ]	/* 18 values pushed */
15 2 0 8 2 10 1 5 3 4 5 4 7 11 9 10 11 6
DELTAP1[ ]	/* DeltaExceptionP1 */
SVTCA[0]	/* SetFreedomAndProjectionVectorToAxis */
DELTAP1[ ]	/* DeltaExceptionP1 */";
};
width = 1233;
}
);
note = X;
unicode = 88;
},
{
glyphname = Y;
layers = (
{
anchors = (
{
name = topright;
pos = (616,1493);
}
);
layerId = m01;
shapes = (
{
closed = 1;
nodes = (
(469,0,l),
(764,0,l),
(764,588,l),
(1225,1493,l),
(907,1493,l),
(616,893,l),
(326,1493,l),
(8,1493,l),
(469,588,l)
);
}
);
userData = {
assembly = "NPUSHB[ ]	/* 40 values pushed */
3 4 5 4 2 1 2 5 5 4 2 3 2 8 0 8 1 0 0 8 37 2 3 0 100 6 2 7 3 5 4 1 7 0 4 5 15 0 7 9
SRP0[ ]	/* SetRefPoint0 */
MDRP[10100]	/* MoveDirectRelPt */
MDRP[00100]	/* MoveDirectRelPt */
MIRP[11100]	/* MoveIndirectRelPt */
MDRP[00100]	/* MoveDirectRelPt */
SRP1[ ]	/* SetRefPoint1 */
SRP2[ ]	/* SetRefPoint2 */
IP[ ]	/* InterpolatePts */
SRP1[ ]	/* SetRefPoint1 */
SRP2[ ]	/* SetRefPoint2 */
IP[ ]	/* InterpolatePts */
SRP1[ ]	/* SetRefPoint1 */
IP[ ]	/* InterpolatePts */
IUP[1]	/* InterpolateUntPts */
SVTCA[0]	/* SetFreedomAndProjectionVectorToAxis */
MDAP[1]	/* MoveDirectAbsPt */
MIRP[00100]	/* MoveIndirectRelPt */
SHP[0]	/* ShiftPointByLastPoint */
IP[ ]	/* InterpolatePts */
IUP[0]	/* InterpolateUntPts */
MPPEM[ ]	/* MeasurePixelPerEm */
GTEQ[ ]	/* GreaterThanOrEqual */
IF[ ]	/* If */
SPVTL[1]	/* SetPVectorToLine */
SRP0[ ]	/* SetRefPoint0 */
SFVTCA[1]	/* SetFVectorToAxis */
MDRP[01001]	/* MoveDirectRelPt */
SPVTL[1]	/* SetPVectorToLine */
SRP0[ ]	/* SetRefPoint0 */
SFVTL[0]	/* SetFVectorToLine */
MDRP[01001]	/* MoveDirectRelPt */
SPVTL[1]	/* SetPVectorToLine */
SRP0[ ]	/* SetRefPoint0 */
SFVTL[0]	/* SetFVectorToLine */
MDRP[01001]	/* MoveDirectRelPt */
SPVTL[1]	/* SetPVectorToLine */
SRP0[ ]	/* SetRefPoint0 */
SFVTCA[1]	/* SetFVectorToAxis */
MDRP[01001]	/* MoveDirectRelPt */
EIF[ ]	/* EndIf */
CLEAR[ ]	/* ClearStack */";
};
width = 1233;
}
);
note = Y;
unicode = 89;
},
{
glyphname = Z;
layers = (
{
anchors = (
{
name = topright;
pos = (666,1493);
}
);
layerId = m01;
shapes = (
{
closed = 1;
nodes = (
(786,1233,l),
(115,244,l),
(115,0,l),
(1161,0,l),
(1161,260,l),
(455,260,l),
(1147,1249,l),
(1147,1493,l),
(137,1493,l),
(137,1233,l)
);
}
);
userData = {
assembly = "NPUSHB[ ]	/* 26 values pushed */
3 7 8 7 8 2 3 2 37 8 112 0 100 3 112 5 8 3 0 1 4 30 0 6 29 10
SRP0[ ]	/* SetRefPoint0 */
MIRP[11100]	/* MoveIndirectRelPt */
MDRP[00100]	/* MoveDirectRelPt */
MIRP[11100]	/* MoveIndirectRelPt */
MDRP[00100]	/* MoveDirectRelPt */
SRP1[ ]	/* SetRefPoint1 */
IP[ ]	/* InterpolatePts */
IP[ ]	/* InterpolatePts */
IUP[1]	/* InterpolateUntPts */
SVTCA[0]	/* SetFreedomAndProjectionVectorToAxis */
MDAP[1]	/* MoveDirectAbsPt */
MIRP[01100]	/* MoveIndirectRelPt */
MIRP[10100]	/* MoveIndirectRelPt */
MIRP[01100]	/* MoveIndirectRelPt */
IUP[0]	/* InterpolateUntPts */
MPPEM[ ]	/* MeasurePixelPerEm */
GTEQ[ ]	/* GreaterThanOrEqual */
IF[ ]	/* If */
SPVTL[1]	/* SetPVectorToLine */
SRP0[ ]	/* SetRefPoint0 */
SFVTCA[1]	/* SetFVectorToAxis */
MDRP[01001]	/* MoveDirectRelPt */
SPVTL[1]	/* SetPVectorToLine */
SRP0[ ]	/* SetRefPoint0 */
SFVTCA[1]	/* SetFVectorToAxis */
MDRP[01001]	/* MoveDirectRelPt */
EIF[ ]	/* EndIf */
CLEAR[ ]	/* ClearStack */";
};
width = 1233;
}
);
note = Z;
unicode = 90;
},
{
glyphname = bracketleft;
layers = (
{
layerId = m01;
shapes = (
{
closed = 1;
nodes = (
(930,-270,l),
(930,-80,l),
(688,-80,l),
(688,1366,l),
(930,1366,l),
(930,1556,l),
(422,1556,l),
(422,-270,l)
);
}
);
userData = {
assembly = "NPUSHB[ ]	/* 18 values pushed */
4 130 6 117 2 130 0 116 8 6 5 2 1 3 3 1 0 8
SRP0[ ]	/* SetRefPoint0 */
MDRP[10100]	/* MoveDirectRelPt */
MIRP[01100]	/* MoveIndirectRelPt */
SRP0[ ]	/* SetRefPoint0 */
MDRP[00000]	/* MoveDirectRelPt */
MDRP[00000]	/* MoveDirectRelPt */
MDRP[00000]	/* MoveDirectRelPt */
MDRP[00000]	/* MoveDirectRelPt */
IUP[1]	/* InterpolateUntPts */
SVTCA[0]	/* SetFreedomAndProjectionVectorToAxis */
SRP0[ ]	/* SetRefPoint0 */
MIRP[11100]	/* MoveIndirectRelPt */
MIRP[01100]	/* MoveIndirectRelPt */
MIRP[11100]	/* MoveIndirectRelPt */
MIRP[01100]	/* MoveIndirectRelPt */
IUP[0]	/* InterpolateUntPts */";
};
width = 1233;
}
);
note = bracketleft;
unicode = 91;
},
{
glyphname = backslash;
layers = (
{
layerId = m01;
shapes = (
{
closed = 1;
nodes = (
(897,-190,l),
(1120,-190,l),
(334,1493,l),
(111,1493,l)
);
}
);
userData = {
assembly = "NPUSHB[ ]	/* 9 values pushed */
1 0 100 4 2 0 1 3 4
SRP0[ ]	/* SetRefPoint0 */
MDRP[10100]	/* MoveDirectRelPt */
MDRP[01100]	/* MoveDirectRelPt */
IP[ ]	/* InterpolatePts */
IP[ ]	/* InterpolatePts */
IUP[1]	/* InterpolateUntPts */
SVTCA[0]	/* SetFreedomAndProjectionVectorToAxis */
SRP0[ ]	/* SetRefPoint0 */
MIRP[10100]	/* MoveIndirectRelPt */
MDRP[01100]	/* MoveDirectRelPt */
IUP[0]	/* InterpolateUntPts */";
};
width = 1233;
}
);
note = backslash;
unicode = 92;
},
{
glyphname = bracketright;
layers = (
{
layerId = m01;
shapes = (
{
closed = 1;
nodes = (
(303,1366,l),
(545,1366,l),
(545,-80,l),
(303,-80,l),
(303,-270,l),
(811,-270,l),
(811,1556,l),
(303,1556,l)
);
}
);
userData = {
assembly = "NPUSHB[ ]	/* 16 values pushed */
3 130 1 117 5 130 0 116 8 6 2 8 0 1 4 8
SRP0[ ]	/* SetRefPoint0 */
MDRP[10100]	/* MoveDirectRelPt */
MIRP[01100]	/* MoveIndirectRelPt */
SRP2[ ]	/* SetRefPoint2 */
IP[ ]	/* InterpolatePts */
IP[ ]	/* InterpolatePts */
IUP[1]	/* InterpolateUntPts */
SVTCA[0]	/* SetFreedomAndProjectionVectorToAxis */
SRP0[ ]	/* SetRefPoint0 */
MIRP[11100]	/* MoveIndirectRelPt */
MIRP[01100]	/* MoveIndirectRelPt */
MIRP[11100]	/* MoveIndirectRelPt */
MIRP[01100]	/* MoveIndirectRelPt */
IUP[0]	/* InterpolateUntPts */";
};
width = 1233;
}
);
note = bracketright;
unicode = 93;
},
{
glyphname = asciicircum;
layers = (
{
layerId = m01;
shapes = (
{
closed = 1;
nodes = (
(57,936,l),
(299,936,l),
(616,1237,l),
(934,936,l),
(1176,936,l),
(739,1493,l),
(494,1493,l)
);
}
);
userData = {
assembly = "NPUSHB[ ]	/* 10 values pushed */
3 4 1 0 100 7 3 1 5 7
SRP0[ ]	/* SetRefPoint0 */
MDRP[10100]	/* MoveDirectRelPt */
MDRP[01100]	/* MoveDirectRelPt */
IP[ ]	/* InterpolatePts */
IUP[1]	/* InterpolateUntPts */
SVTCA[0]	/* SetFreedomAndProjectionVectorToAxis */
SRP0[ ]	/* SetRefPoint0 */
MIRP[10100]	/* MoveIndirectRelPt */
MDRP[01100]	/* MoveDirectRelPt */
SHP[0]	/* ShiftPointByLastPoint */
IP[ ]	/* InterpolatePts */
IUP[0]	/* InterpolateUntPts */";
};
width = 1233;
}
);
note = asciicircum;
unicode = 94;
},
{
glyphname = underscore;
lastChange = "2026-05-10 20:08:43 +0000";
layers = (
{
layerId = m01;
shapes = (
{
closed = 1;
nodes = (
(0,-357,l),
(1233,-357,l),
(1233,-119,l),
(0,-119,l)
);
}
);
userData = {
assembly = "PUSHB[ ]	/* 6 values pushed */
0 130 1 4 0 2
MDAP[1]	/* MoveDirectAbsPt */
MDRP[01100]	/* MoveDirectRelPt */
IUP[1]	/* InterpolateUntPts */
SVTCA[0]	/* SetFreedomAndProjectionVectorToAxis */
SRP0[ ]	/* SetRefPoint0 */
MDRP[10100]	/* MoveDirectRelPt */
MIRP[01100]	/* MoveIndirectRelPt */
IUP[0]	/* InterpolateUntPts */";
};
width = 1233;
}
);
note = underscore;
unicode = 95;
},
{
glyphname = grave;
layers = (
{
layerId = m01;
shapes = (
{
closed = 1;
nodes = (
(567,1262,l),
(764,1262,l),
(481,1638,l),
(199,1638,l)
);
}
);
userData = {
assembly = "PUSHB[ ]	/* 7 values pushed */
1 0 131 4 1 3 4
SRP0[ ]	/* SetRefPoint0 */
MDRP[10100]	/* MoveDirectRelPt */
MDRP[01100]	/* MoveDirectRelPt */
IUP[1]	/* InterpolateUntPts */
SVTCA[0]	/* SetFreedomAndProjectionVectorToAxis */
SRP0[ ]	/* SetRefPoint0 */
MIRP[10100]	/* MoveIndirectRelPt */
MPPEM[ ]	/* MeasurePixelPerEm */
PUSHB[ ]	/* 1 value pushed */
9
EQ[ ]	/* Equal */
MPPEM[ ]	/* MeasurePixelPerEm */
PUSHB[ ]	/* 1 value pushed */
14
EQ[ ]	/* Equal */
OR[ ]	/* LogicalOr */
IF[ ]	/* If */
PUSHW[ ]	/* 2 values pushed */
0 64
SHPIX[ ]	/* ShiftZoneByPixel */
EIF[ ]	/* EndIf */
MDRP[01100]	/* MoveDirectRelPt */
IUP[0]	/* InterpolateUntPts */";
};
width = 1233;
}
);
note = grave;
unicode = 96;
},
{
glyphname = a;
layers = (
{
anchors = (
{
name = topright;
pos = (616,1120);
}
);
layerId = m01;
shapes = (
{
closed = 1;
nodes = (
(817,506,ls),
(817,349,o),
(689,174,o),
(573,174,qs),
(496,174,o),
(406,264,o),
(406,340,qs),
(406,442,o),
(536,526,o),
(700,526,qs),
(817,526,l)
);
},
{
closed = 1;
nodes = (
(887,1147,o),
(614,1147,qs),
(502,1147,o),
(302,1109,o),
(205,1069,q),
(205,819,l),
(312,877,o),
(509,930,o),
(614,930,qs),
(714,930,o),
(817,857,o),
(817,786,qs),
(817,737,l),
(614,737,ls),
(348,737,o),
(94,550,o),
(94,354,qs),
(94,173,o),
(307,-29,o),
(498,-29,qs),
(598,-29,o),
(764,51,o),
(817,125,q),
(817,0,l),
(1108,0,l),
(1108,639,ls),
(1108,925,o)
);
}
);
userData = {
assembly = "NPUSHB[ ]	/* 47 values pushed */
9 6 0 25 31 23 14 12 6 11 0 103 23 6 103 17 31 104 32 138 28 103 35 137 17 114 23 133 12 0 35 28 23 3 3 24 13 9 22 11 46 31 3 22 20 41 38
SRP0[ ]	/* SetRefPoint0 */
MIRP[11100]	/* MoveIndirectRelPt */
MIRP[01100]	/* MoveIndirectRelPt */
MDRP[01100]	/* MoveDirectRelPt */
MIRP[11100]	/* MoveIndirectRelPt */
MIRP[01100]	/* MoveIndirectRelPt */
SHP[0]	/* ShiftPointByLastPoint */
SHP[0]	/* ShiftPointByLastPoint */
SRP1[ ]	/* SetRefPoint1 */
SLOOP[ ]	/* SetLoopVariable */
IP[ ]	/* InterpolatePts */
IP[ ]	/* InterpolatePts */
IUP[1]	/* InterpolateUntPts */
SVTCA[0]	/* SetFreedomAndProjectionVectorToAxis */
MDAP[1]	/* MoveDirectAbsPt */
MIRP[00100]	/* MoveIndirectRelPt */
MIRP[00100]	/* MoveIndirectRelPt */
MIRP[10100]	/* MoveIndirectRelPt */
MIRP[01100]	/* MoveIndirectRelPt */
MIRP[10100]	/* MoveIndirectRelPt */
MIRP[01100]	/* MoveIndirectRelPt */
SRP0[ ]	/* SetRefPoint0 */
MIRP[01110]	/* MoveIndirectRelPt */
SRP0[ ]	/* SetRefPoint0 */
MIRP[01110]	/* MoveIndirectRelPt */
IP[ ]	/* InterpolatePts */
SRP1[ ]	/* SetRefPoint1 */
SRP2[ ]	/* SetRefPoint2 */
IP[ ]	/* InterpolatePts */
SRP1[ ]	/* SetRefPoint1 */
SRP2[ ]	/* SetRefPoint2 */
IP[ ]	/* InterpolatePts */
SRP1[ ]	/* SetRefPoint1 */
SRP2[ ]	/* SetRefPoint2 */
IP[ ]	/* InterpolatePts */
IUP[0]	/* InterpolateUntPts */
NPUSHB[ ]	/* 45 values pushed */
52 30 48 31 48 32 52 33 117 2 114 21 114 22 136 0 136 1 136 10 129 21 129 22 160 0 160 1 160 9 160 10 166 20 166 21 160 21 160 22 160 23 160 24 22
DELTAP1[ ]	/* DeltaExceptionP1 */";
};
width = 1233;
}
);
note = a;
unicode = 97;
},
{
glyphname = b;
layers = (
{
anchors = (
{
name = topright;
pos = (616,1556);
}
);
layerId = m01;
shapes = (
{
closed = 1;
nodes = (
(742,211,o),
(647,211,qs),
(552,211,o),
(442,395,o),
(442,557,qs),
(442,719,o),
(552,903,o),
(647,903,qs),
(742,903,o),
(850,719,o),
(850,557,qs),
(850,395,o)
);
},
{
closed = 1;
nodes = (
(150,1556,l),
(150,0,l),
(442,0,l),
(442,166,l),
(488,69,o),
(638,-29,o),
(739,-29,qs),
(931,-29,o),
(1143,279,o),
(1143,559,qs),
(1143,843,o),
(928,1147,o),
(729,1147,qs),
(639,1147,o),
(496,1054,o),
(442,961,q),
(442,1556,l)
);
}
);
userData = {
assembly = "NPUSHB[ ]	/* 29 values pushed */
12 15 3 24 25 9 3 104 15 9 104 21 114 15 137 27 116 25 0 22 18 50 24 12 6 22 26 48 29
SRP0[ ]	/* SetRefPoint0 */
MIRP[11100]	/* MoveIndirectRelPt */
MIRP[01100]	/* MoveIndirectRelPt */
SHP[0]	/* ShiftPointByLastPoint */
SHP[0]	/* ShiftPointByLastPoint */
MIRP[11100]	/* MoveIndirectRelPt */
MIRP[01100]	/* MoveIndirectRelPt */
IUP[1]	/* InterpolateUntPts */
SVTCA[0]	/* SetFreedomAndProjectionVectorToAxis */
MDAP[1]	/* MoveDirectAbsPt */
MIRP[01100]	/* MoveIndirectRelPt */
MIRP[00100]	/* MoveIndirectRelPt */
MIRP[10100]	/* MoveIndirectRelPt */
MIRP[01100]	/* MoveIndirectRelPt */
SRP0[ ]	/* SetRefPoint0 */
MIRP[01110]	/* MoveIndirectRelPt */
SRP1[ ]	/* SetRefPoint1 */
SRP2[ ]	/* SetRefPoint2 */
IP[ ]	/* InterpolatePts */
SRP1[ ]	/* SetRefPoint1 */
SRP2[ ]	/* SetRefPoint2 */
IP[ ]	/* InterpolatePts */
IUP[0]	/* InterpolateUntPts */";
};
width = 1233;
}
);
note = b;
unicode = 98;
},
{
glyphname = c;
layers = (
{
anchors = (
{
name = topright;
pos = (691,1120);
}
);
layerId = m01;
shapes = (
{
closed = 1;
nodes = (
(995,268,o),
(847,211,o),
(762,211,qs),
(619,211,o),
(465,391,o),
(465,559,qs),
(465,727,o),
(619,909,o),
(762,909,qs),
(844,909,o),
(997,850,o),
(1061,795,q),
(1061,1063,l),
(978,1107,o),
(811,1149,o),
(721,1149,qs),
(462,1149,o),
(168,836,o),
(168,559,qs),
(168,283,o),
(460,-29,o),
(719,-29,qs),
(817,-29,o),
(987,14,o),
(1061,57,q),
(1061,326,l)
);
}
);
userData = {
assembly = "NPUSHB[ ]	/* 26 values pushed */
25 139 0 121 22 104 3 13 139 12 121 16 104 9 137 3 114 26 19 22 12 0 55 6 53 26
SRP0[ ]	/* SetRefPoint0 */
MIRP[11100]	/* MoveIndirectRelPt */
MIRP[01100]	/* MoveIndirectRelPt */
SHP[0]	/* ShiftPointByLastPoint */
MIRP[01100]	/* MoveIndirectRelPt */
IUP[1]	/* InterpolateUntPts */
SVTCA[0]	/* SetFreedomAndProjectionVectorToAxis */
SRP0[ ]	/* SetRefPoint0 */
MIRP[00100]	/* MoveIndirectRelPt */
MIRP[10100]	/* MoveIndirectRelPt */
MIRP[01100]	/* MoveIndirectRelPt */
MIRP[10100]	/* MoveIndirectRelPt */
MIRP[01100]	/* MoveIndirectRelPt */
SRP0[ ]	/* SetRefPoint0 */
MIRP[01110]	/* MoveIndirectRelPt */
MIRP[10110]	/* MoveIndirectRelPt */
MIRP[01110]	/* MoveIndirectRelPt */
IUP[0]	/* InterpolateUntPts */";
};
width = 1233;
}
);
note = c;
unicode = 99;
},
{
glyphname = d;
layers = (
{
anchors = (
{
name = topright;
pos = (616,1556);
}
);
layerId = m01;
shapes = (
{
closed = 1;
nodes = (
(594,1147,o),
(504,1147,qs),
(305,1147,o),
(90,843,o),
(90,559,qs),
(90,279,o),
(302,-29,o),
(494,-29,qs),
(595,-29,o),
(744,69,o),
(791,166,q),
(791,0,l),
(1083,0,l),
(1083,1556,l),
(791,1556,l),
(791,961,l),
(737,1054,o)
);
},
{
closed = 1;
nodes = (
(491,903,o),
(586,903,qs),
(681,903,o),
(791,719,o),
(791,557,qs),
(791,395,o),
(681,211,o),
(586,211,qs),
(491,211,o),
(383,395,o),
(383,557,qs),
(383,719,o)
);
}
);
userData = {
assembly = "NPUSHB[ ]	/* 29 values pushed */
0 26 14 5 20 3 26 104 14 20 104 8 114 14 137 1 116 3 23 4 0 22 2 50 17 22 11 41 29
SRP0[ ]	/* SetRefPoint0 */
MIRP[11100]	/* MoveIndirectRelPt */
MIRP[01100]	/* MoveIndirectRelPt */
MIRP[11100]	/* MoveIndirectRelPt */
MIRP[01100]	/* MoveIndirectRelPt */
SHP[0]	/* ShiftPointByLastPoint */
SHP[0]	/* ShiftPointByLastPoint */
IUP[1]	/* InterpolateUntPts */
SVTCA[0]	/* SetFreedomAndProjectionVectorToAxis */
MDAP[1]	/* MoveDirectAbsPt */
MIRP[01100]	/* MoveIndirectRelPt */
MIRP[00100]	/* MoveIndirectRelPt */
MIRP[10100]	/* MoveIndirectRelPt */
MIRP[01100]	/* MoveIndirectRelPt */
SRP0[ ]	/* SetRefPoint0 */
MIRP[01110]	/* MoveIndirectRelPt */
SRP1[ ]	/* SetRefPoint1 */
SRP2[ ]	/* SetRefPoint2 */
IP[ ]	/* InterpolatePts */
SRP1[ ]	/* SetRefPoint1 */
SRP2[ ]	/* SetRefPoint2 */
IP[ ]	/* InterpolatePts */
IUP[0]	/* InterpolateUntPts */";
};
width = 1233;
}
);
note = d;
unicode = 100;
},
{
glyphname = e;
layers = (
{
anchors = (
{
name = topright;
pos = (615,1120);
}
);
layerId = m01;
shapes = (
{
closed = 1;
nodes = (
(995,261,o),
(799,203,o),
(698,203,qs),
(545,203,o),
(391,333,o),
(390,465,q),
(1149,465,l),
(1149,584,ls),
(1149,852,o),
(874,1147,o),
(625,1147,qs),
(378,1147,o),
(92,829,o),
(92,555,qs),
(92,272,o),
(389,-29,o),
(670,-29,qs),
(788,-29,o),
(1000,13,o),
(1102,55,q),
(1102,324,l)
);
},
{
closed = 1;
nodes = (
(404,797,o),
(524,920,o),
(625,920,qs),
(737,920,o),
(852,801,o),
(854,685,q),
(393,684,l)
);
}
);
userData = {
assembly = "NPUSHB[ ]	/* 35 values pushed */
12 21 13 20 139 0 21 143 13 17 104 0 121 3 13 142 24 104 9 137 3 114 28 21 22 0 12 46 14 22 27 22 6 41 28
SRP0[ ]	/* SetRefPoint0 */
MIRP[11100]	/* MoveIndirectRelPt */
MIRP[01100]	/* MoveIndirectRelPt */
MIRP[01100]	/* MoveIndirectRelPt */
MIRP[11100]	/* MoveIndirectRelPt */
MDRP[00100]	/* MoveDirectRelPt */
MIRP[01100]	/* MoveIndirectRelPt */
IUP[1]	/* InterpolateUntPts */
SVTCA[0]	/* SetFreedomAndProjectionVectorToAxis */
SRP0[ ]	/* SetRefPoint0 */
MIRP[00100]	/* MoveIndirectRelPt */
MIRP[10100]	/* MoveIndirectRelPt */
MIRP[01100]	/* MoveIndirectRelPt */
MIRP[01100]	/* MoveIndirectRelPt */
SRP0[ ]	/* SetRefPoint0 */
MIRP[00110]	/* MoveIndirectRelPt */
MIRP[01110]	/* MoveIndirectRelPt */
SRP0[ ]	/* SetRefPoint0 */
MIRP[01110]	/* MoveIndirectRelPt */
SRP0[ ]	/* SetRefPoint0 */
MIRP[01110]	/* MoveIndirectRelPt */
SRP1[ ]	/* SetRefPoint1 */
SRP2[ ]	/* SetRefPoint2 */
IP[ ]	/* InterpolatePts */
IUP[0]	/* InterpolateUntPts */
NPUSHB[ ]	/* 11 values pushed */
207 12 207 13 207 14 207 21 207 27 5
DELTAP1[ ]	/* DeltaExceptionP1 */";
};
width = 1233;
}
);
note = e;
unicode = 101;
},
{
glyphname = f;
layers = (
{
anchors = (
{
name = topright;
pos = (616,1556);
}
);
layerId = m01;
shapes = (
{
closed = 1;
nodes = (
(788,1331,o),
(854,1331,qs),
(1083,1331,l),
(1083,1556,l),
(842,1556,ls),
(614,1556,o),
(446,1400,o),
(446,1198,qs),
(446,1120,l),
(174,1120,l),
(174,895,l),
(446,895,l),
(446,0,l),
(739,0,l),
(739,895,l),
(1083,895,l),
(1083,1120,l),
(739,1120,l),
(739,1218,ls),
(741,1283,o)
);
}
);
userData = {
assembly = "NPUSHB[ ]	/* 26 values pushed */
0 11 16 7 3 143 1 16 143 14 116 9 1 144 5 17 14 15 2 4 0 22 8 10 6 20
SRP0[ ]	/* SetRefPoint0 */
MDRP[10100]	/* MoveDirectRelPt */
ALIGNRP[ ]	/* AlignRelativePt */
MDRP[00100]	/* MoveDirectRelPt */
MIRP[11100]	/* MoveIndirectRelPt */
ALIGNRP[ ]	/* AlignRelativePt */
MDRP[00100]	/* MoveDirectRelPt */
SHP[0]	/* ShiftPointByLastPoint */
IP[ ]	/* InterpolatePts */
IP[ ]	/* InterpolatePts */
IUP[1]	/* InterpolateUntPts */
SVTCA[0]	/* SetFreedomAndProjectionVectorToAxis */
MDAP[1]	/* MoveDirectAbsPt */
MIRP[00100]	/* MoveIndirectRelPt */
SHP[0]	/* ShiftPointByLastPoint */
MIRP[11100]	/* MoveIndirectRelPt */
MIRP[01100]	/* MoveIndirectRelPt */
SRP0[ ]	/* SetRefPoint0 */
MIRP[01110]	/* MoveIndirectRelPt */
SHP[0]	/* ShiftPointByLastPoint */
SRP2[ ]	/* SetRefPoint2 */
IP[ ]	/* InterpolatePts */
IP[ ]	/* InterpolatePts */
IUP[0]	/* InterpolateUntPts */";
};
width = 1233;
}
);
note = f;
unicode = 102;
},
{
glyphname = g;
layers = (
{
anchors = (
{
name = topright;
pos = (616,1120);
}
);
layerId = m01;
shapes = (
{
closed = 1;
nodes = (
(689,246,o),
(596,246,qs),
(504,246,o),
(391,426,o),
(391,578,qs),
(391,729,o),
(504,909,o),
(596,909,qs),
(689,909,o),
(803,728,o),
(803,578,qs),
(803,427,o)
);
},
{
closed = 1;
nodes = (
(803,1120,l),
(803,977,l),
(760,1059,o),
(610,1149,o),
(514,1149,qs),
(324,1149,o),
(98,837,o),
(98,571,qs),
(98,314,o),
(324,14,o),
(516,14,qs),
(618,14,o),
(760,92,o),
(803,172,q),
(803,51,ls),
(803,-73,o),
(685,-190,o),
(561,-190,qs),
(470,-190,o),
(298,-146,o),
(215,-100,q),
(215,-369,l),
(308,-397,o),
(488,-424,o),
(580,-424,qs),
(853,-424,o),
(1096,-185,o),
(1096,84,qs),
(1096,1120,l)
);
}
);
userData = {
assembly = "NPUSHB[ ]	/* 40 values pushed */
26 25 12 29 9 38 39 3 9 104 29 19 139 18 121 22 104 15 3 104 35 137 39 144 15 145 29 41 38 25 0 22 12 50 18 6 22 32 41 41
SRP0[ ]	/* SetRefPoint0 */
MIRP[11100]	/* MoveIndirectRelPt */
MIRP[01100]	/* MoveIndirectRelPt */
MDRP[00100]	/* MoveDirectRelPt */
MIRP[11100]	/* MoveIndirectRelPt */
MIRP[01100]	/* MoveIndirectRelPt */
SHP[0]	/* ShiftPointByLastPoint */
SHP[0]	/* ShiftPointByLastPoint */
IUP[1]	/* InterpolateUntPts */
SVTCA[0]	/* SetFreedomAndProjectionVectorToAxis */
SRP0[ ]	/* SetRefPoint0 */
MDRP[00100]	/* MoveDirectRelPt */
MIRP[00100]	/* MoveIndirectRelPt */
MIRP[00100]	/* MoveIndirectRelPt */
MIRP[10100]	/* MoveIndirectRelPt */
MIRP[01100]	/* MoveIndirectRelPt */
SRP0[ ]	/* SetRefPoint0 */
MIRP[01110]	/* MoveIndirectRelPt */
MIRP[10110]	/* MoveIndirectRelPt */
MIRP[01110]	/* MoveIndirectRelPt */
SRP0[ ]	/* SetRefPoint0 */
MIRP[01110]	/* MoveIndirectRelPt */
SRP1[ ]	/* SetRefPoint1 */
SRP2[ ]	/* SetRefPoint2 */
IP[ ]	/* InterpolatePts */
SRP1[ ]	/* SetRefPoint1 */
SRP2[ ]	/* SetRefPoint2 */
IP[ ]	/* InterpolatePts */
IP[ ]	/* InterpolatePts */
IP[ ]	/* InterpolatePts */
IUP[0]	/* InterpolateUntPts */";
};
width = 1233;
}
);
note = g;
unicode = 103;
},
{
glyphname = h;
layers = (
{
anchors = (
{
name = topright;
pos = (616,1556);
}
);
layerId = m01;
shapes = (
{
closed = 1;
nodes = (
(909,1147,o),
(750,1147,qs),
(644,1147,o),
(494,1045,o),
(463,952,q),
(463,1556,l),
(172,1556,l),
(172,0,l),
(463,0,l),
(463,641,ls),
(463,766,o),
(553,907,o),
(633,907,qs),
(711,907,o),
(780,803,o),
(780,682,qs),
(780,0,l),
(1071,0,l),
(1071,727,ls),
(1071,936,o)
);
}
);
userData = {
assembly = "NPUSHB[ ]	/* 24 values pushed */
14 17 9 3 0 1 6 104 17 137 12 116 10 1 2 22 0 55 13 9 22 11 53 20
SRP0[ ]	/* SetRefPoint0 */
MIRP[11100]	/* MoveIndirectRelPt */
MIRP[01100]	/* MoveIndirectRelPt */
SHP[0]	/* ShiftPointByLastPoint */
MIRP[11100]	/* MoveIndirectRelPt */
MIRP[01100]	/* MoveIndirectRelPt */
IUP[1]	/* InterpolateUntPts */
SVTCA[0]	/* SetFreedomAndProjectionVectorToAxis */
MDAP[1]	/* MoveDirectAbsPt */
ALIGNRP[ ]	/* AlignRelativePt */
MIRP[01100]	/* MoveIndirectRelPt */
MIRP[10100]	/* MoveIndirectRelPt */
MIRP[01100]	/* MoveIndirectRelPt */
SRP1[ ]	/* SetRefPoint1 */
IP[ ]	/* InterpolatePts */
IP[ ]	/* InterpolatePts */
IP[ ]	/* InterpolatePts */
SRP1[ ]	/* SetRefPoint1 */
IP[ ]	/* InterpolatePts */
IUP[0]	/* InterpolateUntPts */";
};
width = 1233;
}
);
note = h;
unicode = 104;
},
{
glyphname = i;
lastChange = "2026-05-10 19:55:40 +0000";
layers = (
{
layerId = m01;
shapes = (
{
closed = 1;
nodes = (
(143,1120,l),
(143,895,l),
(557,895,l),
(557,0,l),
(850,0,l),
(850,1120,l)
);
},
{
closed = 1;
nodes = (
(557,1665,l),
(557,1323,l),
(850,1323,l),
(850,1665,l)
);
}
);
userData = {
assembly = "NPUSHB[ ]	/* 21 values pushed */
12 10 8 143 0 144 6 2 143 10 115 4 3 11 1 22 5 0 10 7 14
SRP0[ ]	/* SetRefPoint0 */
MDRP[10100]	/* MoveDirectRelPt */
ALIGNRP[ ]	/* AlignRelativePt */
MDRP[00100]	/* MoveDirectRelPt */
MDRP[00100]	/* MoveDirectRelPt */
MIRP[11100]	/* MoveIndirectRelPt */
ALIGNRP[ ]	/* AlignRelativePt */
MDRP[00100]	/* MoveDirectRelPt */
IUP[1]	/* InterpolateUntPts */
SVTCA[0]	/* SetFreedomAndProjectionVectorToAxis */
MDAP[1]	/* MoveDirectAbsPt */
MIRP[01100]	/* MoveIndirectRelPt */
MIRP[01100]	/* MoveIndirectRelPt */
SHP[0]	/* ShiftPointByLastPoint */
MIRP[10100]	/* MoveIndirectRelPt */
MIRP[01100]	/* MoveIndirectRelPt */
SRP0[ ]	/* SetRefPoint0 */
MDRP[01110]	/* MoveDirectRelPt */
IUP[0]	/* InterpolateUntPts */";
};
width = 1233;
}
);
note = i;
unicode = 105;
},
{
glyphname = j;
layers = (
{
layerId = m01;
shapes = (
{
closed = 1;
nodes = (
(260,1120,l),
(260,895,l),
(557,895,l),
(557,43,ls),
(557,-89,o),
(475,-199,o),
(377,-199,qs),
(143,-199,l),
(143,-424,l),
(459,-424,ls),
(669,-424,o),
(850,-209,o),
(850,43,qs),
(850,1120,l)
);
},
{
closed = 1;
nodes = (
(557,1665,l),
(557,1323,l),
(850,1323,l),
(850,1665,l)
);
}
);
userData = {
assembly = "NPUSHB[ ]	/* 28 values pushed */
9 0 10 5 14 16 5 143 3 10 143 12 144 3 145 16 115 18 6 3 11 4 14 0 22 15 9 18
SRP0[ ]	/* SetRefPoint0 */
MDRP[10100]	/* MoveDirectRelPt */
ALIGNRP[ ]	/* AlignRelativePt */
MIRP[01100]	/* MoveIndirectRelPt */
SHP[0]	/* ShiftPointByLastPoint */
MDRP[00100]	/* MoveDirectRelPt */
MDRP[00100]	/* MoveDirectRelPt */
IP[ ]	/* InterpolatePts */
IP[ ]	/* InterpolatePts */
IUP[1]	/* InterpolateUntPts */
SVTCA[0]	/* SetFreedomAndProjectionVectorToAxis */
SRP0[ ]	/* SetRefPoint0 */
MIRP[01100]	/* MoveIndirectRelPt */
MIRP[00100]	/* MoveIndirectRelPt */
MIRP[10100]	/* MoveIndirectRelPt */
MIRP[01100]	/* MoveIndirectRelPt */
SRP0[ ]	/* SetRefPoint0 */
MIRP[01110]	/* MoveIndirectRelPt */
SRP0[ ]	/* SetRefPoint0 */
MDRP[01110]	/* MoveDirectRelPt */
SRP1[ ]	/* SetRefPoint1 */
SRP2[ ]	/* SetRefPoint2 */
IP[ ]	/* InterpolatePts */
IP[ ]	/* InterpolatePts */
IUP[0]	/* InterpolateUntPts */";
};
width = 1233;
}
);
note = j;
unicode = 106;
},
{
glyphname = k;
layers = (
{
anchors = (
{
name = topright;
pos = (666,1556);
}
);
layerId = m01;
shapes = (
{
closed = 1;
nodes = (
(467,0,l),
(467,428,l),
(567,524,l),
(874,0,l),
(1198,0,l),
(750,702,l),
(1174,1120,l),
(819,1120,l),
(467,739,l),
(467,1556,l),
(174,1556,l),
(174,0,l)
);
}
);
userData = {
assembly = "NPUSHB[ ]	/* 33 values pushed */
8 9 8 5 6 5 7 6 5 37 8 5 2 3 3 144 0 116 10 6 8 5 4 3 6 9 1 22 6 46 0 53 12
SRP0[ ]	/* SetRefPoint0 */
MIRP[11100]	/* MoveIndirectRelPt */
MIRP[01100]	/* MoveIndirectRelPt */
MIRP[01100]	/* MoveIndirectRelPt */
SHP[0]	/* ShiftPointByLastPoint */
SRP1[ ]	/* SetRefPoint1 */
SLOOP[ ]	/* SetLoopVariable */
IP[ ]	/* InterpolatePts */
IUP[1]	/* InterpolateUntPts */
SVTCA[0]	/* SetFreedomAndProjectionVectorToAxis */
MDAP[1]	/* MoveDirectAbsPt */
ALIGNRP[ ]	/* AlignRelativePt */
MIRP[01100]	/* MoveIndirectRelPt */
MIRP[00100]	/* MoveIndirectRelPt */
SLOOP[ ]	/* SetLoopVariable */
IP[ ]	/* InterpolatePts */
IUP[0]	/* InterpolateUntPts */
MPPEM[ ]	/* MeasurePixelPerEm */
GTEQ[ ]	/* GreaterThanOrEqual */
IF[ ]	/* If */
SPVTL[1]	/* SetPVectorToLine */
SFVTCA[1]	/* SetFVectorToAxis */
MDRP[01001]	/* MoveDirectRelPt */
SPVTL[1]	/* SetPVectorToLine */
SRP0[ ]	/* SetRefPoint0 */
SFVTL[0]	/* SetFVectorToLine */
MDRP[01001]	/* MoveDirectRelPt */
EIF[ ]	/* EndIf */
CLEAR[ ]	/* ClearStack */";
};
width = 1233;
}
);
note = k;
unicode = 107;
},
{
glyphname = l;
layers = (
{
anchors = (
{
name = topright;
pos = (562,1556);
}
);
layerId = m01;
shapes = (
{
closed = 1;
nodes = (
(569,0,o),
(778,0,qs),
(1094,0,l),
(1094,225,l),
(860,225,ls),
(762,225,o),
(680,335,o),
(680,467,qs),
(680,1556,l),
(90,1556,l),
(90,1331,l),
(387,1331,l),
(387,467,ls),
(387,216,o)
);
}
);
userData = {
assembly = "NPUSHB[ ]	/* 18 values pushed */
5 0 8 1 143 3 116 8 143 10 8 11 9 4 22 2 0 14
SRP0[ ]	/* SetRefPoint0 */
MDRP[10100]	/* MoveDirectRelPt */
MDRP[00100]	/* MoveDirectRelPt */
MIRP[11100]	/* MoveIndirectRelPt */
MDRP[00100]	/* MoveDirectRelPt */
IP[ ]	/* InterpolatePts */
IP[ ]	/* InterpolatePts */
IUP[1]	/* InterpolateUntPts */
SVTCA[0]	/* SetFreedomAndProjectionVectorToAxis */
MDAP[1]	/* MoveDirectAbsPt */
MIRP[01100]	/* MoveIndirectRelPt */
MIRP[11100]	/* MoveIndirectRelPt */
MIRP[01100]	/* MoveIndirectRelPt */
SRP1[ ]	/* SetRefPoint1 */
IP[ ]	/* InterpolatePts */
IP[ ]	/* InterpolatePts */
IUP[0]	/* InterpolateUntPts */";
};
width = 1233;
}
);
note = l;
unicode = 108;
},
{
glyphname = m;
layers = (
{
anchors = (
{
name = topright;
pos = (616,1120);
}
);
layerId = m01;
shapes = (
{
closed = 1;
nodes = (
(566,1147,o),
(498,1147,qs),
(430,1147,o),
(320,1070,o),
(295,1004,q),
(295,1120,l),
(82,1120,l),
(82,0,l),
(322,0,l),
(322,719,ls),
(322,844,o),
(360,928,o),
(410,928,qs),
(460,928,o),
(500,842,o),
(500,719,qs),
(500,0,l),
(737,0,l),
(737,719,ls),
(737,842,o),
(777,928,o),
(827,928,qs),
(877,928,o),
(915,844,o),
(915,719,qs),
(915,0,l),
(1155,0,l),
(1155,631,ls),
(1155,947,o),
(1044,1147,o),
(899,1147,qs),
(825,1147,o),
(723,1079,o),
(690,1008,q),
(678,1066,o)
);
}
);
userData = {
assembly = "NPUSHB[ ]	/* 39 values pushed */
24 18 15 9 4 7 0 29 27 6 7 21 12 104 32 3 137 27 144 25 16 7 0 17 15 28 24 58 26 61 15 8 58 6 61 15 58 17 35
SRP0[ ]	/* SetRefPoint0 */
MDRP[10100]	/* MoveDirectRelPt */
MPPEM[ ]	/* MeasurePixelPerEm */
PUSHB[ ]	/* 1 value pushed */
10
EQ[ ]	/* Equal */
MPPEM[ ]	/* MeasurePixelPerEm */
PUSHB[ ]	/* 1 value pushed */
11
EQ[ ]	/* Equal */
OR[ ]	/* LogicalOr */
IF[ ]	/* If */
PUSHW[ ]	/* 2 values pushed */
17 64
SHPIX[ ]	/* ShiftZoneByPixel */
EIF[ ]	/* EndIf */
MIRP[01100]	/* MoveIndirectRelPt */
MIRP[11100]	/* MoveIndirectRelPt */
MIRP[01100]	/* MoveIndirectRelPt */
SRP0[ ]	/* SetRefPoint0 */
MIRP[11110]	/* MoveIndirectRelPt */
MIRP[01110]	/* MoveIndirectRelPt */
MDRP[01110]	/* MoveDirectRelPt */
SRP1[ ]	/* SetRefPoint1 */
SRP2[ ]	/* SetRefPoint2 */
IP[ ]	/* InterpolatePts */
IUP[1]	/* InterpolateUntPts */
SVTCA[0]	/* SetFreedomAndProjectionVectorToAxis */
MDAP[1]	/* MoveDirectAbsPt */
ALIGNRP[ ]	/* AlignRelativePt */
ALIGNRP[ ]	/* AlignRelativePt */
MIRP[00110]	/* MoveIndirectRelPt */
MIRP[10110]	/* MoveIndirectRelPt */
ALIGNRP[ ]	/* AlignRelativePt */
MIRP[01110]	/* MoveIndirectRelPt */
SHP[0]	/* ShiftPointByLastPoint */
SRP1[ ]	/* SetRefPoint1 */
IP[ ]	/* InterpolatePts */
SRP1[ ]	/* SetRefPoint1 */
IP[ ]	/* InterpolatePts */
IP[ ]	/* InterpolatePts */
SRP1[ ]	/* SetRefPoint1 */
SLOOP[ ]	/* SetLoopVariable */
IP[ ]	/* InterpolatePts */
IUP[0]	/* InterpolateUntPts */
SVTCA[1]	/* SetFreedomAndProjectionVectorToAxis */
NPUSHB[ ]	/* 55 values pushed */
32 4 32 5 32 6 32 7 32 8 32 9 32 10 32 11 47 21 47 22 47 23 47 24 47 25 47 28 47 29 47 30 47 31 63 8 63 9 63 10 63 11 63 12 63 17 63 18 63 19 63 20 63 21 27
DELTAP1[ ]	/* DeltaExceptionP1 */";
};
width = 1233;
}
);
note = m;
unicode = 109;
},
{
glyphname = n;
layers = (
{
anchors = (
{
name = topright;
pos = (616,1120);
}
);
layerId = m01;
shapes = (
{
closed = 1;
nodes = (
(909,1147,o),
(750,1147,qs),
(644,1147,o),
(494,1045,o),
(463,952,q),
(463,1120,l),
(172,1120,l),
(172,0,l),
(463,0,l),
(463,641,ls),
(463,767,o),
(554,909,o),
(633,909,qs),
(711,909,o),
(780,804,o),
(780,682,qs),
(780,0,l),
(1071,0,l),
(1071,727,ls),
(1071,936,o)
);
}
);
userData = {
assembly = "NPUSHB[ ]	/* 25 values pushed */
9 3 1 14 12 0 1 6 104 17 137 12 144 10 1 2 22 0 55 13 9 22 11 53 20
SRP0[ ]	/* SetRefPoint0 */
MIRP[11100]	/* MoveIndirectRelPt */
MIRP[01100]	/* MoveIndirectRelPt */
SHP[0]	/* ShiftPointByLastPoint */
MIRP[11100]	/* MoveIndirectRelPt */
MIRP[01100]	/* MoveIndirectRelPt */
IUP[1]	/* InterpolateUntPts */
SVTCA[0]	/* SetFreedomAndProjectionVectorToAxis */
MDAP[1]	/* MoveDirectAbsPt */
ALIGNRP[ ]	/* AlignRelativePt */
MIRP[00100]	/* MoveIndirectRelPt */
MIRP[10100]	/* MoveIndirectRelPt */
MIRP[01100]	/* MoveIndirectRelPt */
SRP1[ ]	/* SetRefPoint1 */
IP[ ]	/* InterpolatePts */
SRP1[ ]	/* SetRefPoint1 */
IP[ ]	/* InterpolatePts */
SRP1[ ]	/* SetRefPoint1 */
IP[ ]	/* InterpolatePts */
IP[ ]	/* InterpolatePts */
IUP[0]	/* InterpolateUntPts */";
};
width = 1233;
}
);
note = n;
unicode = 110;
},
{
glyphname = o;
layers = (
{
anchors = (
{
name = topright;
pos = (616,1120);
}
);
layerId = m01;
shapes = (
{
closed = 1;
nodes = (
(842,724,o),
(842,559,qs),
(842,394,o),
(722,209,o),
(616,209,qs),
(511,209,o),
(391,394,o),
(391,559,qs),
(391,724,o),
(511,909,o),
(616,909,qs),
(722,909,o)
);
},
{
closed = 1;
nodes = (
(379,-29,o),
(616,-29,qs),
(854,-29,o),
(1135,288,o),
(1135,559,qs),
(1135,830,o),
(854,1147,o),
(616,1147,qs),
(379,1147,o),
(98,830,o),
(98,559,qs),
(98,288,o)
);
}
);
userData = {
assembly = "NPUSHB[ ]	/* 19 values pushed */
6 104 21 0 104 15 137 21 114 24 9 22 18 46 3 22 12 41 24
SRP0[ ]	/* SetRefPoint0 */
MIRP[11100]	/* MoveIndirectRelPt */
MIRP[01100]	/* MoveIndirectRelPt */
MIRP[11100]	/* MoveIndirectRelPt */
MIRP[01100]	/* MoveIndirectRelPt */
IUP[1]	/* InterpolateUntPts */
SVTCA[0]	/* SetFreedomAndProjectionVectorToAxis */
SRP0[ ]	/* SetRefPoint0 */
MIRP[00100]	/* MoveIndirectRelPt */
MIRP[10100]	/* MoveIndirectRelPt */
MIRP[01100]	/* MoveIndirectRelPt */
SRP0[ ]	/* SetRefPoint0 */
MIRP[01110]	/* MoveIndirectRelPt */
IUP[0]	/* InterpolateUntPts */";
};
width = 1233;
}
);
note = o;
unicode = 111;
},
{
glyphname = p;
layers = (
{
anchors = (
{
name = topright;
pos = (616,1120);
}
);
layerId = m01;
shapes = (
{
closed = 1;
nodes = (
(639,-29,o),
(729,-29,qs),
(928,-29,o),
(1143,275,o),
(1143,559,qs),
(1143,839,o),
(931,1147,o),
(739,1147,qs),
(638,1147,o),
(488,1049,o),
(442,952,q),
(442,1120,l),
(150,1120,l),
(150,-426,l),
(442,-426,l),
(442,158,l),
(496,64,o)
);
},
{
closed = 1;
nodes = (
(742,215,o),
(647,215,qs),
(552,215,o),
(442,399,o),
(442,561,qs),
(442,723,o),
(552,907,o),
(647,907,qs),
(742,907,o),
(850,723,o),
(850,561,qs),
(850,399,o)
);
}
);
userData = {
assembly = "NPUSHB[ ]	/* 31 values pushed */
0 26 14 5 20 3 26 104 14 20 104 8 137 14 114 1 145 3 144 29 17 22 11 50 23 4 0 22 2 48 29
SRP0[ ]	/* SetRefPoint0 */
MIRP[11100]	/* MoveIndirectRelPt */
MIRP[01100]	/* MoveIndirectRelPt */
SHP[0]	/* ShiftPointByLastPoint */
SHP[0]	/* ShiftPointByLastPoint */
MIRP[11100]	/* MoveIndirectRelPt */
MIRP[01100]	/* MoveIndirectRelPt */
IUP[1]	/* InterpolateUntPts */
SVTCA[0]	/* SetFreedomAndProjectionVectorToAxis */
SRP0[ ]	/* SetRefPoint0 */
MIRP[00100]	/* MoveIndirectRelPt */
MIRP[00100]	/* MoveIndirectRelPt */
MIRP[00100]	/* MoveIndirectRelPt */
MIRP[10100]	/* MoveIndirectRelPt */
MIRP[01100]	/* MoveIndirectRelPt */
SRP0[ ]	/* SetRefPoint0 */
MIRP[01110]	/* MoveIndirectRelPt */
SRP1[ ]	/* SetRefPoint1 */
SRP2[ ]	/* SetRefPoint2 */
IP[ ]	/* InterpolatePts */
SRP1[ ]	/* SetRefPoint1 */
SRP2[ ]	/* SetRefPoint2 */
IP[ ]	/* InterpolatePts */
IUP[0]	/* InterpolateUntPts */";
};
width = 1233;
}
);
note = p;
unicode = 112;
},
{
glyphname = q;
layers = (
{
anchors = (
{
name = topright;
pos = (616,1120);
}
);
layerId = m01;
shapes = (
{
closed = 1;
nodes = (
(491,907,o),
(586,907,qs),
(681,907,o),
(791,723,o),
(791,561,qs),
(791,399,o),
(681,215,o),
(586,215,qs),
(491,215,o),
(383,399,o),
(383,561,qs),
(383,723,o)
);
},
{
closed = 1;
nodes = (
(1083,-426,l),
(1083,1120,l),
(791,1120,l),
(791,952,l),
(744,1049,o),
(595,1147,o),
(494,1147,qs),
(302,1147,o),
(90,839,o),
(90,559,qs),
(90,275,o),
(305,-29,o),
(504,-29,qs),
(594,-29,o),
(737,64,o),
(791,158,q),
(791,-426,l)
);
}
);
userData = {
assembly = "NPUSHB[ ]	/* 29 values pushed */
24 25 9 12 3 104 15 9 104 21 137 15 114 27 145 25 144 29 24 12 6 22 26 50 0 22 18 41 29
SRP0[ ]	/* SetRefPoint0 */
MIRP[11100]	/* MoveIndirectRelPt */
MIRP[01100]	/* MoveIndirectRelPt */
MIRP[11100]	/* MoveIndirectRelPt */
MIRP[01100]	/* MoveIndirectRelPt */
SHP[0]	/* ShiftPointByLastPoint */
SHP[0]	/* ShiftPointByLastPoint */
IUP[1]	/* InterpolateUntPts */
SVTCA[0]	/* SetFreedomAndProjectionVectorToAxis */
SRP0[ ]	/* SetRefPoint0 */
MIRP[00100]	/* MoveIndirectRelPt */
MIRP[00100]	/* MoveIndirectRelPt */
MIRP[00100]	/* MoveIndirectRelPt */
MIRP[10100]	/* MoveIndirectRelPt */
MIRP[01100]	/* MoveIndirectRelPt */
SRP0[ ]	/* SetRefPoint0 */
MIRP[01110]	/* MoveIndirectRelPt */
IP[ ]	/* InterpolatePts */
SRP1[ ]	/* SetRefPoint1 */
SRP2[ ]	/* SetRefPoint2 */
IP[ ]	/* InterpolatePts */
IUP[0]	/* InterpolateUntPts */";
};
width = 1233;
}
);
note = q;
unicode = 113;
},
{
glyphname = r;
layers = (
{
anchors = (
{
name = topright;
pos = (616,1120);
}
);
layerId = m01;
shapes = (
{
closed = 1;
nodes = (
(1099,1118,o),
(984,1147,o),
(924,1147,qs),
(805,1147,o),
(627,1042,o),
(584,946,q),
(584,1120,l),
(291,1120,l),
(291,0,l),
(584,0,l),
(584,516,ls),
(584,626,o),
(603,734,o),
(627,772,qs),
(665,834,o),
(804,899,o),
(897,899,qs),
(974,899,o),
(1103,855,o),
(1151,811,q),
(1151,1090,l)
);
}
);
userData = {
assembly = "NPUSHB[ ]	/* 20 values pushed */
14 20 3 9 10 0 20 3 104 17 137 12 144 10 13 9 22 0 11 21
SRP0[ ]	/* SetRefPoint0 */
MDRP[10100]	/* MoveDirectRelPt */
MDRP[00100]	/* MoveDirectRelPt */
MIRP[01100]	/* MoveIndirectRelPt */
SHP[0]	/* ShiftPointByLastPoint */
IUP[1]	/* InterpolateUntPts */
SVTCA[0]	/* SetFreedomAndProjectionVectorToAxis */
MDAP[1]	/* MoveDirectAbsPt */
MIRP[00100]	/* MoveIndirectRelPt */
MIRP[10100]	/* MoveIndirectRelPt */
MIRP[01100]	/* MoveIndirectRelPt */
MDRP[10100]	/* MoveDirectRelPt */
MDRP[00100]	/* MoveDirectRelPt */
SRP1[ ]	/* SetRefPoint1 */
IP[ ]	/* InterpolatePts */
SRP1[ ]	/* SetRefPoint1 */
SRP2[ ]	/* SetRefPoint2 */
IP[ ]	/* InterpolatePts */
IUP[0]	/* InterpolateUntPts */";
};
width = 1233;
}
);
note = r;
unicode = 114;
},
{
glyphname = s;
layers = (
{
anchors = (
{
name = topright;
pos = (616,1120);
}
);
layerId = m01;
shapes = (
{
closed = 1;
nodes = (
(713,1147,o),
(618,1147,qs),
(406,1147,o),
(172,967,o),
(172,805,qs),
(172,669,o),
(326,507,o),
(494,469,qs),
(575,451,ls),
(716,417,o),
(791,357,o),
(791,301,qs),
(791,244,o),
(685,184,o),
(582,184,qs),
(488,184,o),
(287,242,o),
(190,297,q),
(190,41,l),
(299,6,o),
(511,-29,o),
(612,-29,qs),
(840,-29,o),
(1067,144,o),
(1067,317,qs),
(1067,461,o),
(918,630,o),
(758,668,qs),
(674,688,l),
(663,691,ls),
(449,741,o),
(449,821,qs),
(449,877,o),
(549,934,o),
(647,934,qs),
(735,934,o),
(910,881,o),
(991,829,q),
(991,1085,l),
(902,1116,o)
);
}
);
userData = {
assembly = "NPUSHB[ ]	/* 61 values pushed */
13 12 2 14 11 31 30 8 9 2 7 10 30 31 30 37 9 10 4 10 11 30 31 4 1 21 139 20 121 24 104 17 1 139 0 121 4 104 37 137 17 114 40 30 9 11 31 27 7 0 62 27 22 14 55 7 22 20 34 53 40
SRP0[ ]	/* SetRefPoint0 */
MIRP[11100]	/* MoveIndirectRelPt */
MDRP[00100]	/* MoveDirectRelPt */
MIRP[01100]	/* MoveIndirectRelPt */
MIRP[11100]	/* MoveIndirectRelPt */
MIRP[01100]	/* MoveIndirectRelPt */
MIRP[00100]	/* MoveIndirectRelPt */
SRP1[ ]	/* SetRefPoint1 */
SRP2[ ]	/* SetRefPoint2 */
IP[ ]	/* InterpolatePts */
IP[ ]	/* InterpolatePts */
IP[ ]	/* InterpolatePts */
IP[ ]	/* InterpolatePts */
IUP[1]	/* InterpolateUntPts */
SVTCA[0]	/* SetFreedomAndProjectionVectorToAxis */
SRP0[ ]	/* SetRefPoint0 */
MIRP[00100]	/* MoveIndirectRelPt */
MIRP[10100]	/* MoveIndirectRelPt */
MIRP[01100]	/* MoveIndirectRelPt */
MIRP[10100]	/* MoveIndirectRelPt */
MIRP[01100]	/* MoveIndirectRelPt */
SRP0[ ]	/* SetRefPoint0 */
MIRP[01110]	/* MoveIndirectRelPt */
MIRP[10110]	/* MoveIndirectRelPt */
MIRP[01110]	/* MoveIndirectRelPt */
SRP1[ ]	/* SetRefPoint1 */
SLOOP[ ]	/* SetLoopVariable */
IP[ ]	/* InterpolatePts */
SRP1[ ]	/* SetRefPoint1 */
SRP2[ ]	/* SetRefPoint2 */
IP[ ]	/* InterpolatePts */
IUP[0]	/* InterpolateUntPts */
MPPEM[ ]	/* MeasurePixelPerEm */
GTEQ[ ]	/* GreaterThanOrEqual */
IF[ ]	/* If */
SPVTL[1]	/* SetPVectorToLine */
SRP0[ ]	/* SetRefPoint0 */
SFVTPV[ ]	/* SetFVectorToPVector */
MDRP[01001]	/* MoveDirectRelPt */
SRP1[ ]	/* SetRefPoint1 */
SLOOP[ ]	/* SetLoopVariable */
IP[ ]	/* InterpolatePts */
SPVTL[1]	/* SetPVectorToLine */
SFVTPV[ ]	/* SetFVectorToPVector */
MDRP[01001]	/* MoveDirectRelPt */
SRP1[ ]	/* SetRefPoint1 */
SLOOP[ ]	/* SetLoopVariable */
IP[ ]	/* InterpolatePts */
EIF[ ]	/* EndIf */
CLEAR[ ]	/* ClearStack */
PUSHB[ ]	/* 3 values pushed */
40 33 1
SVTCA[0]	/* SetFreedomAndProjectionVectorToAxis */
DELTAP1[ ]	/* DeltaExceptionP1 */
NPUSHB[ ]	/* 43 values pushed */
32 0 32 1 36 2 41 8 41 9 41 10 41 11 41 12 41 13 41 14 44 19 47 20 47 21 44 22 41 28 41 29 41 30 41 31 41 32 40 33 36 39 21
DELTAP1[ ]	/* DeltaExceptionP1 */";
};
width = 1233;
}
);
note = s;
unicode = 115;
},
{
glyphname = t;
layers = (
{
anchors = (
{
name = topright;
pos = (616,1556);
}
);
layerId = m01;
shapes = (
{
closed = 1;
nodes = (
(397,1120,l),
(111,1120,l),
(111,895,l),
(397,895,l),
(397,379,ls),
(397,161,o),
(575,0,o),
(827,0,qs),
(1073,0,l),
(1073,225,l),
(848,225,ls),
(763,225,o),
(690,290,o),
(690,365,qs),
(690,895,l),
(1073,895,l),
(1073,1120,l),
(690,1120,l),
(690,1438,l),
(397,1438,l)
);
}
);
userData = {
assembly = "NPUSHB[ ]	/* 24 values pushed */
5 14 8 15 3 143 0 17 1 144 8 143 10 8 11 9 2 4 0 22 16 18 14 20
SRP0[ ]	/* SetRefPoint0 */
MDRP[10100]	/* MoveDirectRelPt */
ALIGNRP[ ]	/* AlignRelativePt */
MDRP[00100]	/* MoveDirectRelPt */
MIRP[11100]	/* MoveIndirectRelPt */
ALIGNRP[ ]	/* AlignRelativePt */
MDRP[00100]	/* MoveDirectRelPt */
SHP[0]	/* ShiftPointByLastPoint */
IP[ ]	/* InterpolatePts */
IP[ ]	/* InterpolatePts */
IUP[1]	/* InterpolateUntPts */
SVTCA[0]	/* SetFreedomAndProjectionVectorToAxis */
MDAP[1]	/* MoveDirectAbsPt */
MIRP[01100]	/* MoveIndirectRelPt */
MIRP[10100]	/* MoveIndirectRelPt */
ALIGNRP[ ]	/* AlignRelativePt */
MDRP[00100]	/* MoveDirectRelPt */
MIRP[01100]	/* MoveIndirectRelPt */
SHP[0]	/* ShiftPointByLastPoint */
SRP1[ ]	/* SetRefPoint1 */
IP[ ]	/* InterpolatePts */
IP[ ]	/* InterpolatePts */
IUP[0]	/* InterpolateUntPts */";
};
width = 1233;
}
);
note = t;
unicode = 116;
},
{
glyphname = u;
layers = (
{
anchors = (
{
name = topright;
pos = (616,1120);
}
);
layerId = m01;
shapes = (
{
closed = 1;
nodes = (
(323,-29,o),
(483,-29,qs),
(588,-29,o),
(737,73,o),
(768,166,q),
(768,0,l),
(1061,0,l),
(1061,1120,l),
(768,1120,l),
(768,477,ls),
(768,351,o),
(679,211,o),
(600,211,qs),
(521,211,o),
(453,315,o),
(453,436,qs),
(453,1120,l),
(160,1120,l),
(160,391,ls),
(160,183,o)
);
}
);
userData = {
assembly = "NPUSHB[ ]	/* 25 values pushed */
9 3 1 14 12 0 1 6 104 17 114 10 1 144 12 13 9 22 11 55 2 22 0 53 20
SRP0[ ]	/* SetRefPoint0 */
MIRP[11100]	/* MoveIndirectRelPt */
MIRP[01100]	/* MoveIndirectRelPt */
MIRP[11100]	/* MoveIndirectRelPt */
MIRP[01100]	/* MoveIndirectRelPt */
SHP[0]	/* ShiftPointByLastPoint */
IUP[1]	/* InterpolateUntPts */
SVTCA[0]	/* SetFreedomAndProjectionVectorToAxis */
MDAP[1]	/* MoveDirectAbsPt */
MIRP[00100]	/* MoveIndirectRelPt */
SHP[0]	/* ShiftPointByLastPoint */
MIRP[10100]	/* MoveIndirectRelPt */
MIRP[01100]	/* MoveIndirectRelPt */
SRP1[ ]	/* SetRefPoint1 */
IP[ ]	/* InterpolatePts */
SRP1[ ]	/* SetRefPoint1 */
IP[ ]	/* InterpolatePts */
SRP1[ ]	/* SetRefPoint1 */
IP[ ]	/* InterpolatePts */
IP[ ]	/* InterpolatePts */
IUP[0]	/* InterpolateUntPts */";
};
width = 1233;
}
);
note = u;
unicode = 117;
},
{
glyphname = v;
layers = (
{
anchors = (
{
name = topright;
pos = (616,1120);
}
);
layerId = m01;
shapes = (
{
closed = 1;
nodes = (
(616,246,l),
(377,1120,l),
(80,1120,l),
(436,0,l),
(797,0,l),
(1153,1120,l),
(856,1120,l)
);
}
);
userData = {
assembly = "NPUSHB[ ]	/* 37 values pushed */
6 0 1 0 5 4 5 1 1 0 5 6 5 2 3 2 4 3 3 2 37 5 3 0 144 1 6 5 4 2 1 5 0 49 3 47 7
SRP0[ ]	/* SetRefPoint0 */
MIRP[11100]	/* MoveIndirectRelPt */
MIRP[01100]	/* MoveIndirectRelPt */
SLOOP[ ]	/* SetLoopVariable */
IP[ ]	/* InterpolatePts */
IUP[1]	/* InterpolateUntPts */
SVTCA[0]	/* SetFreedomAndProjectionVectorToAxis */
MDAP[1]	/* MoveDirectAbsPt */
MIRP[00100]	/* MoveIndirectRelPt */
SHP[0]	/* ShiftPointByLastPoint */
IP[ ]	/* InterpolatePts */
IUP[0]	/* InterpolateUntPts */
MPPEM[ ]	/* MeasurePixelPerEm */
GTEQ[ ]	/* GreaterThanOrEqual */
IF[ ]	/* If */
SPVTL[1]	/* SetPVectorToLine */
SRP0[ ]	/* SetRefPoint0 */
SFVTCA[1]	/* SetFVectorToAxis */
MDRP[01001]	/* MoveDirectRelPt */
SPVTL[1]	/* SetPVectorToLine */
SRP0[ ]	/* SetRefPoint0 */
SFVTL[0]	/* SetFVectorToLine */
MDRP[01001]	/* MoveDirectRelPt */
SPVTL[1]	/* SetPVectorToLine */
SRP0[ ]	/* SetRefPoint0 */
SFVTL[0]	/* SetFVectorToLine */
MDRP[01001]	/* MoveDirectRelPt */
SPVTL[1]	/* SetPVectorToLine */
SRP0[ ]	/* SetRefPoint0 */
SFVTCA[1]	/* SetFVectorToAxis */
MDRP[01001]	/* MoveDirectRelPt */
EIF[ ]	/* EndIf */
CLEAR[ ]	/* ClearStack */
PUSHB[ ]	/* 3 values pushed */
88 6 1
SVTCA[1]	/* SetFreedomAndProjectionVectorToAxis */
DELTAP1[ ]	/* DeltaExceptionP1 */
NPUSHB[ ]	/* 22 values pushed */
3 5 85 5 2 10 0 5 3 3 4 12 6 90 0 85 3 85 4 89 6 8
DELTAP1[ ]	/* DeltaExceptionP1 */
SVTCA[0]	/* SetFreedomAndProjectionVectorToAxis */
DELTAP1[ ]	/* DeltaExceptionP1 */";
};
width = 1233;
}
);
note = v;
unicode = 118;
},
{
glyphname = w;
layers = (
{
anchors = (
{
name = topright;
pos = (616,1120);
}
);
layerId = m01;
shapes = (
{
closed = 1;
nodes = (
(481,0,l),
(616,582,l),
(752,0,l),
(1030,0,l),
(1233,1120,l),
(989,1120,l),
(854,262,l),
(735,827,l),
(498,827,l),
(377,262,l),
(244,1120,l),
(0,1120,l),
(203,0,l)
);
}
);
userData = {
assembly = "NPUSHB[ ]	/* 64 values pushed */
5 6 5 9 10 9 4 10 9 3 10 11 10 2 1 2 11 11 10 6 7 8 7 5 4 5 8 8 7 2 3 2 12 0 12 1 0 12 37 10 5 2 3 8 3 6 0 144 11 8 12 11 10 9 8 6 5 4 3 2 1 11 7 0
MDAP[1]	/* MoveDirectAbsPt */
MDRP[01100]	/* MoveDirectRelPt */
SLOOP[ ]	/* SetLoopVariable */
IP[ ]	/* InterpolatePts */
IUP[1]	/* InterpolateUntPts */
SVTCA[0]	/* SetFreedomAndProjectionVectorToAxis */
MDAP[1]	/* MoveDirectAbsPt */
ALIGNRP[ ]	/* AlignRelativePt */
MIRP[10100]	/* MoveIndirectRelPt */
ALIGNRP[ ]	/* AlignRelativePt */
MDRP[00100]	/* MoveDirectRelPt */
SRP1[ ]	/* SetRefPoint1 */
SLOOP[ ]	/* SetLoopVariable */
IP[ ]	/* InterpolatePts */
IUP[0]	/* InterpolateUntPts */
MPPEM[ ]	/* MeasurePixelPerEm */
GTEQ[ ]	/* GreaterThanOrEqual */
IF[ ]	/* If */
SPVTL[1]	/* SetPVectorToLine */
SFVTCA[1]	/* SetFVectorToAxis */
MDRP[01001]	/* MoveDirectRelPt */
SPVTL[1]	/* SetPVectorToLine */
SRP0[ ]	/* SetRefPoint0 */
SFVTL[0]	/* SetFVectorToLine */
MDRP[01001]	/* MoveDirectRelPt */
SPVTL[1]	/* SetPVectorToLine */
SRP0[ ]	/* SetRefPoint0 */
SFVTL[0]	/* SetFVectorToLine */
MDRP[01001]	/* MoveDirectRelPt */
SPVTL[1]	/* SetPVectorToLine */
SRP0[ ]	/* SetRefPoint0 */
SFVTCA[1]	/* SetFVectorToAxis */
MDRP[01001]	/* MoveDirectRelPt */
SPVTL[1]	/* SetPVectorToLine */
SRP0[ ]	/* SetRefPoint0 */
SFVTL[0]	/* SetFVectorToLine */
MDRP[01001]	/* MoveDirectRelPt */
SPVTL[1]	/* SetPVectorToLine */
SRP0[ ]	/* SetRefPoint0 */
SFVTCA[1]	/* SetFVectorToAxis */
MDRP[01001]	/* MoveDirectRelPt */
SPVTL[1]	/* SetPVectorToLine */
SFVTCA[1]	/* SetFVectorToAxis */
MDRP[01001]	/* MoveDirectRelPt */
SPVTL[1]	/* SetPVectorToLine */
SRP0[ ]	/* SetRefPoint0 */
SFVTL[0]	/* SetFVectorToLine */
MDRP[01001]	/* MoveDirectRelPt */
EIF[ ]	/* EndIf */
CLEAR[ ]	/* ClearStack */
PUSHB[ ]	/* 3 values pushed */
104 9 1
SVTCA[1]	/* SetFreedomAndProjectionVectorToAxis */
DELTAP1[ ]	/* DeltaExceptionP1 */
NPUSHB[ ]	/* 64 values pushed */
20 10 1 31 0 31 1 31 2 31 3 26 9 27 10 28 11 31 12 41 1 38 6 39 8 41 12 57 1 54 6 107 9 99 11 119 0 120 7 117 8 121 12 135 0 136 7 134 8 137 12 151 0 151 1 152 6 152 7 150 8 153 12 30
DELTAP1[ ]	/* DeltaExceptionP1 */
SVTCA[0]	/* SetFreedomAndProjectionVectorToAxis */
DELTAP1[ ]	/* DeltaExceptionP1 */";
};
width = 1233;
}
);
note = w;
unicode = 119;
},
{
glyphname = x;
layers = (
{
anchors = (
{
name = topright;
pos = (616,1120);
}
);
layerId = m01;
shapes = (
{
closed = 1;
nodes = (
(616,786,l),
(430,1120,l),
(88,1120,l),
(469,584,l),
(55,0,l),
(397,0,l),
(616,377,l),
(836,0,l),
(1178,0,l),
(768,584,l),
(1145,1120,l),
(803,1120,l)
);
}
);
userData = {
assembly = "NPUSHB[ ]	/* 66 values pushed */
5 6 7 6 4 3 4 7 7 6 4 5 4 1 2 1 3 2 2 1 11 0 1 0 10 9 10 1 1 0 10 11 10 7 8 7 9 8 8 7 37 10 7 4 1 4 8 0 144 5 2 11 10 9 7 4 1 6 8 0 2 49 8 6 47 12
SRP0[ ]	/* SetRefPoint0 */
MIRP[11100]	/* MoveIndirectRelPt */
MDRP[00100]	/* MoveDirectRelPt */
MIRP[11100]	/* MoveIndirectRelPt */
MDRP[00100]	/* MoveDirectRelPt */
SRP1[ ]	/* SetRefPoint1 */
SLOOP[ ]	/* SetLoopVariable */
IP[ ]	/* InterpolatePts */
IUP[1]	/* InterpolateUntPts */
SVTCA[0]	/* SetFreedomAndProjectionVectorToAxis */
MDAP[1]	/* MoveDirectAbsPt */
ALIGNRP[ ]	/* AlignRelativePt */
MIRP[00100]	/* MoveIndirectRelPt */
SHP[0]	/* ShiftPointByLastPoint */
SLOOP[ ]	/* SetLoopVariable */
IP[ ]	/* InterpolatePts */
IUP[0]	/* InterpolateUntPts */
MPPEM[ ]	/* MeasurePixelPerEm */
GTEQ[ ]	/* GreaterThanOrEqual */
IF[ ]	/* If */
SPVTL[1]	/* SetPVectorToLine */
SRP0[ ]	/* SetRefPoint0 */
SFVTCA[1]	/* SetFVectorToAxis */
MDRP[01001]	/* MoveDirectRelPt */
SPVTL[1]	/* SetPVectorToLine */
SRP0[ ]	/* SetRefPoint0 */
SFVTL[0]	/* SetFVectorToLine */
MDRP[01001]	/* MoveDirectRelPt */
SPVTL[1]	/* SetPVectorToLine */
SRP0[ ]	/* SetRefPoint0 */
SFVTL[0]	/* SetFVectorToLine */
MDRP[01001]	/* MoveDirectRelPt */
SPVTL[1]	/* SetPVectorToLine */
SRP0[ ]	/* SetRefPoint0 */
SFVTCA[1]	/* SetFVectorToAxis */
MDRP[01001]	/* MoveDirectRelPt */
SPVTL[1]	/* SetPVectorToLine */
SRP0[ ]	/* SetRefPoint0 */
SFVTCA[1]	/* SetFVectorToAxis */
MDRP[01001]	/* MoveDirectRelPt */
SPVTL[1]	/* SetPVectorToLine */
SRP0[ ]	/* SetRefPoint0 */
SFVTL[0]	/* SetFVectorToLine */
MDRP[01001]	/* MoveDirectRelPt */
SPVTL[1]	/* SetPVectorToLine */
SRP0[ ]	/* SetRefPoint0 */
SFVTL[0]	/* SetFVectorToLine */
MDRP[01001]	/* MoveDirectRelPt */
SPVTL[1]	/* SetPVectorToLine */
SRP0[ ]	/* SetRefPoint0 */
SFVTCA[1]	/* SetFVectorToAxis */
MDRP[01001]	/* MoveDirectRelPt */
EIF[ ]	/* EndIf */
CLEAR[ ]	/* ClearStack */
PUSHB[ ]	/* 3 values pushed */
7 9 1
SVTCA[1]	/* SetFreedomAndProjectionVectorToAxis */
DELTAP1[ ]	/* DeltaExceptionP1 */
NPUSHB[ ]	/* 18 values pushed */
9 4 4 10 2 9 3 5 5 7 9 9 11 57 1 54 7 6
DELTAP1[ ]	/* DeltaExceptionP1 */
SVTCA[0]	/* SetFreedomAndProjectionVectorToAxis */
DELTAP1[ ]	/* DeltaExceptionP1 */";
};
width = 1233;
}
);
note = x;
unicode = 120;
},
{
glyphname = y;
layers = (
{
anchors = (
{
name = topright;
pos = (616,1120);
}
);
layerId = m01;
shapes = (
{
closed = 1;
nodes = (
(868,1120,l),
(623,393,l),
(367,1120,l),
(59,1120,l),
(485,31,l),
(463,-29,ls),
(420,-140,o),
(336,-201,o),
(246,-201,qs),
(127,-201,l),
(127,-424,l),
(369,-424,ls),
(487,-424,o),
(652,-279,o),
(711,-121,qs),
(1176,1120,l)
);
}
);
userData = {
assembly = "NPUSHB[ ]	/* 65 values pushed */
10 11 10 0 15 6 7 8 3 5 9 0 0 15 14 15 0 15 13 12 13 0 0 15 13 14 13 10 11 10 12 11 11 10 37 13 11 9 16 0 11 5 143 3 145 14 11 144 16 14 13 12 10 9 6 3 0 8 15 4 15 49 11 47 16
SRP0[ ]	/* SetRefPoint0 */
MIRP[11100]	/* MoveIndirectRelPt */
MIRP[01100]	/* MoveIndirectRelPt */
MDRP[00100]	/* MoveDirectRelPt */
SRP1[ ]	/* SetRefPoint1 */
SLOOP[ ]	/* SetLoopVariable */
IP[ ]	/* InterpolatePts */
IUP[1]	/* InterpolateUntPts */
SVTCA[0]	/* SetFreedomAndProjectionVectorToAxis */
SRP0[ ]	/* SetRefPoint0 */
MIRP[00100]	/* MoveIndirectRelPt */
SHP[0]	/* ShiftPointByLastPoint */
MIRP[10100]	/* MoveIndirectRelPt */
MIRP[01100]	/* MoveIndirectRelPt */
SRP1[ ]	/* SetRefPoint1 */
IP[ ]	/* InterpolatePts */
SRP1[ ]	/* SetRefPoint1 */
IP[ ]	/* InterpolatePts */
SRP2[ ]	/* SetRefPoint2 */
IP[ ]	/* InterpolatePts */
IUP[0]	/* InterpolateUntPts */
MPPEM[ ]	/* MeasurePixelPerEm */
GTEQ[ ]	/* GreaterThanOrEqual */
IF[ ]	/* If */
SPVTL[1]	/* SetPVectorToLine */
SRP0[ ]	/* SetRefPoint0 */
SFVTCA[1]	/* SetFVectorToAxis */
MDRP[01001]	/* MoveDirectRelPt */
SPVTL[1]	/* SetPVectorToLine */
SRP0[ ]	/* SetRefPoint0 */
SFVTL[0]	/* SetFVectorToLine */
MDRP[01001]	/* MoveDirectRelPt */
SPVTL[1]	/* SetPVectorToLine */
SRP0[ ]	/* SetRefPoint0 */
SFVTL[0]	/* SetFVectorToLine */
MDRP[01001]	/* MoveDirectRelPt */
SPVTL[1]	/* SetPVectorToLine */
SRP0[ ]	/* SetRefPoint0 */
SFVTCA[1]	/* SetFVectorToAxis */
MDRP[01001]	/* MoveDirectRelPt */
SPVTL[1]	/* SetPVectorToLine */
SRP0[ ]	/* SetRefPoint0 */
SFVTCA[1]	/* SetFVectorToAxis */
MDRP[01001]	/* MoveDirectRelPt */
SRP1[ ]	/* SetRefPoint1 */
SLOOP[ ]	/* SetLoopVariable */
IP[ ]	/* InterpolatePts */
SPVTL[1]	/* SetPVectorToLine */
SFVTL[0]	/* SetFVectorToLine */
MDRP[01001]	/* MoveDirectRelPt */
EIF[ ]	/* EndIf */
CLEAR[ ]	/* ClearStack */";
};
width = 1233;
}
);
note = y;
unicode = 121;
},
{
glyphname = z;
layers = (
{
anchors = (
{
name = topright;
pos = (616,1120);
}
);
layerId = m01;
shapes = (
{
closed = 1;
nodes = (
(752,901,l),
(162,229,l),
(162,0,l),
(1081,0,l),
(1081,219,l),
(492,219,l),
(1081,891,l),
(1081,1120,l),
(186,1120,l),
(186,901,l)
);
}
);
userData = {
assembly = "NPUSHB[ ]	/* 26 values pushed */
3 7 8 7 8 2 3 2 37 8 143 0 144 3 143 5 8 3 0 4 1 54 0 6 47 10
SRP0[ ]	/* SetRefPoint0 */
MIRP[11100]	/* MoveIndirectRelPt */
MDRP[00100]	/* MoveDirectRelPt */
MIRP[01100]	/* MoveIndirectRelPt */
SHP[0]	/* ShiftPointByLastPoint */
SRP1[ ]	/* SetRefPoint1 */
IP[ ]	/* InterpolatePts */
IP[ ]	/* InterpolatePts */
IUP[1]	/* InterpolateUntPts */
SVTCA[0]	/* SetFreedomAndProjectionVectorToAxis */
MDAP[1]	/* MoveDirectAbsPt */
MIRP[01100]	/* MoveIndirectRelPt */
MIRP[10100]	/* MoveIndirectRelPt */
MIRP[01100]	/* MoveIndirectRelPt */
IUP[0]	/* InterpolateUntPts */
MPPEM[ ]	/* MeasurePixelPerEm */
GTEQ[ ]	/* GreaterThanOrEqual */
IF[ ]	/* If */
SPVTL[1]	/* SetPVectorToLine */
SRP0[ ]	/* SetRefPoint0 */
SFVTCA[1]	/* SetFVectorToAxis */
MDRP[01001]	/* MoveDirectRelPt */
SPVTL[1]	/* SetPVectorToLine */
SRP0[ ]	/* SetRefPoint0 */
SFVTCA[1]	/* SetFVectorToAxis */
MDRP[01001]	/* MoveDirectRelPt */
EIF[ ]	/* EndIf */
CLEAR[ ]	/* ClearStack */";
};
width = 1233;
}
);
note = z;
unicode = 122;
},
{
glyphname = braceleft;
layers = (
{
layerId = m01;
shapes = (
{
closed = 1;
nodes = (
(826,-143,o),
(756,-58,o),
(756,86,qs),
(756,291,ls),
(756,455,o),
(658,591,o),
(532,612,q),
(658,631,o),
(756,765,o),
(756,930,qs),
(756,1139,ls),
(756,1282,o),
(826,1366,o),
(930,1366,qs),
(1053,1366,l),
(1053,1556,l),
(903,1556,ls),
(654,1556,o),
(485,1409,o),
(485,1188,qs),
(485,973,ls),
(485,821,o),
(378,707,o),
(238,707,qs),
(176,707,l),
(176,516,l),
(238,516,ls),
(378,516,o),
(485,401,o),
(485,250,qs),
(485,35,ls),
(485,-186,o),
(654,-334,o),
(903,-334,qs),
(1053,-334,l),
(1053,-143,l),
(930,-143,ls)
);
}
);
userData = {
assembly = "NPUSHB[ ]	/* 48 values pushed */
25 15 21 11 6 37 9 26 16 21 29 11 5 32 33 3 0 11 130 9 0 130 1 21 130 9 19 116 37 29 25 12 9 10 5 36 22 19 2 20 0 32 25 1 10 15 5 37
SRP0[ ]	/* SetRefPoint0 */
MDRP[10100]	/* MoveDirectRelPt */
ALIGNRP[ ]	/* AlignRelativePt */
MDRP[00100]	/* MoveDirectRelPt */
MIRP[11100]	/* MoveIndirectRelPt */
ALIGNRP[ ]	/* AlignRelativePt */
MDRP[00100]	/* MoveDirectRelPt */
SHP[0]	/* ShiftPointByLastPoint */
IP[ ]	/* InterpolatePts */
IP[ ]	/* InterpolatePts */
IP[ ]	/* InterpolatePts */
IP[ ]	/* InterpolatePts */
SRP1[ ]	/* SetRefPoint1 */
SRP2[ ]	/* SetRefPoint2 */
IP[ ]	/* InterpolatePts */
IP[ ]	/* InterpolatePts */
SRP2[ ]	/* SetRefPoint2 */
IP[ ]	/* InterpolatePts */
IUP[1]	/* InterpolateUntPts */
SVTCA[0]	/* SetFreedomAndProjectionVectorToAxis */
SRP0[ ]	/* SetRefPoint0 */
MIRP[11100]	/* MoveIndirectRelPt */
MDRP[00100]	/* MoveDirectRelPt */
MIRP[01100]	/* MoveIndirectRelPt */
MDRP[10100]	/* MoveDirectRelPt */
MIRP[01100]	/* MoveIndirectRelPt */
SRP0[ ]	/* SetRefPoint0 */
MIRP[01110]	/* MoveIndirectRelPt */
SRP2[ ]	/* SetRefPoint2 */
SLOOP[ ]	/* SetLoopVariable */
IP[ ]	/* InterpolatePts */
SRP2[ ]	/* SetRefPoint2 */
IP[ ]	/* InterpolatePts */
SRP1[ ]	/* SetRefPoint1 */
IP[ ]	/* InterpolatePts */
IP[ ]	/* InterpolatePts */
SRP1[ ]	/* SetRefPoint1 */
SRP2[ ]	/* SetRefPoint2 */
IP[ ]	/* InterpolatePts */
SRP1[ ]	/* SetRefPoint1 */
SRP2[ ]	/* SetRefPoint2 */
IP[ ]	/* InterpolatePts */
IP[ ]	/* InterpolatePts */
IUP[0]	/* InterpolateUntPts */";
};
width = 1233;
}
);
note = braceleft;
unicode = 123;
},
{
glyphname = bar;
layers = (
{
layerId = m01;
shapes = (
{
closed = 1;
nodes = (
(502,-483,l),
(729,-483,l),
(729,1565,l),
(502,1565,l)
);
}
);
userData = {
assembly = "PUSHB[ ]	/* 7 values pushed */
1 0 116 4 0 2 4
SRP0[ ]	/* SetRefPoint0 */
MDRP[10100]	/* MoveDirectRelPt */
MDRP[01100]	/* MoveDirectRelPt */
IUP[1]	/* InterpolateUntPts */
SVTCA[0]	/* SetFreedomAndProjectionVectorToAxis */
SRP0[ ]	/* SetRefPoint0 */
MIRP[11100]	/* MoveIndirectRelPt */
MDRP[01100]	/* MoveDirectRelPt */
IUP[0]	/* InterpolateUntPts */";
};
width = 1233;
}
);
note = bar;
unicode = 124;
},
{
glyphname = braceright;
layers = (
{
layerId = m01;
shapes = (
{
closed = 1;
nodes = (
(330,-334,ls),
(578,-334,o),
(745,-186,o),
(745,35,qs),
(745,250,ls),
(745,400,o),
(854,516,o),
(995,516,qs),
(1057,516,l),
(1057,707,l),
(995,707,ls),
(854,707,o),
(745,822,o),
(745,973,qs),
(745,1188,ls),
(745,1409,o),
(578,1556,o),
(330,1556,qs),
(180,1556,l),
(180,1366,l),
(301,1366,ls),
(406,1366,o),
(477,1280,o),
(477,1139,qs),
(477,930,ls),
(477,765,o),
(574,631,o),
(700,612,q),
(575,591,o),
(477,455,o),
(477,291,qs),
(477,86,ls),
(477,-57,o),
(405,-143,o),
(301,-143,qs),
(180,-143,l),
(180,-334,l)
);
}
);
userData = {
assembly = "NPUSHB[ ]	/* 49 values pushed */
31 37 27 22 12 15 8 27 11 21 25 15 4 5 32 3 0 25 130 27 0 130 35 15 130 27 17 116 37 28 25 26 8 21 15 1 35 18 4 0 26 31 21 1 16 0 11 4 37
SRP0[ ]	/* SetRefPoint0 */
MDRP[10100]	/* MoveDirectRelPt */
ALIGNRP[ ]	/* AlignRelativePt */
MDRP[00100]	/* MoveDirectRelPt */
SHP[0]	/* ShiftPointByLastPoint */
MIRP[11100]	/* MoveIndirectRelPt */
ALIGNRP[ ]	/* AlignRelativePt */
MDRP[00100]	/* MoveDirectRelPt */
SRP1[ ]	/* SetRefPoint1 */
SRP2[ ]	/* SetRefPoint2 */
IP[ ]	/* InterpolatePts */
IP[ ]	/* InterpolatePts */
IP[ ]	/* InterpolatePts */
IP[ ]	/* InterpolatePts */
SRP1[ ]	/* SetRefPoint1 */
IP[ ]	/* InterpolatePts */
SRP2[ ]	/* SetRefPoint2 */
IP[ ]	/* InterpolatePts */
IP[ ]	/* InterpolatePts */
IUP[1]	/* InterpolateUntPts */
SVTCA[0]	/* SetFreedomAndProjectionVectorToAxis */
SRP0[ ]	/* SetRefPoint0 */
MIRP[11100]	/* MoveIndirectRelPt */
MDRP[00100]	/* MoveDirectRelPt */
MIRP[01100]	/* MoveIndirectRelPt */
MDRP[10100]	/* MoveDirectRelPt */
MIRP[01100]	/* MoveIndirectRelPt */
SRP0[ ]	/* SetRefPoint0 */
MIRP[01110]	/* MoveIndirectRelPt */
SRP2[ ]	/* SetRefPoint2 */
SLOOP[ ]	/* SetLoopVariable */
IP[ ]	/* InterpolatePts */
SRP1[ ]	/* SetRefPoint1 */
SRP2[ ]	/* SetRefPoint2 */
IP[ ]	/* InterpolatePts */
IP[ ]	/* InterpolatePts */
SRP1[ ]	/* SetRefPoint1 */
IP[ ]	/* InterpolatePts */
SRP1[ ]	/* SetRefPoint1 */
IP[ ]	/* InterpolatePts */
IP[ ]	/* InterpolatePts */
SRP1[ ]	/* SetRefPoint1 */
SRP2[ ]	/* SetRefPoint2 */
IP[ ]	/* InterpolatePts */
IUP[0]	/* InterpolateUntPts */";
};
width = 1233;
}
);
note = braceright;
unicode = 125;
},
{
glyphname = asciitilde;
lastChange = "2026-05-10 20:20:28 +0000";
layers = (
{
layerId = m01;
shapes = (
{
closed = 1;
nodes = (
(934,691,o),
(864,691,qs),
(771,691,o),
(655,746,qs),
(633,756,o),
(622,761,qs),
(548,792,o),
(448,814,o),
(395,814,qs),
(312,814,o),
(166,760,o),
(88,699,q),
(88,470,l),
(162,533,o),
(303,591,o),
(381,591,qs),
(432,591,o),
(535,567,o),
(612,533,qs),
(623,529,o),
(645,519,qs),
(758,468,o),
(848,468,qs),
(927,468,o),
(1070,523,o),
(1145,583,q),
(1145,816,l),
(1072,752,o)
);
}
);
userData = {
assembly = "NPUSHB[ ]	/* 21 values pushed */
15 25 18 14 1 11 4 0 18 4 146 25 18 146 11 28 0 21 14 20 28
SRP0[ ]	/* SetRefPoint0 */
MIRP[11100]	/* MoveIndirectRelPt */
MIRP[01100]	/* MoveIndirectRelPt */
IUP[1]	/* InterpolateUntPts */
SVTCA[0]	/* SetFreedomAndProjectionVectorToAxis */
SRP0[ ]	/* SetRefPoint0 */
MDRP[10100]	/* MoveDirectRelPt */
MIRP[11100]	/* MoveIndirectRelPt */
MDRP[10100]	/* MoveDirectRelPt */
MIRP[01100]	/* MoveIndirectRelPt */
SRP0[ ]	/* SetRefPoint0 */
MDRP[00000]	/* MoveDirectRelPt */
SRP1[ ]	/* SetRefPoint1 */
SRP2[ ]	/* SetRefPoint2 */
IP[ ]	/* InterpolatePts */
IP[ ]	/* InterpolatePts */
SRP1[ ]	/* SetRefPoint1 */
SRP2[ ]	/* SetRefPoint2 */
IP[ ]	/* InterpolatePts */
IUP[0]	/* InterpolateUntPts */";
};
width = 1233;
}
);
note = asciitilde;
unicode = 126;
},
{
glyphname = exclamdown;
layers = (
{
layerId = m01;
shapes = (
{
closed = 1;
nodes = (
(483,1120,l),
(483,837,l),
(750,837,l),
(750,1120,l)
);
},
{
closed = 1;
nodes = (
(715,639,l),
(516,639,l),
(483,282,l),
(483,-373,l),
(750,-373,l),
(750,282,l)
);
}
);
userData = {
assembly = "NPUSHB[ ]	/* 15 values pushed */
7 0 4 100 2 144 10 8 7 4 0 1 5 1 10
SRP0[ ]	/* SetRefPoint0 */
MDRP[10100]	/* MoveDirectRelPt */
ALIGNRP[ ]	/* AlignRelativePt */
MIRP[01100]	/* MoveIndirectRelPt */
SHP[0]	/* ShiftPointByLastPoint */
IP[ ]	/* InterpolatePts */
IP[ ]	/* InterpolatePts */
IUP[1]	/* InterpolateUntPts */
SVTCA[0]	/* SetFreedomAndProjectionVectorToAxis */
SRP0[ ]	/* SetRefPoint0 */
MIRP[10100]	/* MoveIndirectRelPt */
MIRP[00100]	/* MoveIndirectRelPt */
MDRP[11100]	/* MoveDirectRelPt */
MDRP[00100]	/* MoveDirectRelPt */
IUP[0]	/* InterpolateUntPts */";
};
width = 1233;
}
);
note = exclamdown;
unicode = 161;
},
{
glyphname = cent;
layers = (
{
layerId = m01;
shapes = (
{
closed = 1;
nodes = (
(858,1140,o),
(797,1145,q),
(797,1432,l),
(655,1432,l),
(655,1145,l),
(420,1129,o),
(147,816,o),
(147,561,qs),
(147,311,o),
(420,-3,o),
(655,-25,q),
(655,-313,l),
(797,-313,l),
(797,-25,l),
(864,-20,o),
(984,14,o),
(1036,43,q),
(1036,311,l),
(980,268,o),
(861,220,o),
(797,215,q),
(797,907,l),
(860,900,o),
(980,851,o),
(1036,809,q),
(1036,1077,l),
(975,1107,o)
);
},
{
closed = 1;
nodes = (
(418,406,o),
(418,561,qs),
(418,714,o),
(541,893,o),
(655,907,q),
(655,215,l),
(544,221,o)
);
}
);
userData = {
assembly = "NPUSHB[ ]	/* 38 values pushed */
8 139 9 121 27 5 104 13 12 1 139 0 121 28 4 104 22 24 21 137 15 12 114 34 27 21 14 23 12 4 8 0 45 31 22 18 47 34
SRP0[ ]	/* SetRefPoint0 */
MIRP[11100]	/* MoveIndirectRelPt */
MIRP[01100]	/* MoveIndirectRelPt */
MIRP[11100]	/* MoveIndirectRelPt */
ALIGNRP[ ]	/* AlignRelativePt */
MDRP[10100]	/* MoveDirectRelPt */
ALIGNRP[ ]	/* AlignRelativePt */
ALIGNRP[ ]	/* AlignRelativePt */
MDRP[01100]	/* MoveDirectRelPt */
SHP[0]	/* ShiftPointByLastPoint */
SHP[0]	/* ShiftPointByLastPoint */
IUP[1]	/* InterpolateUntPts */
SVTCA[0]	/* SetFreedomAndProjectionVectorToAxis */
SRP0[ ]	/* SetRefPoint0 */
MIRP[00100]	/* MoveIndirectRelPt */
SHP[0]	/* ShiftPointByLastPoint */
MIRP[10100]	/* MoveIndirectRelPt */
ALIGNRP[ ]	/* AlignRelativePt */
MDRP[00100]	/* MoveDirectRelPt */
MIRP[01100]	/* MoveIndirectRelPt */
SHP[0]	/* ShiftPointByLastPoint */
MIRP[10100]	/* MoveIndirectRelPt */
MIRP[01100]	/* MoveIndirectRelPt */
SRP0[ ]	/* SetRefPoint0 */
MDRP[00110]	/* MoveDirectRelPt */
MIRP[01110]	/* MoveIndirectRelPt */
SHP[0]	/* ShiftPointByLastPoint */
MIRP[10100]	/* MoveIndirectRelPt */
MIRP[01110]	/* MoveIndirectRelPt */
IUP[0]	/* InterpolateUntPts */";
};
width = 1233;
}
);
note = cent;
unicode = 162;
},
{
glyphname = sterling;
layers = (
{
layerId = m01;
shapes = (
{
closed = 1;
nodes = (
(894,1520,o),
(811,1520,qs),
(579,1520,o),
(354,1272,o),
(354,1016,qs),
(354,819,l),
(156,819,l),
(156,594,l),
(354,594,l),
(354,260,l),
(119,260,l),
(119,0,l),
(1122,0,l),
(1122,260,l),
(641,260,l),
(641,594,l),
(977,594,l),
(977,819,l),
(641,819,l),
(641,995,ls),
(641,1139,o),
(740,1272,o),
(846,1272,qs),
(915,1272,o),
(1045,1229,o),
(1102,1188,q),
(1102,1462,l),
(1036,1491,o)
);
}
);
userData = {
assembly = "NPUSHB[ ]	/* 32 values pushed */
7 22 1 18 10 143 8 1 122 0 121 4 104 25 110 16 12 120 20 8 14 13 9 0 11 7 14 19 15 21 17 28
SRP0[ ]	/* SetRefPoint0 */
MDRP[10100]	/* MoveDirectRelPt */
ALIGNRP[ ]	/* AlignRelativePt */
MDRP[00100]	/* MoveDirectRelPt */
MDRP[00100]	/* MoveDirectRelPt */
MIRP[11100]	/* MoveIndirectRelPt */
ALIGNRP[ ]	/* AlignRelativePt */
MDRP[00100]	/* MoveDirectRelPt */
MDRP[00100]	/* MoveDirectRelPt */
MDRP[00100]	/* MoveDirectRelPt */
IUP[1]	/* InterpolateUntPts */
SVTCA[0]	/* SetFreedomAndProjectionVectorToAxis */
MDAP[1]	/* MoveDirectAbsPt */
MDRP[00100]	/* MoveDirectRelPt */
SHP[0]	/* ShiftPointByLastPoint */
MIRP[01100]	/* MoveIndirectRelPt */
SHP[0]	/* ShiftPointByLastPoint */
MIRP[10100]	/* MoveIndirectRelPt */
MIRP[01100]	/* MoveIndirectRelPt */
MIRP[10100]	/* MoveIndirectRelPt */
MIRP[01100]	/* MoveIndirectRelPt */
SRP0[ ]	/* SetRefPoint0 */
MIRP[01110]	/* MoveIndirectRelPt */
SHP[0]	/* ShiftPointByLastPoint */
SRP2[ ]	/* SetRefPoint2 */
IP[ ]	/* InterpolatePts */
IP[ ]	/* InterpolatePts */
IUP[0]	/* InterpolateUntPts */";
};
width = 1233;
}
);
note = sterling;
unicode = 163;
},
{
glyphname = currency;
layers = (
{
layerId = m01;
shapes = (
{
closed = 1;
nodes = (
(727,467,o),
(653,467,qs),
(580,467,o),
(479,569,o),
(479,643,qs),
(479,716,o),
(580,815,o),
(653,815,qs),
(727,815,o),
(827,716,o),
(827,643,qs),
(827,569,o)
);
},
{
closed = 1;
nodes = (
(692,983,o),
(653,983,qs),
(607,983,o),
(524,960,o),
(483,936,q),
(317,1108,l),
(186,977,l),
(358,807,l),
(334,769,o),
(311,688,o),
(311,641,qs),
(311,600,o),
(334,517,o),
(356,475,q),
(186,305,l),
(315,176,l),
(485,344,l),
(530,322,o),
(614,301,o),
(653,301,qs),
(701,301,o),
(781,324,o),
(817,348,q),
(987,176,l),
(1118,307,l),
(946,477,l),
(970,513,o),
(993,594,o),
(993,641,qs),
(993,685,o),
(971,768,o),
(948,809,q),
(1118,979,l),
(991,1108,l),
(819,938,l),
(773,961,o)
);
}
);
userData = {
assembly = "NPUSHB[ ]	/* 56 values pushed */
32 30 24 22 4 27 9 42 40 14 12 4 45 39 33 21 15 4 3 9 31 23 27 3 41 13 45 48 31 41 39 33 4 36 6 21 15 13 23 4 18 42 30 24 12 4 6 0 22 14 18 6 40 32 36 48
SRP0[ ]	/* SetRefPoint0 */
MDRP[10100]	/* MoveDirectRelPt */
MDRP[00100]	/* MoveDirectRelPt */
SHP[0]	/* ShiftPointByLastPoint */
MDRP[01100]	/* MoveDirectRelPt */
MDRP[10100]	/* MoveDirectRelPt */
MDRP[00100]	/* MoveDirectRelPt */
SHP[0]	/* ShiftPointByLastPoint */
MDRP[01100]	/* MoveDirectRelPt */
SRP1[ ]	/* SetRefPoint1 */
SLOOP[ ]	/* SetLoopVariable */
IP[ ]	/* InterpolatePts */
SRP1[ ]	/* SetRefPoint1 */
SLOOP[ ]	/* SetLoopVariable */
IP[ ]	/* InterpolatePts */
SRP1[ ]	/* SetRefPoint1 */
SRP2[ ]	/* SetRefPoint2 */
SLOOP[ ]	/* SetLoopVariable */
IP[ ]	/* InterpolatePts */
IUP[1]	/* InterpolateUntPts */
SVTCA[0]	/* SetFreedomAndProjectionVectorToAxis */
SRP0[ ]	/* SetRefPoint0 */
MDRP[10100]	/* MoveDirectRelPt */
MDRP[00100]	/* MoveDirectRelPt */
SHP[0]	/* ShiftPointByLastPoint */
MDRP[01100]	/* MoveDirectRelPt */
MDRP[10100]	/* MoveDirectRelPt */
MDRP[00100]	/* MoveDirectRelPt */
SHP[0]	/* ShiftPointByLastPoint */
MDRP[01100]	/* MoveDirectRelPt */
SRP1[ ]	/* SetRefPoint1 */
SLOOP[ ]	/* SetLoopVariable */
IP[ ]	/* InterpolatePts */
SRP2[ ]	/* SetRefPoint2 */
SLOOP[ ]	/* SetLoopVariable */
IP[ ]	/* InterpolatePts */
SRP1[ ]	/* SetRefPoint1 */
SRP2[ ]	/* SetRefPoint2 */
SLOOP[ ]	/* SetLoopVariable */
IP[ ]	/* InterpolatePts */
IUP[0]	/* InterpolateUntPts */";
};
width = 1233;
}
);
note = currency;
unicode = 164;
},
{
glyphname = yen;
layers = (
{
layerId = m01;
shapes = (
{
closed = 1;
nodes = (
(57,965,l),
(57,778,l),
(379,778,l),
(465,627,l),
(57,627,l),
(57,438,l),
(469,438,l),
(469,0,l),
(764,0,l),
(764,438,l),
(1176,438,l),
(1176,627,l),
(768,627,l),
(854,778,l),
(1176,778,l),
(1176,965,l),
(952,965,l),
(1225,1493,l),
(907,1493,l),
(616,893,l),
(326,1493,l),
(8,1493,l),
(281,965,l)
);
}
);
userData = {
assembly = "NPUSHB[ ]	/* 60 values pushed */
3 4 5 4 2 1 2 5 5 4 2 3 2 22 0 22 1 0 0 22 37 2 7 5 15 11 17 9 21 5 19 7 3 0 100 13 22 19 18 1 4 16 2 14 9 8 5 3 4 6 4 10 6 12 15 20 16 0 14 23
SRP0[ ]	/* SetRefPoint0 */
MDRP[10100]	/* MoveDirectRelPt */
MDRP[00100]	/* MoveDirectRelPt */
MDRP[00100]	/* MoveDirectRelPt */
SHP[0]	/* ShiftPointByLastPoint */
MIRP[11100]	/* MoveIndirectRelPt */
MDRP[00100]	/* MoveDirectRelPt */
SHP[0]	/* ShiftPointByLastPoint */
MDRP[00100]	/* MoveDirectRelPt */
SRP2[ ]	/* SetRefPoint2 */
SLOOP[ ]	/* SetLoopVariable */
IP[ ]	/* InterpolatePts */
SRP2[ ]	/* SetRefPoint2 */
IP[ ]	/* InterpolatePts */
SRP1[ ]	/* SetRefPoint1 */
SLOOP[ ]	/* SetLoopVariable */
IP[ ]	/* InterpolatePts */
IUP[1]	/* InterpolateUntPts */
SVTCA[0]	/* SetFreedomAndProjectionVectorToAxis */
MDAP[1]	/* MoveDirectAbsPt */
MIRP[00100]	/* MoveIndirectRelPt */
SHP[0]	/* ShiftPointByLastPoint */
MDRP[10100]	/* MoveDirectRelPt */
ALIGNRP[ ]	/* AlignRelativePt */
MDRP[01100]	/* MoveDirectRelPt */
SHP[0]	/* ShiftPointByLastPoint */
MDRP[11100]	/* MoveDirectRelPt */
ALIGNRP[ ]	/* AlignRelativePt */
MDRP[01100]	/* MoveDirectRelPt */
SHP[0]	/* ShiftPointByLastPoint */
SRP1[ ]	/* SetRefPoint1 */
SRP2[ ]	/* SetRefPoint2 */
IP[ ]	/* InterpolatePts */
IUP[0]	/* InterpolateUntPts */
MPPEM[ ]	/* MeasurePixelPerEm */
GTEQ[ ]	/* GreaterThanOrEqual */
IF[ ]	/* If */
SPVTL[1]	/* SetPVectorToLine */
SRP0[ ]	/* SetRefPoint0 */
SFVTCA[1]	/* SetFVectorToAxis */
MDRP[01001]	/* MoveDirectRelPt */
SPVTL[1]	/* SetPVectorToLine */
SRP0[ ]	/* SetRefPoint0 */
SFVTL[0]	/* SetFVectorToLine */
MDRP[01001]	/* MoveDirectRelPt */
SPVTL[1]	/* SetPVectorToLine */
SRP0[ ]	/* SetRefPoint0 */
SFVTL[0]	/* SetFVectorToLine */
MDRP[01001]	/* MoveDirectRelPt */
SPVTL[1]	/* SetPVectorToLine */
SRP0[ ]	/* SetRefPoint0 */
SFVTCA[1]	/* SetFVectorToAxis */
MDRP[01001]	/* MoveDirectRelPt */
EIF[ ]	/* EndIf */
CLEAR[ ]	/* ClearStack */";
};
width = 1233;
}
);
note = yen;
unicode = 165;
},
{
glyphname = brokenbar;
layers = (
{
layerId = m01;
shapes = (
{
closed = 1;
nodes = (
(502,-350,l),
(729,-350,l),
(729,408,l),
(502,408,l)
);
},
{
closed = 1;
nodes = (
(502,674,l),
(729,674,l),
(729,1432,l),
(502,1432,l)
);
}
);
userData = {
assembly = "NPUSHB[ ]	/* 10 values pushed */
1 0 4 5 8 4 0 6 2 8
SRP0[ ]	/* SetRefPoint0 */
MDRP[10100]	/* MoveDirectRelPt */
ALIGNRP[ ]	/* AlignRelativePt */
MDRP[01100]	/* MoveDirectRelPt */
SHP[0]	/* ShiftPointByLastPoint */
IUP[1]	/* InterpolateUntPts */
SVTCA[0]	/* SetFreedomAndProjectionVectorToAxis */
SRP0[ ]	/* SetRefPoint0 */
MDRP[10100]	/* MoveDirectRelPt */
MDRP[01100]	/* MoveDirectRelPt */
MDRP[10100]	/* MoveDirectRelPt */
MDRP[01100]	/* MoveDirectRelPt */
IUP[0]	/* InterpolateUntPts */";
};
width = 1233;
}
);
note = brokenbar;
unicode = 166;
},
{
glyphname = section;
layers = (
{
layerId = m01;
shapes = (
{
closed = 1;
nodes = (
(815,702,o),
(815,621,qs),
(815,578,o),
(766,509,o),
(711,473,q),
(511,569,o),
(414,657,o),
(414,711,qs),
(414,751,o),
(463,820,o),
(518,856,q),
(550,840,ls)
);
},
{
closed = 1;
nodes = (
(690,1520,o),
(616,1520,qs),
(444,1520,o),
(236,1348,o),
(236,1206,qs),
(236,1124,o),
(300,1004,o),
(371,954,q),
(274,921,o),
(170,782,o),
(170,688,qs),
(170,516,o),
(486,346,qs),
(512,332,l),
(523,326,ls),
(737,211,o),
(737,141,qs),
(737,88,o),
(655,31,o),
(578,31,qs),
(505,31,o),
(343,62,o),
(258,92,q),
(258,-137,l),
(343,-166,o),
(515,-195,o),
(604,-195,qs),
(790,-195,o),
(999,-28,o),
(999,119,qs),
(999,200,o),
(934,323,o),
(864,373,q),
(966,420,o),
(1061,548,o),
(1061,637,qs),
(1061,738,o),
(943,879,o),
(729,989,qs),
(720,994,o),
(701,1004,qs),
(498,1109,o),
(498,1184,qs),
(498,1236,o),
(583,1294,o),
(659,1294,qs),
(713,1294,o),
(845,1265,o),
(930,1235,q),
(930,1460,l),
(847,1490,o)
);
}
);
userData = {
assembly = "NPUSHB[ ]	/* 67 values pushed */
47 48 42 49 11 6 0 4 23 29 48 54 4 13 39 102 38 42 102 35 13 102 12 16 102 60 110 35 63 49 51 48 47 45 19 11 9 0 6 0 23 48 4 45 19 29 12 9 54 38 3 45 63 32 9 63 12 26 19 63 57 26 3 63 38 51 63
SRP0[ ]	/* SetRefPoint0 */
MDRP[10100]	/* MoveDirectRelPt */
MDRP[00100]	/* MoveDirectRelPt */
MIRP[01100]	/* MoveIndirectRelPt */
MDRP[00100]	/* MoveDirectRelPt */
MDRP[10100]	/* MoveDirectRelPt */
MIRP[01100]	/* MoveIndirectRelPt */
SRP0[ ]	/* SetRefPoint0 */
MDRP[00100]	/* MoveDirectRelPt */
MIRP[01110]	/* MoveIndirectRelPt */
MDRP[10100]	/* MoveDirectRelPt */
MIRP[01110]	/* MoveIndirectRelPt */
SRP1[ ]	/* SetRefPoint1 */
SRP2[ ]	/* SetRefPoint2 */
IP[ ]	/* InterpolatePts */
SRP1[ ]	/* SetRefPoint1 */
SRP2[ ]	/* SetRefPoint2 */
IP[ ]	/* InterpolatePts */
SRP1[ ]	/* SetRefPoint1 */
SRP2[ ]	/* SetRefPoint2 */
SLOOP[ ]	/* SetLoopVariable */
IP[ ]	/* InterpolatePts */
SRP1[ ]	/* SetRefPoint1 */
SRP2[ ]	/* SetRefPoint2 */
IP[ ]	/* InterpolatePts */
SRP1[ ]	/* SetRefPoint1 */
SRP2[ ]	/* SetRefPoint2 */
IP[ ]	/* InterpolatePts */
SRP1[ ]	/* SetRefPoint1 */
SRP2[ ]	/* SetRefPoint2 */
IP[ ]	/* InterpolatePts */
IUP[1]	/* InterpolateUntPts */
SVTCA[0]	/* SetFreedomAndProjectionVectorToAxis */
SRP0[ ]	/* SetRefPoint0 */
MDRP[00100]	/* MoveDirectRelPt */
MIRP[10100]	/* MoveIndirectRelPt */
MIRP[01100]	/* MoveIndirectRelPt */
MDRP[10100]	/* MoveDirectRelPt */
MIRP[01100]	/* MoveIndirectRelPt */
SRP0[ ]	/* SetRefPoint0 */
MIRP[01110]	/* MoveIndirectRelPt */
MDRP[10110]	/* MoveDirectRelPt */
MIRP[01110]	/* MoveIndirectRelPt */
SRP1[ ]	/* SetRefPoint1 */
SLOOP[ ]	/* SetLoopVariable */
IP[ ]	/* InterpolatePts */
SLOOP[ ]	/* SetLoopVariable */
IP[ ]	/* InterpolatePts */
SRP1[ ]	/* SetRefPoint1 */
SRP2[ ]	/* SetRefPoint2 */
IP[ ]	/* InterpolatePts */
IUP[0]	/* InterpolateUntPts */";
};
width = 1233;
}
);
note = section;
unicode = 167;
},
{
glyphname = dieresis;
layers = (
{
layerId = m01;
shapes = (
{
closed = 1;
nodes = (
(932,1339,l),
(932,1585,l),
(696,1585,l),
(696,1339,l)
);
},
{
closed = 1;
nodes = (
(537,1339,l),
(537,1585,l),
(301,1585,l),
(301,1339,l)
);
}
);
userData = {
assembly = "NPUSHB[ ]	/* 10 values pushed */
6 2 4 0 8 1 0 5 4 8
SRP0[ ]	/* SetRefPoint0 */
MDRP[10100]	/* MoveDirectRelPt */
MDRP[11100]	/* MoveDirectRelPt */
MDRP[10100]	/* MoveDirectRelPt */
MDRP[01100]	/* MoveDirectRelPt */
IUP[1]	/* InterpolateUntPts */
SVTCA[0]	/* SetFreedomAndProjectionVectorToAxis */
SRP0[ ]	/* SetRefPoint0 */
MDRP[10100]	/* MoveDirectRelPt */
ALIGNRP[ ]	/* AlignRelativePt */
MDRP[01100]	/* MoveDirectRelPt */
SHP[0]	/* ShiftPointByLastPoint */
IUP[0]	/* InterpolateUntPts */";
};
width = 1233;
}
);
note = dieresis;
unicode = 168;
},
{
glyphname = copyright;
layers = (
{
layerId = m01;
shapes = (
{
closed = 1;
nodes = (
(692,1083,o),
(637,1083,qs),
(468,1083,o),
(266,897,o),
(266,741,qs),
(266,586,o),
(468,399,o),
(637,399,qs),
(687,399,o),
(793,417,o),
(848,434,q),
(848,602,l),
(806,572,o),
(710,543,o),
(657,543,qs),
(559,543,o),
(453,646,o),
(453,741,qs),
(453,836,o),
(560,940,o),
(657,940,qs),
(705,940,o),
(796,912,o),
(848,881,q),
(848,1049,l),
(797,1066,o)
);
},
{
closed = 1;
nodes = (
(272,1268,o),
(182,1178,qs),
(92,1087,o),
(0,867,o),
(0,741,qs),
(0,616,o),
(91,398,o),
(182,307,qs),
(273,216,o),
(491,125,o),
(616,125,qs),
(742,125,o),
(960,216,o),
(1051,307,qs),
(1142,398,o),
(1233,616,o),
(1233,741,qs),
(1233,867,o),
(1141,1087,o),
(1051,1178,qs),
(961,1268,o),
(743,1358,o),
(616,1358,qs),
(490,1358,o)
);
},
{
closed = 1;
nodes = (
(886,1158,o),
(958,1085,qs),
(1030,1014,o),
(1102,842,o),
(1102,741,qs),
(1102,643,o),
(1030,473,o),
(958,401,qs),
(888,329,o),
(716,256,o),
(616,256,qs),
(517,256,o),
(345,329,o),
(274,401,qs),
(203,473,o),
(131,643,o),
(131,741,qs),
(131,842,o),
(203,1014,o),
(274,1085,qs),
(347,1158,o),
(517,1229,o),
(616,1229,qs),
(717,1229,o)
);
}
);
userData = {
assembly = "NPUSHB[ ]	/* 37 values pushed */
14 13 0 1 13 152 10 151 17 150 62 1 152 4 151 23 150 50 149 26 62 149 38 74 7 20 68 66 13 0 32 20 67 56 66 32 44
MDAP[1]	/* MoveDirectAbsPt */
MDRP[00110]	/* MoveDirectRelPt */
MIRP[11110]	/* MoveIndirectRelPt */
MIRP[00101]	/* MoveIndirectRelPt */
SRP0[ ]	/* SetRefPoint0 */
MDRP[00100]	/* MoveDirectRelPt */
SHP[0]	/* ShiftPointByLastPoint */
MIRP[01110]	/* MoveIndirectRelPt */
SRP0[ ]	/* SetRefPoint0 */
MDRP[01110]	/* MoveDirectRelPt */
IUP[1]	/* InterpolateUntPts */
SVTCA[0]	/* SetFreedomAndProjectionVectorToAxis */
SRP0[ ]	/* SetRefPoint0 */
MDRP[10100]	/* MoveDirectRelPt */
MIRP[01100]	/* MoveIndirectRelPt */
MDRP[10100]	/* MoveDirectRelPt */
MIRP[11100]	/* MoveIndirectRelPt */
MIRP[10100]	/* MoveIndirectRelPt */
MIRP[11100]	/* MoveIndirectRelPt */
MIRP[00100]	/* MoveIndirectRelPt */
SRP0[ ]	/* SetRefPoint0 */
MIRP[10101]	/* MoveIndirectRelPt */
MIRP[11110]	/* MoveIndirectRelPt */
MIRP[00100]	/* MoveIndirectRelPt */
SRP0[ ]	/* SetRefPoint0 */
MDRP[01110]	/* MoveDirectRelPt */
SRP0[ ]	/* SetRefPoint0 */
MDRP[01110]	/* MoveDirectRelPt */
IUP[0]	/* InterpolateUntPts */";
};
width = 1233;
}
);
note = copyright;
unicode = 169;
},
{
glyphname = ordfeminine;
layers = (
{
layerId = m01;
shapes = (
{
closed = 1;
nodes = (
(676,866,o),
(590,866,qs),
(536,866,o),
(475,922,o),
(475,971,qs),
(475,1027,o),
(575,1079,o),
(684,1079,qs),
(786,1079,l),
(786,1049,ls),
(786,969,o)
);
},
{
closed = 1;
nodes = (
(979,717,l),
(979,1165,ls),
(979,1348,o),
(801,1520,o),
(612,1520,qs),
(536,1520,o),
(388,1492,o),
(315,1464,q),
(315,1276,l),
(379,1310,o),
(522,1343,o),
(604,1343,qs),
(695,1343,o),
(786,1294,o),
(786,1245,qs),
(786,1219,l),
(629,1219,ls),
(441,1219,o),
(256,1086,o),
(256,952,qs),
(256,835,o),
(407,698,o),
(537,698,qs),
(615,698,o),
(736,752,o),
(786,809,q),
(786,717,l)
);
},
{
closed = 1;
nodes = (
(981,428,l),
(981,598,l),
(293,598,l),
(293,428,l)
);
}
);
userData = {
assembly = "NPUSHB[ ]	/* 52 values pushed */
0 8 1 22 28 20 11 36 8 35 20 1 40 163 38 1 20 36 8 163 38 14 28 163 29 162 25 163 14 164 32 110 42 38 28 17 2 20 5 0 40 39 21 11 0 23 35 28 5 23 17 42
SRP0[ ]	/* SetRefPoint0 */
MDRP[10100]	/* MoveDirectRelPt */
MIRP[01100]	/* MoveIndirectRelPt */
MDRP[01100]	/* MoveDirectRelPt */
MDRP[10100]	/* MoveDirectRelPt */
MIRP[01100]	/* MoveIndirectRelPt */
SHP[0]	/* ShiftPointByLastPoint */
SHP[0]	/* ShiftPointByLastPoint */
MDRP[00000]	/* MoveDirectRelPt */
MDRP[00000]	/* MoveDirectRelPt */
SRP1[ ]	/* SetRefPoint1 */
SRP2[ ]	/* SetRefPoint2 */
IP[ ]	/* InterpolatePts */
IP[ ]	/* InterpolatePts */
SRP1[ ]	/* SetRefPoint1 */
SRP2[ ]	/* SetRefPoint2 */
IP[ ]	/* InterpolatePts */
IUP[1]	/* InterpolateUntPts */
SVTCA[0]	/* SetFreedomAndProjectionVectorToAxis */
SRP0[ ]	/* SetRefPoint0 */
MIRP[10100]	/* MoveIndirectRelPt */
MIRP[00100]	/* MoveIndirectRelPt */
MIRP[01100]	/* MoveIndirectRelPt */
MIRP[10100]	/* MoveIndirectRelPt */
MIRP[01100]	/* MoveIndirectRelPt */
SRP0[ ]	/* SetRefPoint0 */
MDRP[01101]	/* MoveDirectRelPt */
MIRP[01110]	/* MoveIndirectRelPt */
MDRP[10100]	/* MoveDirectRelPt */
MDRP[10110]	/* MoveDirectRelPt */
MDRP[01110]	/* MoveDirectRelPt */
SRP0[ ]	/* SetRefPoint0 */
MIRP[01110]	/* MoveIndirectRelPt */
SRP1[ ]	/* SetRefPoint1 */
SRP2[ ]	/* SetRefPoint2 */
IP[ ]	/* InterpolatePts */
SRP1[ ]	/* SetRefPoint1 */
SRP2[ ]	/* SetRefPoint2 */
IP[ ]	/* InterpolatePts */
SRP1[ ]	/* SetRefPoint1 */
SRP2[ ]	/* SetRefPoint2 */
IP[ ]	/* InterpolatePts */
SRP1[ ]	/* SetRefPoint1 */
SRP2[ ]	/* SetRefPoint2 */
IP[ ]	/* InterpolatePts */
IUP[0]	/* InterpolateUntPts */";
};
width = 1233;
}
);
note = ordfeminine;
unicode = 170;
},
{
glyphname = guillemotleft;
layers = (
{
layerId = m01;
shapes = (
{
closed = 1;
nodes = (
(573,535,l),
(1042,141,l),
(1042,379,l),
(766,600,l),
(1042,821,l),
(1042,1059,l),
(573,666,l)
);
},
{
closed = 1;
nodes = (
(119,535,l),
(588,141,l),
(588,379,l),
(311,600,l),
(588,821,l),
(588,1059,l),
(119,666,l)
);
}
);
userData = {
assembly = "NPUSHB[ ]	/* 21 values pushed */
9 2 11 4 7 0 14 9 12 5 2 7 3 0 85 5 10 7 85 12 14
SRP0[ ]	/* SetRefPoint0 */
MDRP[10100]	/* MoveDirectRelPt */
MIRP[11100]	/* MoveIndirectRelPt */
ALIGNRP[ ]	/* AlignRelativePt */
MDRP[10100]	/* MoveDirectRelPt */
MIRP[01100]	/* MoveIndirectRelPt */
SHP[0]	/* ShiftPointByLastPoint */
SRP1[ ]	/* SetRefPoint1 */
IP[ ]	/* InterpolatePts */
SRP1[ ]	/* SetRefPoint1 */
SRP2[ ]	/* SetRefPoint2 */
IP[ ]	/* InterpolatePts */
IUP[1]	/* InterpolateUntPts */
SVTCA[0]	/* SetFreedomAndProjectionVectorToAxis */
SRP0[ ]	/* SetRefPoint0 */
MDRP[10100]	/* MoveDirectRelPt */
ALIGNRP[ ]	/* AlignRelativePt */
MDRP[01100]	/* MoveDirectRelPt */
SHP[0]	/* ShiftPointByLastPoint */
IP[ ]	/* InterpolatePts */
IP[ ]	/* InterpolatePts */
IUP[0]	/* InterpolateUntPts */";
};
width = 1233;
}
);
note = guillemotleft;
unicode = 171;
},
{
glyphname = logicalnot;
layers = (
{
layerId = m01;
shapes = (
{
closed = 1;
nodes = (
(907,662,l),
(907,362,l),
(1145,362,l),
(1145,899,l),
(88,899,l),
(88,662,l)
);
}
);
userData = {
assembly = "NPUSHB[ ]	/* 12 values pushed */
4 118 2 0 6 3 9 1 21 0 20 6
SRP0[ ]	/* SetRefPoint0 */
MIRP[11100]	/* MoveIndirectRelPt */
MIRP[11100]	/* MoveIndirectRelPt */
MIRP[01100]	/* MoveIndirectRelPt */
IUP[1]	/* InterpolateUntPts */
SVTCA[0]	/* SetFreedomAndProjectionVectorToAxis */
SRP0[ ]	/* SetRefPoint0 */
MDRP[10100]	/* MoveDirectRelPt */
MDRP[00100]	/* MoveDirectRelPt */
MIRP[01100]	/* MoveIndirectRelPt */
IUP[0]	/* InterpolateUntPts */";
};
width = 1233;
}
);
note = logicalnot;
unicode = 172;
},
{
glyphname = sfthyphen;
layers = (
{
layerId = m01;
shapes = (
{
closed = 1;
nodes = (
(932,444,l),
(932,735,l),
(301,735,l),
(301,444,l)
);
}
);
userData = {
assembly = "PUSHB[ ]	/* 6 values pushed */
0 2 4 1 0 4
SRP0[ ]	/* SetRefPoint0 */
MDRP[10100]	/* MoveDirectRelPt */
MDRP[01100]	/* MoveDirectRelPt */
IUP[1]	/* InterpolateUntPts */
SVTCA[0]	/* SetFreedomAndProjectionVectorToAxis */
SRP0[ ]	/* SetRefPoint0 */
MDRP[10100]	/* MoveDirectRelPt */
MDRP[01100]	/* MoveDirectRelPt */
IUP[0]	/* InterpolateUntPts */";
};
width = 1233;
}
);
note = sfthyphen;
unicode = 173;
},
{
glyphname = registered;
layers = (
{
layerId = m01;
shapes = (
{
closed = 1;
nodes = (
(272,1268,o),
(182,1178,qs),
(92,1087,o),
(0,867,o),
(0,741,qs),
(0,616,o),
(91,398,o),
(182,307,qs),
(273,216,o),
(491,125,o),
(616,125,qs),
(742,125,o),
(960,216,o),
(1051,307,qs),
(1142,398,o),
(1233,616,o),
(1233,741,qs),
(1233,867,o),
(1141,1087,o),
(1051,1178,qs),
(961,1268,o),
(743,1358,o),
(616,1358,qs),
(490,1358,o)
);
},
{
closed = 1;
nodes = (
(702,903,o),
(702,860,qs),
(702,820,o),
(645,780,o),
(588,780,qs),
(524,780,l),
(524,944,l),
(588,944,ls),
(646,944,o)
);
},
{
closed = 1;
nodes = (
(360,430,l),
(524,430,l),
(524,670,l),
(555,670,ls),
(596,668,o),
(653,621,o),
(680,563,qs),
(743,430,l),
(915,430,l),
(836,596,ls),
(812,645,o),
(757,701,o),
(719,715,q),
(790,727,o),
(868,812,o),
(868,877,qs),
(868,967,o),
(739,1055,o),
(606,1055,qs),
(360,1055,l)
);
},
{
closed = 1;
nodes = (
(886,1158,o),
(958,1085,qs),
(1030,1014,o),
(1102,842,o),
(1102,741,qs),
(1102,643,o),
(1030,473,o),
(958,399,qs),
(887,328,o),
(715,256,o),
(616,256,qs),
(517,256,o),
(346,328,o),
(274,399,qs),
(203,473,o),
(131,643,o),
(131,741,qs),
(131,842,o),
(203,1014,o),
(274,1085,qs),
(347,1158,o),
(517,1229,o),
(616,1229,qs),
(717,1229,o)
);
}
);
userData = {
assembly = "NPUSHB[ ]	/* 51 values pushed */
45 42 43 39 48 26 24 33 150 53 149 0 26 50 43 150 65 149 0 12 77 42 39 44 3 36 48 45 27 24 4 33 30 49 25 69 51 43 30 69 36 67 71 66 6 51 67 59 66 6 18
MDAP[1]	/* MoveDirectAbsPt */
MDRP[00110]	/* MoveDirectRelPt */
MIRP[11110]	/* MoveIndirectRelPt */
MIRP[00101]	/* MoveIndirectRelPt */
SRP0[ ]	/* SetRefPoint0 */
MIRP[11110]	/* MoveIndirectRelPt */
MIRP[10101]	/* MoveIndirectRelPt */
MIRP[01110]	/* MoveIndirectRelPt */
MDRP[00100]	/* MoveDirectRelPt */
SRP0[ ]	/* SetRefPoint0 */
MIRP[01110]	/* MoveIndirectRelPt */
SHP[0]	/* ShiftPointByLastPoint */
SRP1[ ]	/* SetRefPoint1 */
IP[ ]	/* InterpolatePts */
SLOOP[ ]	/* SetLoopVariable */
IP[ ]	/* InterpolatePts */
SRP2[ ]	/* SetRefPoint2 */
SLOOP[ ]	/* SetLoopVariable */
IP[ ]	/* InterpolatePts */
IUP[1]	/* InterpolateUntPts */
SVTCA[0]	/* SetFreedomAndProjectionVectorToAxis */
SRP0[ ]	/* SetRefPoint0 */
MDRP[10100]	/* MoveDirectRelPt */
MDRP[00100]	/* MoveDirectRelPt */
MIRP[11100]	/* MoveIndirectRelPt */
MIRP[10100]	/* MoveIndirectRelPt */
ALIGNRP[ ]	/* AlignRelativePt */
MDRP[00100]	/* MoveDirectRelPt */
SRP0[ ]	/* SetRefPoint0 */
MIRP[11110]	/* MoveIndirectRelPt */
MIRP[10101]	/* MoveIndirectRelPt */
MDRP[01110]	/* MoveDirectRelPt */
SRP0[ ]	/* SetRefPoint0 */
MDRP[01110]	/* MoveDirectRelPt */
IP[ ]	/* InterpolatePts */
SRP1[ ]	/* SetRefPoint1 */
IP[ ]	/* InterpolatePts */
IP[ ]	/* InterpolatePts */
IUP[0]	/* InterpolateUntPts */";
};
width = 1233;
}
);
note = registered;
unicode = 174;
},
{
glyphname = macron;
layers = (
{
layerId = m01;
shapes = (
{
closed = 1;
nodes = (
(932,1368,l),
(932,1556,l),
(301,1556,l),
(301,1368,l)
);
}
);
userData = {
assembly = "PUSHB[ ]	/* 6 values pushed */
2 0 4 1 0 4
SRP0[ ]	/* SetRefPoint0 */
MDRP[10100]	/* MoveDirectRelPt */
MDRP[01100]	/* MoveDirectRelPt */
IUP[1]	/* InterpolateUntPts */
SVTCA[0]	/* SetFreedomAndProjectionVectorToAxis */
SRP0[ ]	/* SetRefPoint0 */
MDRP[10100]	/* MoveDirectRelPt */
MDRP[01100]	/* MoveDirectRelPt */
IUP[0]	/* InterpolateUntPts */";
};
width = 1233;
}
);
note = macron;
unicode = 175;
},
{
glyphname = degree;
layers = (
{
layerId = m01;
shapes = (
{
closed = 1;
nodes = (
(283,1327,o),
(283,1186,qs),
(283,1044,o),
(473,854,o),
(614,854,qs),
(682,854,o),
(804,905,o),
(852,952,qs),
(898,998,o),
(948,1120,o),
(948,1186,qs),
(948,1254,o),
(899,1374,o),
(852,1421,qs),
(805,1469,o),
(683,1520,o),
(616,1520,qs),
(475,1520,o)
);
},
{
closed = 1;
nodes = (
(786,1258,o),
(786,1186,qs),
(786,1115,o),
(686,1016,o),
(614,1016,qs),
(542,1016,o),
(444,1114,o),
(444,1186,qs),
(444,1258,o),
(544,1358,o),
(616,1358,qs),
(687,1358,o)
);
}
);
userData = {
assembly = "NPUSHB[ ]	/* 15 values pushed */
24 148 12 18 148 0 110 30 27 64 6 21 64 15 30
SRP0[ ]	/* SetRefPoint0 */
MDRP[10100]	/* MoveDirectRelPt */
MIRP[01100]	/* MoveIndirectRelPt */
MDRP[10100]	/* MoveDirectRelPt */
MIRP[01100]	/* MoveIndirectRelPt */
IUP[1]	/* InterpolateUntPts */
SVTCA[0]	/* SetFreedomAndProjectionVectorToAxis */
SRP0[ ]	/* SetRefPoint0 */
MIRP[10100]	/* MoveIndirectRelPt */
MIRP[01100]	/* MoveIndirectRelPt */
MDRP[10100]	/* MoveDirectRelPt */
MIRP[01100]	/* MoveIndirectRelPt */
IUP[0]	/* InterpolateUntPts */";
};
width = 1233;
}
);
note = degree;
unicode = 176;
},
{
glyphname = plusminus;
layers = (
{
layerId = m01;
shapes = (
{
closed = 1;
nodes = (
(498,930,l),
(88,930,l),
(88,694,l),
(498,694,l),
(498,340,l),
(735,340,l),
(735,694,l),
(1145,694,l),
(1145,930,l),
(735,930,l),
(735,1284,l),
(498,1284,l)
);
},
{
closed = 1;
nodes = (
(1145,0,l),
(1145,238,l),
(88,238,l),
(88,0,l)
);
}
);
userData = {
assembly = "NPUSHB[ ]	/* 20 values pushed */
5 7 3 118 0 9 1 12 118 14 13 2 4 0 9 12 8 10 6 16
SRP0[ ]	/* SetRefPoint0 */
MDRP[10100]	/* MoveDirectRelPt */
ALIGNRP[ ]	/* AlignRelativePt */
MDRP[00100]	/* MoveDirectRelPt */
SHP[0]	/* ShiftPointByLastPoint */
MIRP[11100]	/* MoveIndirectRelPt */
ALIGNRP[ ]	/* AlignRelativePt */
MDRP[00100]	/* MoveDirectRelPt */
SHP[0]	/* ShiftPointByLastPoint */
IUP[1]	/* InterpolateUntPts */
SVTCA[0]	/* SetFreedomAndProjectionVectorToAxis */
MDAP[1]	/* MoveDirectAbsPt */
MIRP[01100]	/* MoveIndirectRelPt */
MDRP[10100]	/* MoveDirectRelPt */
ALIGNRP[ ]	/* AlignRelativePt */
MDRP[00100]	/* MoveDirectRelPt */
MIRP[11100]	/* MoveIndirectRelPt */
ALIGNRP[ ]	/* AlignRelativePt */
MDRP[00100]	/* MoveDirectRelPt */
IUP[0]	/* InterpolateUntPts */";
};
width = 1233;
}
);
note = plusminus;
unicode = 177;
},
{
glyphname = twosuperior;
layers = (
{
layerId = m01;
shapes = (
{
closed = 1;
nodes = (
(583,878,qs),
(938,1158,o),
(938,1284,qs),
(938,1395,o),
(751,1520,o),
(582,1520,qs),
(516,1520,o),
(374,1497,o),
(299,1475,q),
(299,1311,l),
(376,1345,o),
(511,1380,o),
(567,1380,qs),
(642,1380,o),
(729,1320,o),
(729,1268,qs),
(729,1189,o),
(415,927,qs),
(325,852,o),
(274,809,q),
(274,668,l),
(940,668,l),
(940,813,l),
(500,813,l),
(529,836,o)
);
}
);
userData = {
assembly = "NPUSHB[ ]	/* 26 values pushed */
4 0 178 2 14 178 15 180 2 179 11 178 18 177 25 0 14 8 2 1 8 94 21 14 3 25
SRP0[ ]	/* SetRefPoint0 */
MDRP[10100]	/* MoveDirectRelPt */
MDRP[00100]	/* MoveDirectRelPt */
MDRP[10100]	/* MoveDirectRelPt */
MIRP[01100]	/* MoveIndirectRelPt */
MDRP[00000]	/* MoveDirectRelPt */
MDRP[00000]	/* MoveDirectRelPt */
SRP1[ ]	/* SetRefPoint1 */
SRP2[ ]	/* SetRefPoint2 */
IP[ ]	/* InterpolatePts */
IUP[1]	/* InterpolateUntPts */
SVTCA[0]	/* SetFreedomAndProjectionVectorToAxis */
SRP0[ ]	/* SetRefPoint0 */
MIRP[10100]	/* MoveIndirectRelPt */
MIRP[01100]	/* MoveIndirectRelPt */
MIRP[01100]	/* MoveIndirectRelPt */
MIRP[10100]	/* MoveIndirectRelPt */
MIRP[01100]	/* MoveIndirectRelPt */
SRP0[ ]	/* SetRefPoint0 */
MIRP[01110]	/* MoveIndirectRelPt */
IP[ ]	/* InterpolatePts */
IUP[0]	/* InterpolateUntPts */";
};
width = 1233;
}
);
note = twosuperior;
unicode = 178;
},
{
glyphname = threesuperior;
layers = (
{
layerId = m01;
shapes = (
{
closed = 1;
nodes = (
(766,974,o),
(766,913,qs),
(766,857,o),
(671,793,o),
(586,793,qs),
(506,793,o),
(354,821,o),
(287,848,q),
(287,694,l),
(361,674,o),
(511,653,o),
(586,653,qs),
(770,653,o),
(963,780,o),
(963,901,qs),
(963,993,o),
(846,1105,o),
(735,1120,q),
(833,1136,o),
(938,1230,o),
(938,1303,qs),
(938,1404,o),
(754,1520,o),
(592,1520,qs),
(525,1520,o),
(386,1502,o),
(317,1485,q),
(317,1333,l),
(385,1356,o),
(523,1378,o),
(592,1378,qs),
(662,1378,o),
(741,1327,o),
(741,1282,qs),
(741,1238,o),
(656,1188,o),
(582,1188,qs),
(471,1188,l),
(471,1042,l),
(582,1042,ls),
(668,1042,o)
);
}
);
userData = {
assembly = "NPUSHB[ ]	/* 38 values pushed */
22 0 178 2 32 178 31 180 35 178 2 28 12 178 13 180 28 179 9 178 16 177 41 22 3 0 3 1 6 94 19 38 94 25 12 1 31 41
SRP0[ ]	/* SetRefPoint0 */
MDRP[10100]	/* MoveDirectRelPt */
MDRP[00100]	/* MoveDirectRelPt */
MDRP[00100]	/* MoveDirectRelPt */
MDRP[10100]	/* MoveDirectRelPt */
MIRP[01100]	/* MoveIndirectRelPt */
MDRP[10100]	/* MoveDirectRelPt */
MIRP[01100]	/* MoveIndirectRelPt */
SRP1[ ]	/* SetRefPoint1 */
SLOOP[ ]	/* SetLoopVariable */
IP[ ]	/* InterpolatePts */
IUP[1]	/* InterpolateUntPts */
SVTCA[0]	/* SetFreedomAndProjectionVectorToAxis */
SRP0[ ]	/* SetRefPoint0 */
MIRP[10100]	/* MoveIndirectRelPt */
MIRP[01100]	/* MoveIndirectRelPt */
MIRP[01100]	/* MoveIndirectRelPt */
MIRP[10100]	/* MoveIndirectRelPt */
MIRP[01100]	/* MoveIndirectRelPt */
SRP0[ ]	/* SetRefPoint0 */
MDRP[00110]	/* MoveDirectRelPt */
MIRP[01110]	/* MoveIndirectRelPt */
MIRP[10110]	/* MoveIndirectRelPt */
MIRP[01110]	/* MoveIndirectRelPt */
SRP0[ ]	/* SetRefPoint0 */
MIRP[01110]	/* MoveIndirectRelPt */
IP[ ]	/* InterpolatePts */
IUP[0]	/* InterpolateUntPts */";
};
width = 1233;
}
);
note = threesuperior;
unicode = 179;
},
{
glyphname = acute;
layers = (
{
layerId = m01;
shapes = (
{
closed = 1;
nodes = (
(666,1262,l),
(1034,1638,l),
(752,1638,l),
(469,1262,l)
);
}
);
userData = {
assembly = "PUSHB[ ]	/* 7 values pushed */
2 0 131 4 1 3 4
SRP0[ ]	/* SetRefPoint0 */
MDRP[10100]	/* MoveDirectRelPt */
MDRP[01100]	/* MoveDirectRelPt */
IUP[1]	/* InterpolateUntPts */
SVTCA[0]	/* SetFreedomAndProjectionVectorToAxis */
SRP0[ ]	/* SetRefPoint0 */
MIRP[10100]	/* MoveIndirectRelPt */
MPPEM[ ]	/* MeasurePixelPerEm */
PUSHB[ ]	/* 1 value pushed */
9
EQ[ ]	/* Equal */
MPPEM[ ]	/* MeasurePixelPerEm */
PUSHB[ ]	/* 1 value pushed */
14
EQ[ ]	/* Equal */
OR[ ]	/* LogicalOr */
IF[ ]	/* If */
PUSHW[ ]	/* 2 values pushed */
0 64
SHPIX[ ]	/* ShiftZoneByPixel */
EIF[ ]	/* EndIf */
MDRP[01100]	/* MoveDirectRelPt */
IUP[0]	/* InterpolateUntPts */";
};
width = 1233;
}
);
note = acute;
unicode = 180;
},
{
glyphname = mu;
layers = (
{
layerId = m01;
shapes = (
{
closed = 1;
nodes = (
(461,66,l),
(487,18,o),
(570,-29,o),
(629,-29,qs),
(699,-29,o),
(809,51,o),
(846,129,q),
(873,46,o),
(964,-29,o),
(1036,-29,qs),
(1071,-29,o),
(1145,-7,o),
(1188,16,q),
(1188,233,l),
(1173,222,o),
(1147,211,o),
(1133,211,qs),
(1102,211,o),
(1075,273,o),
(1075,344,qs),
(1075,1120,l),
(786,1120,l),
(786,440,ls),
(786,325,o),
(706,211,o),
(625,211,qs),
(543,211,o),
(461,326,o),
(461,440,qs),
(461,1120,l),
(174,1120,l),
(174,-428,l),
(463,-428,l)
);
}
);
userData = {
assembly = "NPUSHB[ ]	/* 39 values pushed */
19 25 31 3 22 6 9 3 12 3 1 18 15 6 104 28 22 114 0 145 10 1 144 33 32 2 25 9 18 9 22 11 55 31 2 22 0 53 33
SRP0[ ]	/* SetRefPoint0 */
MIRP[11100]	/* MoveIndirectRelPt */
MIRP[01100]	/* MoveIndirectRelPt */
SHP[0]	/* ShiftPointByLastPoint */
MIRP[11100]	/* MoveIndirectRelPt */
MIRP[01100]	/* MoveIndirectRelPt */
MDRP[00100]	/* MoveDirectRelPt */
SRP2[ ]	/* SetRefPoint2 */
IP[ ]	/* InterpolatePts */
SRP1[ ]	/* SetRefPoint1 */
IP[ ]	/* InterpolatePts */
IUP[1]	/* InterpolateUntPts */
SVTCA[0]	/* SetFreedomAndProjectionVectorToAxis */
SRP0[ ]	/* SetRefPoint0 */
MIRP[00100]	/* MoveIndirectRelPt */
SHP[0]	/* ShiftPointByLastPoint */
MIRP[00100]	/* MoveIndirectRelPt */
MIRP[10100]	/* MoveIndirectRelPt */
ALIGNRP[ ]	/* AlignRelativePt */
MIRP[11100]	/* MoveIndirectRelPt */
ALIGNRP[ ]	/* AlignRelativePt */
MDRP[00100]	/* MoveDirectRelPt */
SRP1[ ]	/* SetRefPoint1 */
SLOOP[ ]	/* SetLoopVariable */
IP[ ]	/* InterpolatePts */
SRP1[ ]	/* SetRefPoint1 */
SRP2[ ]	/* SetRefPoint2 */
SLOOP[ ]	/* SetLoopVariable */
IP[ ]	/* InterpolatePts */
IUP[0]	/* InterpolateUntPts */";
};
width = 1233;
}
);
note = mu;
unicode = 181;
},
{
glyphname = paragraph;
layers = (
{
layerId = m01;
shapes = (
{
closed = 1;
nodes = (
(70,1261,o),
(70,1071,qs),
(70,893,o),
(291,674,o),
(496,649,q),
(496,-197,l),
(684,-197,l),
(684,1346,l),
(874,1346,l),
(874,-197,l),
(1065,-197,l),
(1065,1493,l),
(545,1493,ls),
(330,1493,o)
);
}
);
userData = {
assembly = "NPUSHB[ ]	/* 15 values pushed */
8 2 4 0 100 6 2 14 0 7 5 3 1 11 14
SRP0[ ]	/* SetRefPoint0 */
MDRP[10100]	/* MoveDirectRelPt */
MDRP[10100]	/* MoveDirectRelPt */
MDRP[11100]	/* MoveDirectRelPt */
MDRP[10100]	/* MoveDirectRelPt */
MDRP[01100]	/* MoveDirectRelPt */
IP[ ]	/* InterpolatePts */
IUP[1]	/* InterpolateUntPts */
SVTCA[0]	/* SetFreedomAndProjectionVectorToAxis */
SRP0[ ]	/* SetRefPoint0 */
MDRP[00100]	/* MoveDirectRelPt */
SHP[0]	/* ShiftPointByLastPoint */
MIRP[10100]	/* MoveIndirectRelPt */
MDRP[01100]	/* MoveDirectRelPt */
SRP1[ ]	/* SetRefPoint1 */
IP[ ]	/* InterpolatePts */
IUP[0]	/* InterpolateUntPts */";
};
width = 1233;
}
);
note = paragraph;
unicode = 182;
},
{
glyphname = periodcentered;
layers = (
{
layerId = m01;
shapes = (
{
closed = 1;
nodes = (
(782,530,l),
(782,895,l),
(449,895,l),
(449,530,l)
);
}
);
userData = {
assembly = "PUSHB[ ]	/* 8 values pushed */
2 119 0 4 1 10 0 4
SRP0[ ]	/* SetRefPoint0 */
MDRP[10100]	/* MoveDirectRelPt */
MIRP[01100]	/* MoveIndirectRelPt */
IUP[1]	/* InterpolateUntPts */
SVTCA[0]	/* SetFreedomAndProjectionVectorToAxis */
SRP0[ ]	/* SetRefPoint0 */
MDRP[10100]	/* MoveDirectRelPt */
MIRP[01100]	/* MoveIndirectRelPt */
IUP[0]	/* InterpolateUntPts */";
};
width = 1233;
}
);
note = periodcentered;
unicode = 183;
},
{
glyphname = onesuperior;
layers = (
{
layerId = m01;
shapes = (
{
closed = 1;
nodes = (
(961,668,l),
(961,813,l),
(735,813,l),
(735,1503,l),
(541,1503,l),
(319,1462,l),
(319,1313,l),
(539,1356,l),
(539,813,l),
(313,813,l),
(313,668,l)
);
}
);
userData = {
assembly = "NPUSHB[ ]	/* 21 values pushed */
7 0 178 9 3 178 4 2 178 9 179 5 177 11 8 6 94 3 0 1 11
SRP0[ ]	/* SetRefPoint0 */
MDRP[10100]	/* MoveDirectRelPt */
MDRP[00100]	/* MoveDirectRelPt */
MDRP[00100]	/* MoveDirectRelPt */
MIRP[11100]	/* MoveIndirectRelPt */
MDRP[00100]	/* MoveDirectRelPt */
IUP[1]	/* InterpolateUntPts */
SVTCA[0]	/* SetFreedomAndProjectionVectorToAxis */
SRP0[ ]	/* SetRefPoint0 */
MIRP[10100]	/* MoveIndirectRelPt */
MIRP[01100]	/* MoveIndirectRelPt */
MIRP[01100]	/* MoveIndirectRelPt */
MDRP[10100]	/* MoveDirectRelPt */
MIRP[01100]	/* MoveIndirectRelPt */
SRP0[ ]	/* SetRefPoint0 */
MIRP[01110]	/* MoveIndirectRelPt */
SHP[0]	/* ShiftPointByLastPoint */
IUP[0]	/* InterpolateUntPts */";
};
width = 1233;
}
);
note = onesuperior;
unicode = 185;
},
{
glyphname = ordmasculine;
layers = (
{
layerId = m01;
shapes = (
{
closed = 1;
nodes = (
(981,428,l),
(981,598,l),
(293,598,l),
(293,428,l)
);
},
{
closed = 1;
nodes = (
(471,698,o),
(637,698,qs),
(804,698,o),
(999,919,o),
(999,1108,qs),
(999,1298,o),
(803,1520,o),
(637,1520,qs),
(471,1520,o),
(274,1297,o),
(274,1108,qs),
(274,919,o)
);
},
{
closed = 1;
nodes = (
(795,1217,o),
(795,1108,qs),
(795,999,o),
(710,874,o),
(637,874,qs),
(564,874,o),
(479,999,o),
(479,1108,qs),
(479,1217,o),
(564,1343,o),
(637,1343,qs),
(710,1343,o)
);
}
);
userData = {
assembly = "NPUSHB[ ]	/* 25 values pushed */
2 163 0 22 163 13 164 16 163 7 110 28 1 25 10 0 19 4 25 23 10 19 23 4 28
SRP0[ ]	/* SetRefPoint0 */
MDRP[10100]	/* MoveDirectRelPt */
MIRP[01100]	/* MoveIndirectRelPt */
MDRP[10100]	/* MoveDirectRelPt */
MIRP[01100]	/* MoveIndirectRelPt */
SRP1[ ]	/* SetRefPoint1 */
SRP2[ ]	/* SetRefPoint2 */
IP[ ]	/* InterpolatePts */
SRP1[ ]	/* SetRefPoint1 */
SRP2[ ]	/* SetRefPoint2 */
IP[ ]	/* InterpolatePts */
IUP[1]	/* InterpolateUntPts */
SVTCA[0]	/* SetFreedomAndProjectionVectorToAxis */
SRP0[ ]	/* SetRefPoint0 */
MIRP[10100]	/* MoveIndirectRelPt */
MIRP[01100]	/* MoveIndirectRelPt */
MIRP[10100]	/* MoveIndirectRelPt */
MIRP[01100]	/* MoveIndirectRelPt */
MDRP[11100]	/* MoveDirectRelPt */
MIRP[01100]	/* MoveIndirectRelPt */
IUP[0]	/* InterpolateUntPts */";
};
width = 1233;
}
);
note = ordmasculine;
unicode = 186;
},
{
glyphname = guillemotright;
layers = (
{
layerId = m01;
shapes = (
{
closed = 1;
nodes = (
(469,600,l),
(193,379,l),
(193,141,l),
(662,535,l),
(662,666,l),
(193,1059,l),
(193,821,l)
);
},
{
closed = 1;
nodes = (
(924,600,l),
(647,379,l),
(647,141,l),
(1116,535,l),
(1116,666,l),
(647,1059,l),
(647,821,l)
);
}
);
userData = {
assembly = "NPUSHB[ ]	/* 21 values pushed */
12 5 10 3 7 0 14 12 8 1 5 0 8 85 10 7 1 85 3 0 14
SRP0[ ]	/* SetRefPoint0 */
MDRP[10100]	/* MoveDirectRelPt */
ALIGNRP[ ]	/* AlignRelativePt */
MIRP[11100]	/* MoveIndirectRelPt */
MDRP[10100]	/* MoveDirectRelPt */
ALIGNRP[ ]	/* AlignRelativePt */
MIRP[01100]	/* MoveIndirectRelPt */
SRP2[ ]	/* SetRefPoint2 */
IP[ ]	/* InterpolatePts */
SRP1[ ]	/* SetRefPoint1 */
SRP2[ ]	/* SetRefPoint2 */
IP[ ]	/* InterpolatePts */
IUP[1]	/* InterpolateUntPts */
SVTCA[0]	/* SetFreedomAndProjectionVectorToAxis */
SRP0[ ]	/* SetRefPoint0 */
MDRP[10100]	/* MoveDirectRelPt */
ALIGNRP[ ]	/* AlignRelativePt */
MDRP[01100]	/* MoveDirectRelPt */
SHP[0]	/* ShiftPointByLastPoint */
IP[ ]	/* InterpolatePts */
IP[ ]	/* InterpolatePts */
IUP[0]	/* InterpolateUntPts */";
};
width = 1233;
}
);
note = guillemotright;
unicode = 187;
},
{
glyphname = questiondown;
layers = (
{
layerId = m01;
shapes = (
{
closed = 1;
nodes = (
(532,1120,l),
(532,837,l),
(799,837,l),
(799,1120,l)
);
},
{
closed = 1;
nodes = (
(532,576,o),
(531,555,q),
(530,550,o),
(530,549,qs),
(530,486,o),
(492,402,o),
(426,338,qs),
(338,252,ls),
(244,160,o),
(176,29,o),
(176,-47,qs),
(176,-212,o),
(405,-400,o),
(606,-400,qs),
(707,-400,o),
(908,-343,o),
(1006,-287,q),
(1006,-19,l),
(909,-89,o),
(728,-160,o),
(645,-160,qs),
(553,-160,o),
(461,-92,o),
(461,-25,qs),
(461,19,o),
(506,100,o),
(567,159,qs),
(657,248,ls),
(737,325,o),
(799,466,o),
(799,565,qs),
(799,719,l),
(532,719,l),
(532,596,ls)
);
}
);
userData = {
assembly = "NPUSHB[ ]	/* 60 values pushed */
11 1 12 10 30 29 8 1 7 9 30 30 29 37 37 30 9 6 4 10 29 4 19 102 20 4 0 2 16 104 20 23 145 2 144 38 29 26 35 13 9 1 0 30 26 33 13 10 1 0 13 22 26 19 5 0 1 4 1 38
SRP0[ ]	/* SetRefPoint0 */
MDRP[10100]	/* MoveDirectRelPt */
ALIGNRP[ ]	/* AlignRelativePt */
MIRP[11100]	/* MoveIndirectRelPt */
ALIGNRP[ ]	/* AlignRelativePt */
MDRP[10100]	/* MoveDirectRelPt */
MDRP[10100]	/* MoveDirectRelPt */
MIRP[01100]	/* MoveIndirectRelPt */
SRP1[ ]	/* SetRefPoint1 */
SRP2[ ]	/* SetRefPoint2 */
IP[ ]	/* InterpolatePts */
SRP1[ ]	/* SetRefPoint1 */
IP[ ]	/* InterpolatePts */
SRP2[ ]	/* SetRefPoint2 */
IP[ ]	/* InterpolatePts */
SRP1[ ]	/* SetRefPoint1 */
SRP2[ ]	/* SetRefPoint2 */
IP[ ]	/* InterpolatePts */
SRP1[ ]	/* SetRefPoint1 */
IP[ ]	/* InterpolatePts */
SRP2[ ]	/* SetRefPoint2 */
IP[ ]	/* InterpolatePts */
IUP[1]	/* InterpolateUntPts */
SVTCA[0]	/* SetFreedomAndProjectionVectorToAxis */
SRP0[ ]	/* SetRefPoint0 */
MIRP[00100]	/* MoveIndirectRelPt */
MIRP[10100]	/* MoveIndirectRelPt */
MDRP[00100]	/* MoveDirectRelPt */
MIRP[01100]	/* MoveIndirectRelPt */
SRP0[ ]	/* SetRefPoint0 */
MDRP[11110]	/* MoveDirectRelPt */
MDRP[00101]	/* MoveDirectRelPt */
SRP0[ ]	/* SetRefPoint0 */
MIRP[01110]	/* MoveIndirectRelPt */
SRP1[ ]	/* SetRefPoint1 */
IP[ ]	/* InterpolatePts */
IP[ ]	/* InterpolatePts */
SLOOP[ ]	/* SetLoopVariable */
IP[ ]	/* InterpolatePts */
IUP[0]	/* InterpolateUntPts */
MPPEM[ ]	/* MeasurePixelPerEm */
GTEQ[ ]	/* GreaterThanOrEqual */
IF[ ]	/* If */
SPVTL[1]	/* SetPVectorToLine */
SRP0[ ]	/* SetRefPoint0 */
SFVTPV[ ]	/* SetFVectorToPVector */
MDRP[01001]	/* MoveDirectRelPt */
SRP1[ ]	/* SetRefPoint1 */
SLOOP[ ]	/* SetLoopVariable */
IP[ ]	/* InterpolatePts */
SPVTL[1]	/* SetPVectorToLine */
SFVTPV[ ]	/* SetFVectorToPVector */
MDRP[01001]	/* MoveDirectRelPt */
SRP1[ ]	/* SetRefPoint1 */
SLOOP[ ]	/* SetLoopVariable */
IP[ ]	/* InterpolatePts */
EIF[ ]	/* EndIf */
CLEAR[ ]	/* ClearStack */";
};
width = 1233;
}
);
note = questiondown;
unicode = 191;
},
{
glyphname = Aring;
layers = (
{
layerId = m01;
shapes = (
{
closed = 1;
nodes = (
(901,1554,o),
(901,1616,qs),
(901,1733,o),
(734,1901,o),
(616,1901,qs),
(499,1901,o),
(332,1733,o),
(332,1616,qs),
(332,1555,o),
(374,1458,o),
(418,1421,q),
(33,0,l),
(328,0,l),
(418,369,l),
(813,369,l),
(905,0,l),
(1200,0,l),
(815,1421,l),
(859,1459,o)
);
},
{
closed = 1;
nodes = (
(563,1747,o),
(616,1747,qs),
(670,1747,o),
(748,1670,o),
(748,1616,qs),
(748,1562,o),
(671,1485,o),
(616,1485,qs),
(563,1485,o),
(485,1562,o),
(485,1616,qs),
(485,1670,o)
);
},
{
closed = 1;
nodes = (
(477,612,l),
(616,1223,l),
(756,612,l)
);
}
);
userData = {
assembly = "NPUSHB[ ]	/* 77 values pushed */
31 32 31 0 1 0 33 1 0 3 1 0 2 1 1 0 32 6 7 6 31 33 31 7 7 6 5 7 6 4 6 7 6 37 31 7 0 22 3 104 32 28 13 22 105 32 126 5 1 31 19 33 3 0 3 25 16 32 7 4 3 19 5 10 6 2 1 25 16 1 19 10 1 27 6 28 34
SRP0[ ]	/* SetRefPoint0 */
MIRP[11100]	/* MoveIndirectRelPt */
MIRP[01100]	/* MoveIndirectRelPt */
MDRP[10100]	/* MoveDirectRelPt */
MDRP[01100]	/* MoveDirectRelPt */
SRP0[ ]	/* SetRefPoint0 */
MDRP[10100]	/* MoveDirectRelPt */
MDRP[01110]	/* MoveDirectRelPt */
SRP2[ ]	/* SetRefPoint2 */
IP[ ]	/* InterpolatePts */
SRP1[ ]	/* SetRefPoint1 */
SRP2[ ]	/* SetRefPoint2 */
IP[ ]	/* InterpolatePts */
SRP1[ ]	/* SetRefPoint1 */
SLOOP[ ]	/* SetLoopVariable */
IP[ ]	/* InterpolatePts */
SRP1[ ]	/* SetRefPoint1 */
SRP2[ ]	/* SetRefPoint2 */
SLOOP[ ]	/* SetLoopVariable */
IP[ ]	/* InterpolatePts */
SRP1[ ]	/* SetRefPoint1 */
IP[ ]	/* InterpolatePts */
IUP[1]	/* InterpolateUntPts */
SVTCA[0]	/* SetFreedomAndProjectionVectorToAxis */
MDAP[1]	/* MoveDirectAbsPt */
ALIGNRP[ ]	/* AlignRelativePt */
MIRP[01110]	/* MoveIndirectRelPt */
MIRP[00110]	/* MoveIndirectRelPt */
MDRP[10110]	/* MoveDirectRelPt */
MDRP[01110]	/* MoveDirectRelPt */
SRP0[ ]	/* SetRefPoint0 */
MIRP[01110]	/* MoveIndirectRelPt */
SRP2[ ]	/* SetRefPoint2 */
IP[ ]	/* InterpolatePts */
IP[ ]	/* InterpolatePts */
IP[ ]	/* InterpolatePts */
IUP[0]	/* InterpolateUntPts */
MPPEM[ ]	/* MeasurePixelPerEm */
GTEQ[ ]	/* GreaterThanOrEqual */
IF[ ]	/* If */
SPVTL[1]	/* SetPVectorToLine */
SRP0[ ]	/* SetRefPoint0 */
SFVTCA[1]	/* SetFVectorToAxis */
MDRP[01001]	/* MoveDirectRelPt */
SPVTL[1]	/* SetPVectorToLine */
SFVTCA[1]	/* SetFVectorToAxis */
MDRP[01001]	/* MoveDirectRelPt */
SPVTL[1]	/* SetPVectorToLine */
SRP0[ ]	/* SetRefPoint0 */
SFVTL[0]	/* SetFVectorToLine */
MDRP[01001]	/* MoveDirectRelPt */
SPVTL[1]	/* SetPVectorToLine */
SRP0[ ]	/* SetRefPoint0 */
SFVTCA[1]	/* SetFVectorToAxis */
MDRP[01001]	/* MoveDirectRelPt */
SPVTL[1]	/* SetPVectorToLine */
SRP0[ ]	/* SetRefPoint0 */
SFVTCA[1]	/* SetFVectorToAxis */
MDRP[01001]	/* MoveDirectRelPt */
SPVTL[1]	/* SetPVectorToLine */
SFVTCA[1]	/* SetFVectorToAxis */
MDRP[01001]	/* MoveDirectRelPt */
SPVTL[1]	/* SetPVectorToLine */
SFVTCA[1]	/* SetFVectorToAxis */
MDRP[01001]	/* MoveDirectRelPt */
SPVTL[1]	/* SetPVectorToLine */
SRP0[ ]	/* SetRefPoint0 */
SFVTL[0]	/* SetFVectorToLine */
MDRP[01001]	/* MoveDirectRelPt */
EIF[ ]	/* EndIf */
CLEAR[ ]	/* ClearStack */
PUSHB[ ]	/* 3 values pushed */
8 0 1
SVTCA[1]	/* SetFreedomAndProjectionVectorToAxis */
DELTAP1[ ]	/* DeltaExceptionP1 */
NPUSHB[ ]	/* 92 values pushed */
15 31 0 32 0 33 48 3 48 4 48 32 48 33 111 31 159 31 175 31 175 31 188 19 184 20 184 24 188 25 188 26 191 27 191 28 191 29 188 30 191 31 21 13 0 1 7 6 32 0 32 8 33 15 33 39 32 41 33 59 3 52 4 52 32 59 33 116 32 124 33 130 32 141 33 176 19 176 20 191 24 191 25 191 26 176 30 181 32 186 33 24
DELTAP1[ ]	/* DeltaExceptionP1 */
SVTCA[0]	/* SetFreedomAndProjectionVectorToAxis */
DELTAP1[ ]	/* DeltaExceptionP1 */";
};
width = 1233;
}
);
note = Aring;
unicode = 197;
},
{
glyphname = AE;
layers = (
{
anchors = (
{
name = topright;
pos = (634,1493);
}
);
layerId = m01;
shapes = (
{
closed = 1;
nodes = (
(0,0,l),
(248,0,l),
(334,362,l),
(616,362,l),
(616,0,l),
(1180,0,l),
(1180,260,l),
(870,260,l),
(870,662,l),
(1130,662,l),
(1130,922,l),
(870,922,l),
(870,1233,l),
(1161,1233,l),
(1161,1493,l),
(358,1493,l)
);
},
{
closed = 1;
nodes = (
(616,598,l),
(389,598,l),
(537,1233,l),
(616,1233,l)
);
}
);
userData = {
assembly = "NPUSHB[ ]	/* 51 values pushed */
17 14 15 14 16 15 15 14 13 15 14 12 14 15 14 37 5 112 3 11 104 17 16 1 112 0 100 7 112 17 126 3 128 13 9 17 16 15 13 12 5 14 6 2 37 18 10 0 4 8 14
MDAP[1]	/* MoveDirectAbsPt */
MDRP[10100]	/* MoveDirectRelPt */
MDRP[00100]	/* MoveDirectRelPt */
MDRP[00100]	/* MoveDirectRelPt */
MDRP[10100]	/* MoveDirectRelPt */
ALIGNRP[ ]	/* AlignRelativePt */
MIRP[01100]	/* MoveIndirectRelPt */
SHP[0]	/* ShiftPointByLastPoint */
SRP2[ ]	/* SetRefPoint2 */
SLOOP[ ]	/* SetLoopVariable */
IP[ ]	/* InterpolatePts */
IUP[1]	/* InterpolateUntPts */
SVTCA[0]	/* SetFreedomAndProjectionVectorToAxis */
MDAP[1]	/* MoveDirectAbsPt */
ALIGNRP[ ]	/* AlignRelativePt */
MIRP[00100]	/* MoveIndirectRelPt */
MIRP[01100]	/* MoveIndirectRelPt */
MIRP[01100]	/* MoveIndirectRelPt */
MIRP[10100]	/* MoveIndirectRelPt */
MIRP[01100]	/* MoveIndirectRelPt */
SHP[0]	/* ShiftPointByLastPoint */
SRP0[ ]	/* SetRefPoint0 */
MIRP[01110]	/* MoveIndirectRelPt */
SRP0[ ]	/* SetRefPoint0 */
MIRP[01110]	/* MoveIndirectRelPt */
IUP[0]	/* InterpolateUntPts */
MPPEM[ ]	/* MeasurePixelPerEm */
GTEQ[ ]	/* GreaterThanOrEqual */
IF[ ]	/* If */
SPVTL[1]	/* SetPVectorToLine */
SRP0[ ]	/* SetRefPoint0 */
SFVTCA[1]	/* SetFVectorToAxis */
MDRP[01001]	/* MoveDirectRelPt */
SPVTL[1]	/* SetPVectorToLine */
SFVTCA[1]	/* SetFVectorToAxis */
MDRP[01001]	/* MoveDirectRelPt */
SPVTL[1]	/* SetPVectorToLine */
SRP0[ ]	/* SetRefPoint0 */
SFVTCA[1]	/* SetFVectorToAxis */
MDRP[01001]	/* MoveDirectRelPt */
SPVTL[1]	/* SetPVectorToLine */
SRP0[ ]	/* SetRefPoint0 */
SFVTCA[1]	/* SetFVectorToAxis */
MDRP[01001]	/* MoveDirectRelPt */
EIF[ ]	/* EndIf */
CLEAR[ ]	/* ClearStack */";
};
width = 1233;
}
);
note = AE;
unicode = 198;
},
{
glyphname = Eth;
layers = (
{
layerId = m01;
shapes = (
{
closed = 1;
nodes = (
(686,1227,o),
(834,1009,o),
(834,748,qs),
(834,485,o),
(686,266,o),
(512,266,qs),
(432,266,l),
(432,664,l),
(643,664,l),
(643,901,l),
(432,901,l),
(432,1227,l),
(512,1227,ls)
);
},
{
closed = 1;
nodes = (
(0,901,l),
(0,664,l),
(137,664,l),
(137,0,l),
(453,0,ls),
(819,0,o),
(1141,351,o),
(1141,748,qs),
(1141,1144,o),
(819,1493,o),
(453,1493,qs),
(137,1493,l),
(137,901,l)
);
}
);
userData = {
assembly = "NPUSHB[ ]	/* 31 values pushed */
22 3 104 1 0 112 13 100 5 112 24 1 20 12 6 2 3 20 14 0 9 33 17 30 4 0 15 21 13 34 23
MDAP[1]	/* MoveDirectAbsPt */
MIRP[11110]	/* MoveIndirectRelPt */
ALIGNRP[ ]	/* AlignRelativePt */
MIRP[01110]	/* MoveIndirectRelPt */
SHP[0]	/* ShiftPointByLastPoint */
MIRP[11110]	/* MoveIndirectRelPt */
MIRP[01110]	/* MoveIndirectRelPt */
SRP1[ ]	/* SetRefPoint1 */
IP[ ]	/* InterpolatePts */
IP[ ]	/* InterpolatePts */
SLOOP[ ]	/* SetLoopVariable */
IP[ ]	/* InterpolatePts */
IUP[1]	/* InterpolateUntPts */
SVTCA[0]	/* SetFreedomAndProjectionVectorToAxis */
MDAP[1]	/* MoveDirectAbsPt */
MDRP[00110]	/* MoveDirectRelPt */
SHP[0]	/* ShiftPointByLastPoint */
MIRP[01110]	/* MoveIndirectRelPt */
MIRP[10110]	/* MoveIndirectRelPt */
MIRP[01110]	/* MoveIndirectRelPt */
SRP0[ ]	/* SetRefPoint0 */
MIRP[01110]	/* MoveIndirectRelPt */
SHP[0]	/* ShiftPointByLastPoint */
IUP[0]	/* InterpolateUntPts */";
};
width = 1233;
}
);
note = Eth;
unicode = 208;
},
{
glyphname = multiply;
layers = (
{
layerId = m01;
shapes = (
{
closed = 1;
nodes = (
(614,811,l),
(287,1139,l),
(119,971,l),
(449,643,l),
(119,313,l),
(287,147,l),
(614,475,l),
(944,147,l),
(1112,313,l),
(782,643,l),
(1112,971,l),
(944,1139,l)
);
}
);
userData = {
assembly = "NPUSHB[ ]	/* 29 values pushed */
10 8 7 6 4 2 1 0 8 5 3 11 9 12 11 10 9 7 5 4 3 1 8 2 0 8 6 20 12
SRP0[ ]	/* SetRefPoint0 */
MIRP[11100]	/* MoveIndirectRelPt */
ALIGNRP[ ]	/* AlignRelativePt */
MDRP[01100]	/* MoveDirectRelPt */
SHP[0]	/* ShiftPointByLastPoint */
SLOOP[ ]	/* SetLoopVariable */
IP[ ]	/* InterpolatePts */
IUP[1]	/* InterpolateUntPts */
SVTCA[0]	/* SetFreedomAndProjectionVectorToAxis */
SRP0[ ]	/* SetRefPoint0 */
MDRP[10100]	/* MoveDirectRelPt */
ALIGNRP[ ]	/* AlignRelativePt */
MDRP[01100]	/* MoveDirectRelPt */
SHP[0]	/* ShiftPointByLastPoint */
SLOOP[ ]	/* SetLoopVariable */
IP[ ]	/* InterpolatePts */
IUP[0]	/* InterpolateUntPts */";
};
width = 1233;
}
);
note = multiply;
unicode = 215;
},
{
glyphname = Oslash;
layers = (
{
layerId = m01;
shapes = (
{
closed = 1;
nodes = (
(832,835,o),
(834,773,o),
(834,745,qs),
(834,477,o),
(730,236,o),
(616,236,qs),
(560,236,o),
(475,297,o),
(451,354,q),
(829,888,l)
);
},
{
closed = 1;
nodes = (
(399,756,ls),
(399,1015,o),
(504,1255,o),
(616,1255,qs),
(668,1255,o),
(746,1204,o),
(772,1153,q),
(399,629,l)
);
},
{
closed = 1;
nodes = (
(156,-63,l),
(276,104,l),
(340,38,o),
(510,-29,o),
(616,-29,qs),
(876,-29,o),
(1141,363,o),
(1141,745,qs),
(1141,888,o),
(1102,1127,o),
(1063,1221,q),
(1221,1444,l),
(1059,1559,l),
(946,1397,l),
(885,1458,o),
(719,1520,o),
(616,1520,qs),
(357,1520,o),
(92,1128,o),
(92,745,qs),
(92,604,o),
(127,377,o),
(162,289,q),
(-6,51,l)
);
}
);
userData = {
assembly = "NPUSHB[ ]	/* 62 values pushed */
27 29 24 13 41 42 17 16 10 9 0 5 13 39 36 30 18 13 3 40 36 28 24 3 112 36 13 112 24 110 36 114 42 40 18 21 16 30 28 33 10 9 0 3 6 39 21 16 27 6 29 33 41 6 33 33 30 16 33 21 39 42
SRP0[ ]	/* SetRefPoint0 */
MIRP[11100]	/* MoveIndirectRelPt */
MIRP[01100]	/* MoveIndirectRelPt */
MIRP[11100]	/* MoveIndirectRelPt */
MIRP[01100]	/* MoveIndirectRelPt */
MDAP[0]	/* MoveDirectAbsPt */
SRP0[ ]	/* SetRefPoint0 */
MDRP[00000]	/* MoveDirectRelPt */
SRP2[ ]	/* SetRefPoint2 */
IP[ ]	/* InterpolatePts */
SRP1[ ]	/* SetRefPoint1 */
SRP2[ ]	/* SetRefPoint2 */
IP[ ]	/* InterpolatePts */
SRP2[ ]	/* SetRefPoint2 */
SLOOP[ ]	/* SetLoopVariable */
IP[ ]	/* InterpolatePts */
SRP1[ ]	/* SetRefPoint1 */
IP[ ]	/* InterpolatePts */
IP[ ]	/* InterpolatePts */
SRP1[ ]	/* SetRefPoint1 */
SRP2[ ]	/* SetRefPoint2 */
IP[ ]	/* InterpolatePts */
IP[ ]	/* InterpolatePts */
IUP[1]	/* InterpolateUntPts */
SVTCA[0]	/* SetFreedomAndProjectionVectorToAxis */
SRP0[ ]	/* SetRefPoint0 */
MIRP[00100]	/* MoveIndirectRelPt */
MIRP[10100]	/* MoveIndirectRelPt */
MIRP[01100]	/* MoveIndirectRelPt */
SRP0[ ]	/* SetRefPoint0 */
MIRP[01110]	/* MoveIndirectRelPt */
SRP0[ ]	/* SetRefPoint0 */
MDRP[00000]	/* MoveDirectRelPt */
SRP0[ ]	/* SetRefPoint0 */
MDRP[00000]	/* MoveDirectRelPt */
SRP1[ ]	/* SetRefPoint1 */
SRP2[ ]	/* SetRefPoint2 */
IP[ ]	/* InterpolatePts */
IP[ ]	/* InterpolatePts */
SRP2[ ]	/* SetRefPoint2 */
IP[ ]	/* InterpolatePts */
SRP2[ ]	/* SetRefPoint2 */
SLOOP[ ]	/* SetLoopVariable */
IP[ ]	/* InterpolatePts */
SRP2[ ]	/* SetRefPoint2 */
IP[ ]	/* InterpolatePts */
SRP1[ ]	/* SetRefPoint1 */
SRP2[ ]	/* SetRefPoint2 */
IP[ ]	/* InterpolatePts */
IP[ ]	/* InterpolatePts */
IUP[0]	/* InterpolateUntPts */";
};
width = 1233;
}
);
note = Oslash;
unicode = 216;
},
{
glyphname = Thorn;
layers = (
{
layerId = m01;
shapes = (
{
closed = 1;
nodes = (
(723,1014,o),
(840,914,o),
(840,793,qs),
(840,673,o),
(724,575,o),
(578,575,qs),
(457,575,l),
(457,1014,l),
(578,1014,ls)
);
},
{
closed = 1;
nodes = (
(457,0,l),
(457,332,l),
(567,332,ls),
(873,332,o),
(1147,549,o),
(1147,788,qs),
(1147,1036,o),
(876,1255,o),
(567,1255,qs),
(457,1255,l),
(457,1493,l),
(162,1493,l),
(162,0,l)
);
}
);
userData = {
assembly = "NPUSHB[ ]	/* 25 values pushed */
1 104 18 0 104 11 9 100 20 8 2 18 12 0 5 33 15 31 19 10 0 15 9 28 22
SRP0[ ]	/* SetRefPoint0 */
MIRP[11100]	/* MoveIndirectRelPt */
MIRP[01100]	/* MoveIndirectRelPt */
SHP[0]	/* ShiftPointByLastPoint */
SHP[0]	/* ShiftPointByLastPoint */
MIRP[11100]	/* MoveIndirectRelPt */
MIRP[01100]	/* MoveIndirectRelPt */
SRP1[ ]	/* SetRefPoint1 */
IP[ ]	/* InterpolatePts */
IP[ ]	/* InterpolatePts */
IP[ ]	/* InterpolatePts */
IP[ ]	/* InterpolatePts */
IUP[1]	/* InterpolateUntPts */
SVTCA[0]	/* SetFreedomAndProjectionVectorToAxis */
MDAP[1]	/* MoveDirectAbsPt */
MIRP[10100]	/* MoveIndirectRelPt */
MDRP[10100]	/* MoveDirectRelPt */
MIRP[01100]	/* MoveIndirectRelPt */
MDRP[10100]	/* MoveDirectRelPt */
MIRP[01100]	/* MoveIndirectRelPt */
IUP[0]	/* InterpolateUntPts */";
};
width = 1233;
}
);
note = Thorn;
unicode = 222;
},
{
glyphname = germandbls;
layers = (
{
layerId = m01;
shapes = (
{
closed = 1;
nodes = (
(1034,1319,o),
(821,1556,o),
(598,1556,qs),
(368,1556,o),
(127,1337,o),
(127,1126,qs),
(127,0,l),
(420,0,l),
(420,1122,ls),
(420,1220,o),
(516,1321,o),
(610,1321,qs),
(702,1321,o),
(800,1248,o),
(809,1174,q),
(672,1143,o),
(524,972,o),
(524,846,qs),
(524,769,o),
(584,642,o),
(643,594,qs),
(729,526,ls),
(745,514,o),
(774,492,qs),
(889,404,o),
(889,332,qs),
(889,274,o),
(804,207,o),
(731,207,qs),
(677,207,o),
(562,239,o),
(504,270,q),
(504,20,l),
(571,-4,o),
(695,-29,o),
(756,-29,qs),
(950,-29,o),
(1174,163,o),
(1174,330,qs),
(1174,424,o),
(1094,577,o),
(1012,639,qs),
(915,713,ls),
(909,718,o),
(896,728,qs),
(780,817,o),
(780,881,qs),
(780,962,o),
(909,1053,o),
(1034,1059,q),
(1034,1073,ls)
);
}
);
userData = {
assembly = "NPUSHB[ ]	/* 50 values pushed */
41 35 29 7 0 5 8 28 44 50 4 38 18 139 17 21 104 14 38 104 47 116 14 114 42 29 28 32 3 7 8 24 0 3 32 35 0 65 24 22 11 17 32 41 22 11 46 43 47 51
SRP0[ ]	/* SetRefPoint0 */
MIRP[11100]	/* MoveIndirectRelPt */
MIRP[01100]	/* MoveIndirectRelPt */
MIRP[11100]	/* MoveIndirectRelPt */
MDRP[00100]	/* MoveDirectRelPt */
MDRP[00100]	/* MoveDirectRelPt */
SRP0[ ]	/* SetRefPoint0 */
MIRP[01110]	/* MoveIndirectRelPt */
MIRP[10100]	/* MoveIndirectRelPt */
MDRP[01110]	/* MoveDirectRelPt */
SRP0[ ]	/* SetRefPoint0 */
MDRP[01110]	/* MoveDirectRelPt */
SRP1[ ]	/* SetRefPoint1 */
SRP2[ ]	/* SetRefPoint2 */
IP[ ]	/* InterpolatePts */
IP[ ]	/* InterpolatePts */
SRP1[ ]	/* SetRefPoint1 */
SRP2[ ]	/* SetRefPoint2 */
IP[ ]	/* InterpolatePts */
IP[ ]	/* InterpolatePts */
IUP[1]	/* InterpolateUntPts */
SVTCA[0]	/* SetFreedomAndProjectionVectorToAxis */
MDAP[1]	/* MoveDirectAbsPt */
MIRP[00100]	/* MoveIndirectRelPt */
MIRP[11110]	/* MoveIndirectRelPt */
MIRP[01110]	/* MoveIndirectRelPt */
SRP0[ ]	/* SetRefPoint0 */
MIRP[01110]	/* MoveIndirectRelPt */
MDRP[10110]	/* MoveDirectRelPt */
MIRP[01110]	/* MoveIndirectRelPt */
SRP1[ ]	/* SetRefPoint1 */
SLOOP[ ]	/* SetLoopVariable */
IP[ ]	/* InterpolatePts */
SLOOP[ ]	/* SetLoopVariable */
IP[ ]	/* InterpolatePts */
IUP[0]	/* InterpolateUntPts */";
};
width = 1233;
}
);
note = germandbls;
unicode = 223;
},
{
glyphname = ae;
layers = (
{
anchors = (
{
name = topright;
pos = (616,1120);
}
);
layerId = m01;
shapes = (
{
closed = 1;
nodes = (
(489,270,o),
(428,184,o),
(365,184,qs),
(304,184,o),
(240,259,o),
(240,330,qs),
(240,405,o),
(329,483,o),
(416,483,qs),
(489,483,l),
(489,401,l),
(489,358,ls)
);
},
{
closed = 1;
nodes = (
(737,713,ls),
(737,838,o),
(787,932,o),
(850,932,qs),
(913,932,o),
(963,838,o),
(963,713,qs),
(963,690,l),
(737,690,l)
);
},
{
closed = 1;
nodes = (
(1188,909,o),
(1041,1147,o),
(864,1147,qs),
(772,1147,o),
(641,1081,o),
(612,1020,q),
(577,1085,o),
(452,1147,o),
(354,1147,qs),
(290,1147,o),
(150,1108,o),
(76,1069,q),
(76,823,l),
(150,877,o),
(285,932,o),
(342,932,qs),
(418,932,o),
(496,838,o),
(496,745,qs),
(496,694,l),
(420,694,ls),
(216,694,o),
(14,511,o),
(14,326,qs),
(14,156,o),
(188,-29,o),
(348,-29,qs),
(446,-29,o),
(577,51,o),
(618,135,q),
(660,55,o),
(810,-29,o),
(913,-29,qs),
(996,-29,o),
(1121,13,o),
(1171,57,q),
(1171,301,l),
(1112,243,o),
(992,184,o),
(932,184,qs),
(837,184,o),
(737,335,o),
(737,479,q),
(1188,479,l),
(1188,606,ls)
);
}
);
userData = {
assembly = "NPUSHB[ ]	/* 75 values pushed */
46 19 13 3 52 44 11 28 21 59 53 16 35 29 8 65 12 1 28 139 29 12 103 21 25 8 103 29 121 32 52 139 53 138 21 142 49 16 103 56 1 103 44 133 62 56 137 38 32 114 66 2 5 0 35 59 45 19 44 5 0 28 12 21 52 5 84 41 21 45 0 82 22 19 66
SRP0[ ]	/* SetRefPoint0 */
MDRP[10100]	/* MoveDirectRelPt */
ALIGNRP[ ]	/* AlignRelativePt */
MIRP[11100]	/* MoveIndirectRelPt */
MDRP[00100]	/* MoveDirectRelPt */
MDRP[00100]	/* MoveDirectRelPt */
MDRP[10100]	/* MoveDirectRelPt */
MIRP[01100]	/* MoveIndirectRelPt */
MDRP[01100]	/* MoveDirectRelPt */
SRP0[ ]	/* SetRefPoint0 */
MDRP[01110]	/* MoveDirectRelPt */
MDRP[00101]	/* MoveDirectRelPt */
SRP1[ ]	/* SetRefPoint1 */
SRP2[ ]	/* SetRefPoint2 */
IP[ ]	/* InterpolatePts */
SRP1[ ]	/* SetRefPoint1 */
SRP2[ ]	/* SetRefPoint2 */
IP[ ]	/* InterpolatePts */
IP[ ]	/* InterpolatePts */
SRP1[ ]	/* SetRefPoint1 */
SRP2[ ]	/* SetRefPoint2 */
IP[ ]	/* InterpolatePts */
IUP[1]	/* InterpolateUntPts */
SVTCA[0]	/* SetFreedomAndProjectionVectorToAxis */
SRP0[ ]	/* SetRefPoint0 */
MIRP[00100]	/* MoveIndirectRelPt */
SHP[0]	/* ShiftPointByLastPoint */
MIRP[00100]	/* MoveIndirectRelPt */
SHP[0]	/* ShiftPointByLastPoint */
MIRP[10100]	/* MoveIndirectRelPt */
MIRP[01100]	/* MoveIndirectRelPt */
SRP0[ ]	/* SetRefPoint0 */
MIRP[01110]	/* MoveIndirectRelPt */
SHP[0]	/* ShiftPointByLastPoint */
MIRP[01110]	/* MoveIndirectRelPt */
MIRP[10110]	/* MoveIndirectRelPt */
MIRP[01110]	/* MoveIndirectRelPt */
SRP0[ ]	/* SetRefPoint0 */
MIRP[00110]	/* MoveIndirectRelPt */
MIRP[01110]	/* MoveIndirectRelPt */
SHP[0]	/* ShiftPointByLastPoint */
SRP0[ ]	/* SetRefPoint0 */
MIRP[01110]	/* MoveIndirectRelPt */
SRP0[ ]	/* SetRefPoint0 */
MIRP[01110]	/* MoveIndirectRelPt */
SRP1[ ]	/* SetRefPoint1 */
SRP2[ ]	/* SetRefPoint2 */
IP[ ]	/* InterpolatePts */
SRP1[ ]	/* SetRefPoint1 */
SRP2[ ]	/* SetRefPoint2 */
IP[ ]	/* InterpolatePts */
SRP1[ ]	/* SetRefPoint1 */
SRP2[ ]	/* SetRefPoint2 */
IP[ ]	/* InterpolatePts */
SRP1[ ]	/* SetRefPoint1 */
SRP2[ ]	/* SetRefPoint2 */
IP[ ]	/* InterpolatePts */
SRP1[ ]	/* SetRefPoint1 */
SRP2[ ]	/* SetRefPoint2 */
SLOOP[ ]	/* SetLoopVariable */
IP[ ]	/* InterpolatePts */
IUP[0]	/* InterpolateUntPts */
NPUSHB[ ]	/* 39 values pushed */
51 51 48 52 48 53 51 54 71 51 71 52 71 53 71 54 89 27 89 28 89 29 89 30 87 51 87 54 207 12 207 20 207 21 207 22 207 65 19
DELTAP1[ ]	/* DeltaExceptionP1 */";
};
width = 1233;
}
);
note = ae;
unicode = 230;
},
